<?xml version="1.0" encoding="utf-8"?>
<!-- Generator: Adobe Illustrator 23.1.0, SVG Export Plug-In . SVG Version: 6.00 Build 0)  -->
<svg version="1.1" id="Layer_1" xmlns="http://www.w3.org/2000/svg" xmlns:xlink="http://www.w3.org/1999/xlink" x="0px" y="0px"
	 viewBox="0 0 1227.7 458.3" style="enable-background:new 0 0 1227.7 458.3;" xml:space="preserve">
<style type="text/css">
	.st0{fill:url(#SVGID_1_);}
	.st1{fill:#FFFFFF;}
	.st2{fill:url(#SVGID_2_);}
</style>
<g>
	<linearGradient id="SVGID_1_" gradientUnits="userSpaceOnUse" x1="434.3635" y1="473.6843" x2="74.5652" y2="125.1046">
		<stop  offset="0" style="stop-color:#5B7BBD"/>
		<stop  offset="1" style="stop-color:#5162AD"/>
	</linearGradient>
	<path class="st0" d="M440.2,419.9c0-7.7,5.9-14.1,13.4-14.9v-7.2c-7.4-0.9-13.1-7.2-13.1-14.9c0-7.7,5.7-14,13.1-14.9v-7.1
		c-7.4-0.9-13.1-7.2-13.1-14.9c0-7.7,5.7-14,13.1-14.9V324c-7.4-0.9-13.1-7.2-13.1-14.9c0-7.7,5.7-14,13.1-14.9V288
		c-7.4-0.9-13.1-7.2-13.1-14.9c0-7.7,5.7-14,13.1-14.9v-7.1c-7.4-0.9-13.1-7.2-13.1-14.9c0-7.7,5.7-14,13.1-14.9v-7.1
		c-7.4-0.9-13.1-7.2-13.1-14.9c0-7.7,5.7-14,13.1-14.9v-7.1c-7.4-0.9-13.1-7.2-13.1-14.9c0-7.7,5.7-14,13.1-14.9V140
		c-7.5-0.8-13.4-7.2-13.4-14.9s5.9-14.1,13.4-14.9V86.9L0,86.9l0,371.3l453.6,0v-23.4C446.1,434,440.2,427.7,440.2,419.9z"/>
	<g>
		<g>
			<path class="st1" d="M35.5,221.5h53.5L133.6,325l44.9-103.5H232v211.7h-53.8l0.3-61l3.3-42.8l-1.8-0.3l-27.8,72.7h-36.8L87,329.2
				l-1.5,0.3l3.6,42.8v61H35.5V221.5z"/>
			<path class="st1" d="M319.6,304.7h85.8V351h-85.8v31.7h93.3v50.5H265.5V221.5h147.4v50.2h-93.3V304.7z"/>
		</g>
		<g>
			<path class="st1" d="M56.6,144.5h33.5v18.1H56.6v12.4H93v19.7H35.5V112H93v19.6H56.6V144.5z"/>
			<path class="st1" d="M159.4,111.9h22.4L152,194.5h-19.1l-29.7-82.6h22.4l12.9,40.4l3.7,19.6h0.3l3.7-19.5L159.4,111.9z"/>
			<path class="st1" d="M213,144.5h33.5v18.1H213v12.4h36.4v19.7h-57.5V112h57.5v19.6H213V144.5z"/>
			<path class="st1" d="M267.9,112h19.8l19.9,35.2l7,16.6l0.6-0.1c-0.1,0-2.2-14.2-2.3-14.2V112h20.8v82.6h-21.1l-18.7-32.5
				l-7.2-16.6l-0.6,0.1l2.7,16v33h-20.9V112z"/>
			<path class="st1" d="M391.5,131.7v62.9h-21.1v-62.9h-21.9v-19.8h65v19.8H391.5z"/>
		</g>
	</g>
	<g>
		
			<linearGradient id="SVGID_2_" gradientUnits="userSpaceOnUse" x1="455.8325" y1="172.915" x2="1206.605" y2="362.7821" gradientTransform="matrix(0.9929 -0.1187 0.1187 0.9929 -28.5893 58.1406)">
			<stop  offset="0" style="stop-color:#50AE7B"/>
			<stop  offset="1" style="stop-color:#3D717B"/>
		</linearGradient>
		<path class="st2" d="M1183.6,0L453.6,87.4l2.9,22.6c7.4,0.1,13.8,5.7,14.7,13.2c0.9,7.6-4,14.5-11.2,16.3l0.7,5.8
			c7.4,0,13.9,5.6,14.8,13.3c0.9,7.7-4,14.6-11.2,16.4l0.8,7c7.4,0,13.9,5.6,14.8,13.3c0.9,7.7-4,14.6-11.2,16.4l0.8,7
			c7.4,0,13.9,5.6,14.8,13.3c0.9,7.7-4,14.6-11.2,16.4l0.7,6.1c7.4,0,13.9,5.6,14.8,13.3c0.9,7.7-4,14.6-11.2,16.4l0.8,7
			c7.4,0,13.9,5.6,14.8,13.3c0.9,7.7-4,14.6-11.2,16.4l0.8,7c7.4,0,13.9,5.6,14.8,13.3c0.9,7.7-4,14.6-11.2,16.4l0.8,7
			c7.4,0,13.9,5.6,14.8,13.3c0.9,7.7-4,14.6-11.2,16.4l0.9,7.3c7.4,0.1,13.8,5.7,14.7,13.2c0.9,7.6-4,14.5-11.1,16.3l2.8,23.2
			l729.9-87.4L1183.6,0z"/>
		<g>
			<path class="st1" d="M509.9,162.3l50.5-6l61.5,83.6l22.9,40l1.4-0.5c-0.3,0-10-35.6-10.3-35.5l-11.4-95.3l52.9-6.3l25.2,210.2
				l-53.7,6.4l-57.4-77.2l-23.5-40l-1.4,0.5l11.7,39.9l10.1,84l-53.2,6.4L509.9,162.3z"/>
			<path class="st1" d="M713.9,208.1c-5.8-48.4,34.7-77.3,78.4-82.6c43.7-5.2,90.2,13.6,95.9,61.7l8.6,71.9
				c5.8,48.1-34.7,77.3-78.4,82.6c-43.7,5.2-90.2-13.6-95.9-61.7L713.9,208.1z M775.7,273.6c1.8,15.4,20,20.8,36.9,18.8
				c16.9-2,32.9-11.8,31.1-26.9l-8.6-71.9c-2-16.3-20.4-21.7-37.6-19.6c-16.6,2-32.3,12.3-30.4,27.7L775.7,273.6z"/>
			<path class="st1" d="M1103.8,91.2l54.9-6.6l-35.4,217.5l-49.3,5.9l-25.7-56l-13.2-47.2l-0.9,0.1l-2.3,48.8l-9.6,60.5l-49.3,5.9
				l-86-202.9l55.2-6.6l37,97.7l10.7,43.9l1.5-0.2l-0.2-44.8l14.6-76.5l40.4-4.8l30.5,71.3l12.1,43.1l0.9-0.1l0.7-44.7L1103.8,91.2z
				"/>
		</g>
	</g>
</g>
</svg>
