<?xml version="1.0" encoding="utf-8"?>
<!-- Generator: Adobe Illustrator 24.3.0, SVG Export Plug-In . SVG Version: 6.00 Build 0)  -->
<svg version="1.1" id="Layer_1" xmlns="http://www.w3.org/2000/svg" xmlns:xlink="http://www.w3.org/1999/xlink" x="0px" y="0px"
	 viewBox="0 0 136 136" style="enable-background:new 0 0 136 136;" xml:space="preserve">
<style type="text/css">
	.st0{fill:#EE4A62;}
</style>
<g>
	<g>
		<path class="st0" d="M68,11.3c-24,0-43.4,19.5-43.4,43.4c0,7.7,2,15.2,5.9,21.8c0.9,1.5,1.9,3,3,4.5l32.7,43.8h3.8L102.6,81
			c1.1-1.4,2.1-2.9,3-4.5c3.8-6.6,5.9-14.1,5.9-21.8C111.4,30.7,92,11.3,68,11.3z M68,69.1c-7.9,0-14.4-6.5-14.4-14.4
			S60.1,40.3,68,40.3s14.4,6.5,14.4,14.4S75.9,69.1,68,69.1z"/>
	</g>
</g>
</svg>
