<?xml version="1.0" encoding="UTF-8"?>
<svg id="Capa_1" data-name="Capa 1" xmlns="http://www.w3.org/2000/svg" viewBox="0 0 475.08 475.08">
  <defs>
    <style>
      .cls-1 {
        fill: #fff;
      }
    </style>
  </defs>
  <path class="cls-1" d="M295.53,252.04h50.74c6.04,0,11.18,2.11,15.41,6.34,4.23,4.23,6.34,9.36,6.34,15.41v7.25c0,16.01-5.66,29.67-16.99,41-11.33,11.32-24.99,16.99-41,16.99h-14.5c-3.93,0-7.32,1.44-10.19,4.3-2.87,2.87-4.3,6.27-4.3,10.19v29c0,3.93,1.44,7.33,4.3,10.19,2.87,2.87,6.27,4.3,10.19,4.3h14.5c15.71,0,30.69-3.06,44.96-9.17,14.27-6.12,26.61-14.39,37.03-24.81,10.42-10.42,18.69-22.76,24.8-37.03,6.12-14.27,9.17-29.26,9.17-44.96V121.57c0-12.09-4.23-22.35-12.68-30.81-8.46-8.46-18.73-12.68-30.81-12.68h-86.99c-12.08,0-22.35,4.23-30.81,12.68-8.46,8.46-12.68,18.72-12.68,30.81v86.98c0,12.08,4.23,22.35,12.69,30.81,8.45,8.45,18.73,12.68,30.81,12.68Z"/>
  <path class="cls-1" d="M61.76,239.35c8.45,8.45,18.72,12.68,30.81,12.68h50.74c6.04,0,11.18,2.11,15.4,6.34,4.23,4.23,6.34,9.36,6.34,15.41v7.25c0,16.01-5.66,29.67-16.99,41-11.32,11.32-24.99,16.99-41,16.99h-14.49c-3.93,0-7.33,1.44-10.19,4.3-2.87,2.87-4.31,6.27-4.31,10.19v29c0,3.93,1.44,7.33,4.31,10.19,2.87,2.87,6.27,4.3,10.19,4.3h14.49c15.72,0,30.7-3.06,44.97-9.17,14.27-6.12,26.61-14.39,37.03-24.81,10.42-10.42,18.69-22.76,24.8-37.03,6.11-14.27,9.18-29.26,9.18-44.96V121.57c0-12.09-4.23-22.35-12.68-30.81-8.46-8.46-18.72-12.68-30.81-12.68H92.57c-12.08,0-22.35,4.23-30.8,12.68-8.46,8.46-12.68,18.72-12.68,30.81v86.98c0,12.09,4.22,22.35,12.68,30.81Z"/>
</svg>