<?xml version="1.0" encoding="utf-8"?>
<!-- Generator: Adobe Illustrator 24.3.0, SVG Export Plug-In . SVG Version: 6.00 Build 0)  -->
<svg version="1.1" id="Capa_1" xmlns="http://www.w3.org/2000/svg" xmlns:xlink="http://www.w3.org/1999/xlink" x="0px" y="0px"
	 viewBox="0 0 43.2 22.5" style="enable-background:new 0 0 43.2 22.5;" xml:space="preserve">
<style type="text/css">
	.st0{fill:#CF5260;}
</style>
<g>
	<g>
		<path class="st0" d="M4.3,12.7h31.1l-5.2,5.1c-0.6,0.6-0.6,1.5,0,2.1c0.6,0.6,1.5,0.6,2.1,0l7.7-7.6c0,0,0,0,0,0
			c0.6-0.6,0.6-1.5,0-2.1c0,0,0,0,0,0l-7.7-7.6c-0.6-0.6-1.5-0.6-2.1,0c-0.6,0.6-0.6,1.5,0,2.1l5.2,5.1H4.3c-0.8,0-1.5,0.7-1.5,1.5
			C2.8,12.1,3.5,12.7,4.3,12.7z"/>
	</g>
</g>
</svg>
