<svg xmlns="http://www.w3.org/2000/svg" viewBox="0 0 513 513" width="513" height="513">
	<style>
		tspan { white-space:pre }
		.shp0 { fill: #cf5260 } 
	</style>
	<g id="Layer">
		<g id="Layer">
			<path id="Layer" class="shp0" d="M196.37 242.54L117.69 253.01L117.69 258.15L117.92 258.15C182.91 258.15 132.09 258.07 200.14 258.07L196.37 242.54Z" />
		</g>
	</g>
	<g id="Layer">
		<g id="Layer">
			<path id="Layer" class="shp0" d="M162.19 69.93C142.85 69.93 127.22 54.3 127.22 34.97C127.22 15.63 142.85 0 162.19 0C181.52 0 197.15 15.63 197.15 34.97C197.15 54.3 181.52 69.93 162.19 69.93Z" />
		</g>
	</g>
	<g id="Layer">
		<g id="Layer">
			<path id="Layer" class="shp0" d="M244.14 196.35C241.95 187.32 233.86 181.12 224.79 181.12C222.93 181.12 225.94 180.79 180.13 186.89C177.8 205.68 160.3 219.39 141.2 216.63L90.04 209.28C88.86 212.32 88.4 215.68 88.86 219.14C90.31 230.06 100.34 237.73 111.24 236.27L209.63 223.17L218.09 258.07L221.5 258.07C227.25 248.8 234.92 240.83 244.1 234.65C246.74 232.88 249.47 231.29 252.27 229.86L244.14 196.35Z" />
		</g>
	</g>
	<g id="Layer">
		<g id="Layer">
			<path id="Layer" class="shp0" d="M375.56 240C375.24 240 287.7 240 287.38 240C265.5 240 245.82 251.79 235.56 270.34L373.82 283.45L208.77 283.45C199.6 283.45 192.16 290.88 192.16 300.05C192.16 309.22 199.6 316.66 208.77 316.66C391.87 316.66 385.66 316.54 385.66 316.54C397.03 316.68 406.74 307.4 406.8 295.63L406.92 271.91C407.01 254.52 392.97 240.09 375.56 240Z" />
		</g>
	</g>
	<g id="Layer">
		<g id="Layer">
			<path id="Layer" class="shp0" d="M184.1 276.4C181.27 276.4 42.89 276.4 35.56 276.4C24.55 276.4 15.63 285.32 15.63 296.33C15.63 307.34 24.55 316.26 35.56 316.26C40.43 316.26 172.86 316.26 178.11 316.26C175.8 312.29 174.3 307.76 173.87 302.88C172.96 292.55 177.03 282.94 184.1 276.4Z" />
		</g>
	</g>
	<g id="Layer">
		<g id="Layer">
			<path id="Layer" class="shp0" d="M509.28 351.49C509.28 341.96 501.55 334.23 492.02 334.23C480.06 334.23 33.27 334.23 19.97 334.23C10.45 334.23 2.72 341.96 2.72 351.49C2.72 359.58 8.3 366.35 15.81 368.22C15.81 368.3 15.8 368.38 15.8 368.47L15.8 480.02C15.8 497.66 30.15 512 47.78 512C57.31 512 65.04 504.28 65.04 494.75C65.04 486.07 58.65 478.9 50.32 477.68L50.32 371L461.68 371L461.68 477.68C453.35 478.9 446.96 486.08 446.96 494.75C446.96 504.28 454.69 512 464.22 512C481.85 512 496.19 497.66 496.19 480.02L496.19 368.47C496.19 368.38 496.19 368.3 496.19 368.22C503.7 366.35 509.28 359.58 509.28 351.49Z" />
		</g>
	</g>
	<g id="Layer">
		<g id="Layer">
			<path id="Layer" class="shp0" d="M277.6 142.41L219.31 85.84C216.16 82.78 211.95 81.08 207.56 81.08C184.18 81.08 138.98 81.08 116.81 81.08C111.19 81.08 105.93 83.88 102.8 88.55L70.19 137.17C70.19 137.18 53.55 161.99 53.55 161.99C49.91 167.42 49.73 174.54 53.15 180.16C55.69 184.33 60.06 187.35 65.16 188.08L143.68 199.36C152.92 200.69 161.46 194.24 162.78 185.06C164.1 175.84 157.7 167.29 148.48 165.96L96.52 158.5C107.24 142.5 106.87 143.05 117.69 126.92L117.69 143.91L150.96 148.69C163.35 150.47 173.29 158.65 177.82 169.59L207.05 165.05L207.05 120.96L245.29 158.07L240.76 167.24C250.72 171.94 258.36 180.94 261.1 192.24L262.73 198.99L280.98 161.97C284.22 155.41 282.85 147.5 277.6 142.41Z" />
		</g>
	</g>
	<g id="Layer">
		<g id="Layer">
			<path id="Layer" class="shp0" d="M496.82 289.91C496.35 286.94 493.78 284.66 490.68 284.66L479.57 284.66C488.05 278.3 493.56 268.19 493.63 256.77C493.75 237.37 478.13 221.55 458.73 221.43C458.65 221.43 458.58 221.43 458.51 221.43C439.21 221.43 423.51 237.01 423.39 256.34C423.32 267.91 428.86 278.21 437.45 284.66L429.51 284.66C426.07 284.66 423.28 287.45 423.28 290.9C423.28 294.78 423.28 305.17 423.28 308.93C423.28 312.37 426.08 315.17 429.52 315.17L490.68 315.17C494.12 315.17 496.91 312.38 496.91 308.93C496.91 289.82 496.96 290.79 496.82 289.91Z" />
		</g>
	</g>
	<g id="Layer">
	</g>
	<g id="Layer">
	</g>
	<g id="Layer">
	</g>
	<g id="Layer">
	</g>
	<g id="Layer">
	</g>
	<g id="Layer">
	</g>
	<g id="Layer">
	</g>
	<g id="Layer">
	</g>
	<g id="Layer">
	</g>
	<g id="Layer">
	</g>
	<g id="Layer">
	</g>
	<g id="Layer">
	</g>
	<g id="Layer">
	</g>
	<g id="Layer">
	</g>
	<g id="Layer">
	</g>
</svg>