<svg xmlns="http://www.w3.org/2000/svg" viewBox="0 0 512 512" width="512" height="512">
	<style>
		tspan { white-space:pre }
		.shp0 { fill: #ffffff } 
	</style>
	<g id="Layer">
		<path id="Layer" class="shp0" d="M40 232L56 232L56 248L40 248L40 232Z" />
		<path id="Layer" class="shp0" d="M72 232L144 232L144 248L72 248L72 232Z" />
		<path id="Layer" fill-rule="evenodd" class="shp0" d="M482.91 181.66C496.12 190.47 504 205.19 504 221.06L504 316C504 331.44 491.44 344 476 344C471.69 344 467.65 342.94 464 341.19L464 440L441.06 440C450.29 447.44 456 458.7 456 471.06L456 504L8 504L8 467.78C8 452.53 16.47 438.82 30.11 432L40 427.06L40 376C40 349.53 61.53 328 88 328C114.47 328 136 349.53 136 376L136 427.06L145.89 432C152.29 435.2 157.49 439.95 161.27 445.62C165.93 440 172.06 435.55 179.35 433.12L196.72 427.33L195.58 425.04C188.01 409.9 184 392.94 184 376C184 349.53 205.53 328 232 328C258.47 328 280 349.53 280 376C280 392.94 275.99 409.9 268.42 425.04L267.28 427.33L284.65 433.12C292.59 435.77 299.23 440.75 304 447.13C308.77 440.75 315.41 435.77 323.35 433.12L340.72 427.33L339.58 425.04C332.01 409.9 328 392.94 328 376C328 358.28 337.68 342.81 352 334.5L352 280L8 280L8 8L400 8L400 8.07C422.29 8.46 443.25 16.93 459.44 32.18C475.47 33.9 488 47.51 488 64L488 65.85C488 73.94 486.1 81.8 482.57 88.98C485.91 93.11 488 98.29 488 104C488 117.23 477.23 128 464 128L455.27 128C453.42 138.9 447.9 148.53 440 155.62L440 169.44L465.94 174.63C472.03 175.85 477.74 178.22 482.91 181.66ZM437.36 185.22L436.66 187.34C432.53 199.7 421.02 208 408 208C394.98 208 383.47 199.7 379.35 187.34L378.64 185.22L347.98 191.36C346.7 191.62 345.44 191.95 344.21 192.36L318.14 201.05L277.97 165.34L257.1 186.22L283.34 209.85C296.82 221.98 316.04 226.74 333.59 222.35L349.69 218.33C348.8 216.64 347.73 215.04 346.34 213.66L357.66 202.34C364.33 209.01 368 217.87 368 227.31L368 296L448 296L448 227.31C448 217.87 451.67 209.01 458.34 202.34L469.66 213.66C466.01 217.3 464 222.15 464 227.31L464 280L488 280L488 221.06C488 210.55 482.78 200.81 474.04 194.98C470.62 192.7 466.83 191.13 462.8 190.32L437.36 185.22ZM352 264L352 234.25L337.47 237.87C331.84 239.29 326.04 240 320.22 240C302.62 240 285.73 233.51 272.64 221.74L217.98 172.54C211.63 166.84 208 158.67 208 150.14C208 133.52 221.52 120 238.14 120L239.58 120C246.98 120 254.1 122.7 259.61 127.62L321.86 182.94L339.14 177.18C341 176.56 342.91 176.06 344.83 175.67L376 169.44L376 155.62C368.1 148.53 362.58 138.9 360.73 128L352 128C338.77 128 328 117.23 328 104C328 98.29 330.09 93.1 333.43 88.98C329.9 81.8 328 73.94 328 65.85L328 64.21C328 48.43 335.51 33.53 347.86 24L24 24L24 264L352 264ZM424 165.14C418.98 166.92 413.62 167.94 408 167.94C402.38 167.94 397.02 166.93 392 165.14L392 174.7L394.53 182.3C396.46 188.1 401.87 192 408 192C414.13 192 419.54 188.1 421.48 182.29L424 174.7L424 165.14ZM440 95.6C428.27 94.37 417.25 89.9 408 82.62C398.75 89.9 387.73 94.38 376 95.6L376 119.94C376 137.59 390.35 151.94 408 151.94C425.65 151.94 440 137.59 440 119.94L440 95.6ZM472 104C472 99.59 468.42 96 464 96L456 96L456 112L464 112C468.42 112 472 108.41 472 104ZM450.38 45.7C436.28 31.59 417.94 24 398.44 24C385.21 24 372.22 27.6 360.87 34.41C350.47 40.66 344 52.07 344 64.21L344 65.85C344 70.94 345.1 75.9 347.13 80.5C348.7 80.18 350.33 80 352 80L360 80L360 79.94L369.38 79.94C381.83 79.94 393.54 75.1 402.34 66.29L408 60.62L413.66 66.29C422.46 75.1 434.17 79.94 446.62 79.94L456 79.94L456 80L464 80C465.67 80 467.3 80.18 468.87 80.5C470.9 75.9 472 70.94 472 65.85L472 64C472 55.18 464.82 48 456 48L452.72 48L450.38 45.7ZM360 112L360 96L352 96C347.58 96 344 99.59 344 104C344 108.41 347.58 112 352 112L360 112ZM245.19 175.5L266 154.7L248.98 139.58C246.39 137.26 243.06 136 239.59 136L238.14 136C230.34 136 224 142.34 224 150.14C224 154.14 225.7 157.98 228.68 160.66L245.19 175.5ZM376 344C358.35 344 344 358.35 344 376C344 390.47 347.42 404.95 353.89 417.89L356.94 424L395.06 424L398.11 417.89C404.58 404.95 408 390.47 408 376C408 358.35 393.65 344 376 344ZM232 344C214.35 344 200 358.35 200 376C200 390.47 203.42 404.95 209.89 417.89L212.94 424L251.06 424L254.11 417.89C260.58 404.95 264 390.47 264 376C264 358.35 249.65 344 232 344ZM56 456L120 456L120 376C120 358.35 105.65 344 88 344C70.35 344 56 358.35 56 376L56 456ZM152 467.78C152 458.63 146.91 450.4 138.74 446.31L136 444.94L136 472L40 472L40 444.94L37.26 446.31C29.09 450.4 24 458.62 24 467.78L24 488L152 488L152 467.78ZM296 471.06C296 460.72 289.41 451.57 279.59 448.3L254.7 440L209.3 440L184.42 448.3C174.59 451.57 168 460.72 168 471.06L168 488L296 488L296 471.06ZM440 471.06C440 460.72 433.41 451.57 423.59 448.3L398.7 440L353.3 440L328.42 448.3C318.59 451.57 312 460.72 312 471.06L312 488L440 488L440 471.06ZM448 312L368 312L368 328.72C370.61 328.28 373.27 328 376 328C402.47 328 424 349.53 424 376C424 392.56 420.11 409.12 412.87 424L448 424L448 312ZM488 316L488 296L464 296L464 316C464 322.62 469.38 328 476 328C482.62 328 488 322.62 488 316Z" />
		<path id="Layer" class="shp0" d="M168 88L152 88L152 120L136 120L136 56L120 56L120 120L104 120L104 72L88 72L88 120L72 120L72 88L56 88L56 120L40 120L40 136L184 136L184 120L168 120L168 88Z" />
		<path id="Layer" class="shp0" d="M40 152L56 152L56 168L40 168L40 152Z" />
		<path id="Layer" class="shp0" d="M72 152L152 152L152 168L72 168L72 152Z" />
		<path id="Layer" class="shp0" d="M168 152L184 152L184 168L168 168L168 152Z" />
	</g>
</svg>