<svg id="Capa_1" data-name="Capa 1" xmlns="http://www.w3.org/2000/svg" viewBox="0 0 480 352" fill="#cf5260"><title>gym (3)</title><path d="M472,144H448V132a28,28,0,0,0-28-28,27.6,27.6,0,0,0-12,2.81V96a32,32,0,0,0-64,0v48H312v-8a23.9,23.9,0,0,0-40-17.76,23.63,23.63,0,0,0-32,0,23.63,23.63,0,0,0-32,0A23.9,23.9,0,0,0,168,136v8H136V96a32,32,0,0,0-64,0v10.81A27.6,27.6,0,0,0,60,104a28,28,0,0,0-28,28v12H8a8,8,0,0,0-8,8v48a8,8,0,0,0,8,8H32v12a28,28,0,0,0,28,28,27.6,27.6,0,0,0,12-2.81V256a32,32,0,0,0,64,0V208h16v26.74A39.69,39.69,0,0,0,163.72,263L184,283.31V416h16V280a8,8,0,0,0-2.34-5.66L175,251.71a24.14,24.14,0,0,1-7-17V184h46.86a9.59,9.59,0,0,1,7.74,3.75l.18.25a7.49,7.49,0,0,1,.8,1.75,7.77,7.77,0,0,1,.3,1.51,6.44,6.44,0,0,1,0,1.52,7.6,7.6,0,0,1-.1.8,8.64,8.64,0,0,1-.92,2.4,7.93,7.93,0,0,1-6.86,4H192a8,8,0,0,0-8,8v16a8,8,0,0,0,5.47,7.59l17.6,5.88C221.36,242.22,232,263.84,232,280h16c0-22-13.7-50.34-35.83-57.71L200,218.23V216h16a23.88,23.88,0,0,0,17.6-8H304v29.34a24.12,24.12,0,0,1-4.8,14.4L281.6,275.2A8,8,0,0,0,280,280V416h16V282.66l16-21.32a40.26,40.26,0,0,0,8-24V208h24v48a32,32,0,0,0,64,0V245.19A27.6,27.6,0,0,0,420,248a28,28,0,0,0,28-28V208h24a8,8,0,0,0,8-8V152A8,8,0,0,0,472,144ZM32,192H16V160H32Zm40,28a12,12,0,0,1-24,0V132a12,12,0,0,1,24,0Zm48,36a16,16,0,0,1-32,0V96a16,16,0,0,1,32,0Zm40-88a8,8,0,0,0-8,8v16H136V160h32a23.45,23.45,0,0,0,.46,4.5c.08.48.24.91.35,1.36.18.72.32,1.45.56,2.14Zm40-8a8,8,0,0,1-16,0V136a8,8,0,0,1,16,0Zm32,0a8,8,0,0,1-16,0V136a8,8,0,0,1,16,0Zm48-24a8,8,0,0,1,16,0v24a8,8,0,0,1-16,0Zm-32,0a8,8,0,0,1,16,0v24a8,8,0,0,1-16,0Zm96,56H240v-.22a23.55,23.55,0,0,0-.5-4.74c0-.22-.15-.42-.2-.64-.14-.58-.35-1.13-.53-1.7a23.49,23.49,0,0,0-1.23-3c-.23-.48-.34-1-.6-1.49a1.64,1.64,0,0,0,.26-.2,13.08,13.08,0,0,0,1-.8c.6-.44,1.23-.86,1.79-1.36.47.41,1,.74,1.5,1.12s1,.8,1.52,1.13a22.82,22.82,0,0,0,2.33,1.27c.55.27,1.06.58,1.6.8a22.64,22.64,0,0,0,2.87.89c.5.14,1,.33,1.49.43a23.27,23.27,0,0,0,9.33,0c.52-.1,1-.29,1.5-.43a22,22,0,0,0,2.86-.89c.57-.23,1.08-.54,1.6-.8a23.12,23.12,0,0,0,2.35-1.27c.52-.35,1-.75,1.51-1.13s1-.71,1.49-1.12c.47.41,1,.74,1.5,1.12s1,.8,1.52,1.13a24.08,24.08,0,0,0,2.34,1.27c.54.27,1.05.58,1.6.8a22,22,0,0,0,2.86.89c.5.14,1,.33,1.5.43a23.93,23.93,0,0,0,28.22-18.68A24.39,24.39,0,0,0,312,160h32v32Zm48,64a16,16,0,0,1-32,0V96a16,16,0,0,1,32,0Zm40-36a12,12,0,0,1-24,0V132a12,12,0,0,1,24,0Zm32-28H448V160h16Z" transform="translate(0 -64)"/></svg>