<?xml version="1.0" encoding="utf-8"?>
<!-- Generator: Adobe Illustrator 24.3.0, SVG Export Plug-In . SVG Version: 6.00 Build 0)  -->
<svg version="1.1" id="Layer_1" xmlns="http://www.w3.org/2000/svg" xmlns:xlink="http://www.w3.org/1999/xlink" x="0px" y="0px"
	 viewBox="0 0 120 120" style="enable-background:new 0 0 120 120;" xml:space="preserve">
<style type="text/css">
	.st0{fill:url(#SVGID_1_);}
	.st1{fill:#FFFFFF;}
</style>
<g>
	<linearGradient id="SVGID_1_" gradientUnits="userSpaceOnUse" x1="19.6714" y1="19.6712" x2="100.3286" y2="100.3283">
		<stop  offset="0" style="stop-color:#1677F1"/>
		<stop  offset="0.1756" style="stop-color:#186EE9"/>
		<stop  offset="0.4613" style="stop-color:#1E56D3"/>
		<stop  offset="0.8194" style="stop-color:#262EB0"/>
		<stop  offset="1" style="stop-color:#2B189C"/>
	</linearGradient>
	<path class="st0" d="M117.03,60C117.03,28.5,91.5,2.97,60,2.97S2.97,28.5,2.97,60c0,28.47,20.86,52.06,48.12,56.34V76.49H36.61V60
		h14.48V47.43c0-14.29,8.51-22.19,21.54-22.19c6.24,0,12.77,1.11,12.77,1.11v14.04h-7.19c-7.08,0-9.29,4.4-9.29,8.91V60h15.82
		L82.2,76.49H68.91v39.85C96.18,112.06,117.03,88.47,117.03,60z"/>
	<path class="st1" d="M82.2,76.49L84.73,60H68.91V49.3c0-4.51,2.21-8.91,9.29-8.91h7.19V26.36c0,0-6.53-1.11-12.77-1.11
		c-13.03,0-21.54,7.9-21.54,22.19V60H36.61v16.49h14.48v39.85c2.9,0.46,5.88,0.69,8.91,0.69s6.01-0.24,8.91-0.69V76.49H82.2z"/>
</g>
</svg>
