<svg xmlns="http://www.w3.org/2000/svg" viewBox="0 0 512 512" width="512" height="512">
	<style>
		tspan { white-space:pre }
		.shp0 { fill: #ffffff } 
	</style>
	<path id="Layer" fill-rule="evenodd" class="shp0" d="M482 206C498.54 206 512 219.46 512 236L512 276C512 292.54 498.54 306 482 306L472 306L472 351C472 373.06 454.05 391 432 391C424.29 391 417.08 388.81 410.97 385.01C406.88 402.75 390.95 416 372 416C349.94 416 331.99 398.06 331.99 376L331.99 306L180.01 306L180.01 376C180.01 398.06 162.06 416 140.01 416L140 416C121.05 416 105.12 402.75 101.03 385.01C94.92 388.81 87.71 391 80 391C57.95 391 40 373.06 40 351L40 306L30 306C13.46 306 0 292.54 0 276L0 236C0 219.46 13.46 206 30 206L40 206L40 161C40 138.94 57.95 121 80 121C87.71 121 94.92 123.19 101.03 126.99C105.12 109.25 121.05 96 140 96C162.06 96 180.01 113.94 180.01 136L180.01 206L331.99 206L331.99 136C331.99 113.94 349.94 96 371.99 96L372 96C390.95 96 406.88 109.25 410.97 126.99C417.08 123.19 424.29 121 432 121C454.05 121 472 138.94 472 161L472 206L482 206ZM40 226L30 226C24.49 226 20 230.49 20 236L20 276C20 281.51 24.49 286 30 286L40 286L40 226ZM100 161C100 149.97 91.03 141 80 141C68.97 141 60 149.97 60 161L60 351C60 362.03 68.97 371 80 371C85.52 371 90.52 368.76 94.14 365.14C97.76 361.52 100 356.52 100 351L100 161ZM160.01 136C160.01 124.97 151.03 116 140.01 116C128.98 116 120 124.97 120 136L120 376C120 387.03 128.98 396 140 396L140.01 396C151.03 396 160.01 387.03 160.01 376L160.01 136ZM331.93 226L179.96 226L179.96 286L331.93 286L331.93 266L262 266C256.48 266 252 261.52 252 256C252 250.48 256.48 246 262 246L331.93 246L331.93 226ZM392 136C392 124.97 383.02 116 372 116L371.99 116C360.97 116 351.99 124.97 351.99 136L351.99 255.49C351.98 255.27 351.96 255.05 351.93 254.84L351.93 257.16C351.96 256.95 351.98 256.73 351.99 256.51L351.99 376C351.99 387.03 360.97 396 371.99 396C383.02 396 392 387.03 392 376L392 136ZM452 161C452 149.97 443.03 141 432 141C420.97 141 412 149.97 412 161L412 351C412 362.03 420.97 371 432 371C443.03 371 452 362.03 452 351L452 161ZM492 236C492 230.49 487.51 226 482 226L472 226L472 286L482 286C487.51 286 492 281.51 492 276L492 236Z" />
	<path id="Layer" class="shp0" d="M222.02 266C216.5 266 212.02 261.52 212.02 256C212.02 250.48 216.49 246 222.01 246L222.02 246C227.54 246 232.02 250.48 232.02 256C232.02 261.52 227.54 266 222.02 266Z" />
</svg>