<?xml version="1.0" encoding="utf-8"?>
<!-- Generator: Adobe Illustrator 24.3.0, SVG Export Plug-In . SVG Version: 6.00 Build 0)  -->
<svg version="1.1" id="Layer_1" xmlns="http://www.w3.org/2000/svg" xmlns:xlink="http://www.w3.org/1999/xlink" x="0px" y="0px"
	 viewBox="0 0 120 120" style="enable-background:new 0 0 120 120;" xml:space="preserve">
<style type="text/css">
	.st0{fill:url(#SVGID_1_);}
	.st1{fill:#FFFFFF;}
</style>
<linearGradient id="SVGID_1_" gradientUnits="userSpaceOnUse" x1="99.0105" y1="22.2023" x2="20.9895" y2="100.2233">
	<stop  offset="0" style="stop-color:#007BB8"/>
	<stop  offset="1" style="stop-color:#0044E9"/>
</linearGradient>
<circle class="st0" cx="60" cy="61.21" r="55.17"/>
<path class="st1" d="M36.86,50.94h10.69v34.32H36.86V50.94z M42.21,33.88c3.42,0,6.19,2.77,6.19,6.18c0,3.41-2.77,6.19-6.19,6.19
	c-3.43,0-6.19-2.78-6.19-6.19C36.01,36.65,38.78,33.88,42.21,33.88"/>
<path class="st1" d="M54.24,50.94h10.23v4.69h0.14c1.43-2.7,4.91-5.54,10.1-5.54c10.8,0,12.79,7.1,12.79,16.35v18.83H76.85V68.57
	c0-3.98-0.08-9.1-5.55-9.1c-5.55,0-6.4,4.34-6.4,8.81v16.98H54.24V50.94z"/>
</svg>
