<svg xmlns="http://www.w3.org/2000/svg" viewBox="0 0 512 512" width="512" height="512">
	<style>
		tspan { white-space:pre }
		.shp0 { fill: #cf5260 } 
	</style>
	<g id="Layer">
		<path id="Layer" class="shp0" d="M232 160L248 160C248 153.63 250.42 150.82 254.07 146.55C258.5 141.4 264 134.98 264 122.69C264 110.39 258.5 103.97 254.07 98.82C250.42 94.54 248 91.72 248 85.34C248 78.97 250.42 76.15 254.07 71.87C258.5 66.72 264 60.3 264 48L248 48C248 54.38 245.58 57.19 241.93 61.47C237.5 66.62 232 73.05 232 85.34C232 97.64 237.5 104.06 241.93 109.22C245.58 113.5 248 116.31 248 122.69C248 129.06 245.58 131.87 241.93 136.14C237.5 141.29 232 147.71 232 160Z" />
		<path id="Layer" class="shp0" d="M280 176L296 176C296 169.63 298.42 166.82 302.07 162.55C306.5 157.4 312 150.98 312 138.69C312 126.39 306.5 119.97 302.07 114.82C298.42 110.54 296 107.72 296 101.34C296 94.97 298.42 92.15 302.07 87.87C306.5 82.72 312 76.3 312 64L296 64C296 70.38 293.58 73.19 289.93 77.47C285.5 82.62 280 89.05 280 101.34C280 113.64 285.5 120.06 289.93 125.22C293.58 129.5 296 132.31 296 138.69C296 145.06 293.58 147.87 289.93 152.14C285.5 157.29 280 163.71 280 176Z" />
		<path id="Layer" class="shp0" d="M344 176L360 176C360 169.63 362.42 166.82 366.07 162.55C370.5 157.4 376 150.98 376 138.69C376 126.39 370.5 119.97 366.07 114.82C362.42 110.54 360 107.72 360 101.34C360 94.97 362.42 92.15 366.07 87.87C370.5 82.72 376 76.3 376 64L360 64C360 70.38 357.58 73.19 353.93 77.47C349.5 82.62 344 89.05 344 101.34C344 113.64 349.5 120.06 353.93 125.22C357.58 129.5 360 132.31 360 138.69C360 145.06 357.58 147.87 353.93 152.14C349.5 157.29 344 163.71 344 176Z" />
		<path id="Layer" class="shp0" d="M392 192L408 192C408 185.63 410.42 182.82 414.07 178.55C418.5 173.4 424 166.98 424 154.69C424 142.39 418.5 135.97 414.07 130.82C410.42 126.54 408 123.72 408 117.34C408 110.97 410.42 108.15 414.07 103.87C418.5 98.72 424 92.3 424 80L408 80C408 86.38 405.58 89.19 401.93 93.47C397.5 98.62 392 105.05 392 117.34C392 129.64 397.5 136.06 401.93 141.22C405.58 145.5 408 148.31 408 154.69C408 161.06 405.58 163.87 401.93 168.14C397.5 173.29 392 179.71 392 192Z" />
		<path id="Layer" fill-rule="evenodd" class="shp0" d="M504 240L504 472L8 472L8 336L24 336L24 328C24 305.94 41.94 288 64 288L106.14 288C104.77 282.78 104 277.45 104 272C104 236.71 132.71 208 168 208C195.82 208 219.69 225.53 228.42 250.99C233.21 248.53 238.18 246.46 243.3 244.82C236.24 239.26 232 232.02 232 224C232 206.06 253.09 192 280 192C306.91 192 328 206.06 328 224C328 233.51 322.03 241.91 312.45 247.72L315.2 248.64C323.66 251.46 332.35 253.38 341.14 254.58C337.87 250.22 336 245.29 336 240C336 222.06 357.09 208 384 208C410.91 208 432 222.06 432 240C432 242.3 431.65 244.52 430.99 246.66C435.56 244.94 440.06 243.02 444.42 240.84L446.11 240L504 240ZM352 240C352 247.37 365.06 255.53 382.71 255.94C386.56 256.03 390.48 255.58 391.24 255.52C405.79 253.66 416 246.52 416 240C416 232.45 402.32 224 384 224C365.68 224 352 232.45 352 240ZM248 224C248 231.55 261.68 240 280 240C298.32 240 312 231.55 312 224C312 216.45 298.32 208 280 208C261.68 208 248 216.45 248 224ZM122.82 288L172.17 288C177.89 288 183.43 285.94 187.79 282.22L209.46 263.64C210.99 262.33 212.61 261.14 214.21 259.93C208.78 238.9 190.15 224 168 224C141.53 224 120 245.53 120 272C120 277.48 120.96 282.84 122.82 288ZM40 336L188.62 336C199.71 336 210.46 332.75 219.7 326.59L251.57 305.34L260.44 318.66L234.42 336L440 336L440 260.33C423.52 266.02 398.43 272.49 367.5 272.19C344.14 271.97 324.55 267.96 310.15 263.82L299.36 260.22C272.36 251.25 241.49 257.26 219.88 275.79L198.2 294.37C190.95 300.58 181.7 304 172.17 304L64 304C50.77 304 40 314.77 40 328L40 336ZM24 352L24 368.78C37.37 371.25 45.3 379.57 51.82 386.53C58.88 394.06 64.45 400 75.98 400C87.5 400 93.07 394.06 100.13 386.53C107.86 378.27 117.49 368 135.95 368C154.42 368 164.04 378.27 171.78 386.53C178.83 394.06 184.4 400 195.93 400C207.46 400 213.03 394.06 220.09 386.53C227.82 378.27 237.46 368 255.92 368C274.39 368 284.02 378.27 291.77 386.53C298.82 394.06 304.4 400 315.94 400C327.47 400 333.04 394.06 340.1 386.53C347.83 378.27 357.46 368 375.93 368C394.4 368 404.04 378.27 411.78 386.52C418.84 394.06 424.42 400 435.97 400C447.5 400 453.09 394.06 460.14 386.54C466.67 379.57 474.62 371.25 488 368.78L488 352L24 352ZM488 456L488 385.18C481.43 387.26 477.02 391.94 471.82 397.48C464.08 405.73 454.44 416 435.97 416C417.49 416 407.86 405.73 400.1 397.47C393.05 389.94 387.47 384 375.93 384C364.4 384 358.82 389.94 351.77 397.47C344.03 405.73 334.4 416 315.94 416C297.46 416 287.83 405.73 280.09 397.48C273.03 389.94 267.46 384 255.92 384C244.39 384 238.82 389.94 231.76 397.47C224.02 405.73 214.39 416 195.93 416C177.47 416 167.84 405.73 160.1 397.47C153.05 389.94 147.48 384 135.95 384C124.42 384 118.86 389.94 111.8 397.47C104.06 405.73 94.44 416 75.98 416C57.51 416 47.89 405.73 40.15 397.47C34.96 391.93 30.55 387.27 24 385.18L24 456L488 456ZM488 336L488 256L456 256L456 336L488 336Z" />
	</g>
</svg>