<svg xmlns="http://www.w3.org/2000/svg" viewBox="0 0 512 512" width="512" height="512">
	<style>
		tspan { white-space:pre }
		.shp0 { fill: #cf5260 } 
	</style>
	<g id="Layer">
		<path id="Layer" fill-rule="evenodd" class="shp0" d="M440 8C441.05 8 442.09 8.21 443.06 8.61C444.03 9.01 444.91 9.6 445.66 10.34C446.4 11.09 446.99 11.97 447.39 12.94C447.79 13.91 448 14.95 448 16L448 416C448 417.05 447.79 418.09 447.39 419.06C446.99 420.03 446.4 420.91 445.66 421.66C444.91 422.4 444.03 422.99 443.06 423.39C442.09 423.79 441.05 424 440 424L376 424L376 496C376 497.05 375.79 498.09 375.39 499.06C374.99 500.03 374.4 500.91 373.66 501.66C372.91 502.4 372.03 502.99 371.06 503.39C370.09 503.79 369.05 504 368 504L80 504C78.95 504 77.91 503.79 76.94 503.39C75.97 502.99 75.09 502.4 74.34 501.66C73.6 500.91 73.01 500.03 72.61 499.06C72.21 498.09 72 497.05 72 496L72 96C72 94.95 72.21 93.91 72.61 92.94C73.01 91.97 73.6 91.09 74.34 90.34C75.09 89.6 75.97 89.01 76.94 88.61C77.91 88.21 78.95 88 80 88L144 88L144 16C144 14.95 144.21 13.91 144.61 12.94C145.01 11.97 145.6 11.09 146.34 10.34C147.09 9.6 147.97 9.01 148.94 8.61C149.91 8.21 150.95 8 152 8L440 8ZM160 88L323.37 88L160 27.49L160 88ZM360 104L88 104L88 488L360 488L360 104ZM432 24L196.63 24L370.78 88.5C371.54 88.78 372.25 89.18 372.9 89.68C373.54 90.17 374.1 90.77 374.56 91.43C375.03 92.1 375.39 92.83 375.63 93.61C375.87 94.38 376 95.19 376 96L376 408L432 408L432 24Z" />
		<path id="Layer" fill-rule="evenodd" class="shp0" d="M268.44 233.34C268.98 233.71 269.48 234.14 269.92 234.62C270.36 235.11 270.74 235.65 271.05 236.23C271.36 236.8 271.6 237.42 271.76 238.05C271.92 238.69 272 239.34 272 240L272 392C272 394.1 271.58 396.18 270.78 398.12C269.97 400.06 268.79 401.82 267.31 403.31C265.82 404.79 264.06 405.97 262.12 406.78C260.18 407.58 258.1 408 256 408L192 408C189.9 408 187.82 407.58 185.88 406.78C183.94 405.97 182.18 404.79 180.69 403.31C179.21 401.82 178.03 400.06 177.22 398.12C176.42 396.18 176 394.1 176 392L176 240C176 239.34 176.08 238.69 176.24 238.05C176.4 237.42 176.64 236.8 176.95 236.23C177.26 235.65 177.64 235.11 178.08 234.62C178.52 234.14 179.02 233.71 179.56 233.34L200 219.72L200 136C200 133.9 200.42 131.82 201.22 129.88C202.03 127.94 203.21 126.18 204.69 124.69C206.18 123.21 207.94 122.03 209.88 121.22C211.82 120.42 213.9 120 216 120L232 120C234.1 120 236.18 120.42 238.12 121.22C240.06 122.03 241.82 123.21 243.31 124.69C244.79 126.18 245.97 127.94 246.78 129.88C247.58 131.82 248 133.9 248 136L248 219.72L268.44 233.34ZM216 144L232 144L232 136L216 136L216 144ZM256 336L192 336L192 392L256 392L256 336ZM256 272L192 272L192 320L256 320L256 272ZM256 244.28L235.56 230.66C235.02 230.29 234.52 229.86 234.08 229.38C233.64 228.89 233.26 228.35 232.95 227.77C232.64 227.2 232.4 226.58 232.24 225.95C232.08 225.31 232 224.66 232 224L232 160L216 160L216 224C216 224.66 215.92 225.31 215.76 225.95C215.6 226.58 215.36 227.2 215.05 227.77C214.74 228.35 214.36 228.89 213.92 229.38C213.48 229.86 212.98 230.29 212.44 230.66L192 244.28L192 256L256 256L256 244.28Z" />
		<path id="Layer" class="shp0" d="M240 344L208 344C205.88 344 203.84 344.84 202.34 346.34C200.84 347.84 200 349.88 200 352C200 354.12 200.84 356.16 202.34 357.66C203.84 359.16 205.88 360 208 360L240 360C242.12 360 244.16 359.16 245.66 357.66C247.16 356.16 248 354.12 248 352C248 349.88 247.16 347.84 245.66 346.34C244.16 344.84 242.12 344 240 344Z" />
		<path id="Layer" class="shp0" d="M232 368L216 368C213.88 368 211.84 368.84 210.34 370.34C208.84 371.84 208 373.88 208 376C208 378.12 208.84 380.16 210.34 381.66C211.84 383.16 213.88 384 216 384L232 384C234.12 384 236.16 383.16 237.66 381.66C239.16 380.16 240 378.12 240 376C240 373.88 239.16 371.84 237.66 370.34C236.16 368.84 234.12 368 232 368Z" />
		<path id="Layer" class="shp0" d="M128 440L320 440C322.12 440 324.16 439.16 325.66 437.66C327.16 436.16 328 434.12 328 432C328 429.88 327.16 427.84 325.66 426.34C324.16 424.84 322.12 424 320 424L128 424C125.88 424 123.84 424.84 122.34 426.34C120.84 427.84 120 429.88 120 432C120 434.12 120.84 436.16 122.34 437.66C123.84 439.16 125.88 440 128 440Z" />
		<path id="Layer" class="shp0" d="M264 448L152 448C149.88 448 147.84 448.84 146.34 450.34C144.84 451.84 144 453.88 144 456C144 458.12 144.84 460.16 146.34 461.66C147.84 463.16 149.88 464 152 464L264 464C266.12 464 268.16 463.16 269.66 461.66C271.16 460.16 272 458.12 272 456C272 453.88 271.16 451.84 269.66 450.34C268.16 448.84 266.12 448 264 448Z" />
		<path id="Layer" class="shp0" d="M296 448L288 448C285.88 448 283.84 448.84 282.34 450.34C280.84 451.84 280 453.88 280 456C280 458.12 280.84 460.16 282.34 461.66C283.84 463.16 285.88 464 288 464L296 464C298.12 464 300.16 463.16 301.66 461.66C303.16 460.16 304 458.12 304 456C304 453.88 303.16 451.84 301.66 450.34C300.16 448.84 298.12 448 296 448Z" />
	</g>
</svg>