<svg xmlns="http://www.w3.org/2000/svg" viewBox="0 0 512 512" width="512" height="512">
	<style>
		tspan { white-space:pre }
		.shp0 { fill: #ffffff } 
	</style>
	<g id="Layer">
		<g id="Layer">
			<path id="Layer" fill-rule="evenodd" class="shp0" d="M459.84 352.34C427.26 357.04 397.03 334.44 392.33 301.86C387.63 269.27 410.23 239.05 442.81 234.34L442.81 218.89C442.81 185.54 417.98 158.43 387.46 158.43C357.81 158.43 332.96 184.72 332.11 217.04L332.11 384.45C332.11 447.4 284.36 498.69 225.66 498.69C166.97 498.69 119.22 447.46 119.22 384.45L119.22 369.91C106.87 369.91 93.67 360.96 93.67 335.85L93.67 314.43C39.04 300.49 0 253.55 0 200.28L0 182.57L17.03 182.57L17.03 71.87C17.09 51.16 32.03 33.5 52.44 30.01C54.81 22.7 60.32 16.84 67.47 14.03C80.66 8.85 95.56 15.35 100.74 28.54C105.93 41.73 99.43 56.63 86.24 61.81C73.05 66.99 58.15 60.5 52.97 47.31C41.85 50.3 34.11 60.36 34.06 71.87L34.06 182.57L59.61 182.57L59.61 200.57C60.26 230.17 80.08 255.9 108.52 264.11C123.76 268.94 140.12 268.94 155.36 264.11C183.84 255.93 203.7 230.19 204.37 200.57L204.37 182.57L221.41 182.57L221.02 71.79C220.93 60.45 213.38 50.52 202.47 47.42C199.66 54.39 193.92 59.76 186.78 62.1C173.43 66.45 159.09 59.17 154.73 45.83C150.38 32.48 157.66 18.14 171 13.78C184.35 9.43 198.69 16.71 203.05 30.05C223.23 33.71 237.96 51.22 238.08 71.74L238.44 182.57L255.47 182.57L255.47 200.32C255.47 253.53 216.45 300.46 161.8 314.43L161.8 335.85C161.8 360.96 148.6 369.91 136.25 369.91L136.25 384.45C136.25 438.04 176.36 481.66 225.66 481.66C274.97 481.66 315.08 438.1 315.08 384.45L315.08 216.63L315.57 216.55L315.08 216.55C316.24 175.09 348.7 141.37 387.46 141.37C427.37 141.37 459.84 176.15 459.84 218.86L459.84 234.34C486 238.12 506.55 258.67 510.32 284.83C515.03 317.41 492.43 347.64 459.84 352.34ZM187.34 37.8C187.34 33.1 183.53 29.29 178.83 29.29C174.12 29.29 170.31 33.1 170.31 37.8C170.31 42.51 174.12 46.32 178.83 46.32C183.53 46.32 187.34 42.51 187.34 37.8ZM68.12 37.8C68.12 42.51 71.94 46.32 76.64 46.32C81.34 46.32 85.16 42.51 85.16 37.8C85.16 33.1 81.34 29.29 76.64 29.29C71.94 29.29 68.12 33.1 68.12 37.8ZM103.89 299.4C107.78 300.21 111.7 300.8 115.65 301.18C127.65 302.38 139.76 301.79 151.58 299.42C201.92 289.34 238.44 247.65 238.44 200.28L238.44 199.6L221.41 199.6L221.41 200.57C220.76 237.6 196.11 269.9 160.57 280.3C141.96 286.2 121.98 286.2 103.36 280.3C67.84 269.88 43.22 237.58 42.58 200.57L42.58 199.6L17.03 199.6L17.03 200.28C17.03 247.65 53.55 289.34 103.89 299.4ZM136.24 352.88C143.9 352.88 144.76 340.96 144.76 335.85L144.76 317.78C144.08 317.86 143.39 317.89 142.71 317.97C141.84 318.06 140.93 318.13 140.08 318.21C136.08 318.56 132.03 318.81 127.94 318.81L127.51 318.81C123.42 318.8 119.35 318.56 115.33 318.21C114.48 318.13 113.62 318.06 112.77 317.97C112.08 317.9 111.38 317.86 110.7 317.78L110.7 335.85C110.7 340.96 111.55 352.88 119.22 352.88L136.24 352.88ZM493.9 293.27C493.9 269.76 474.84 250.69 451.33 250.69C427.81 250.69 408.75 269.76 408.75 293.27C408.75 316.79 427.81 335.85 451.33 335.85C474.83 335.82 493.88 316.78 493.9 293.27Z" />
		</g>
	</g>
	<g id="Layer">
		<g id="Layer">
			<path id="Layer" fill-rule="evenodd" class="shp0" d="M476.87 293.27C476.87 307.38 465.44 318.82 451.33 318.82C437.22 318.82 425.78 307.38 425.78 293.27C425.78 279.16 437.22 267.72 451.33 267.72C465.44 267.72 476.87 279.16 476.87 293.27ZM459.84 293.27C459.84 288.57 456.03 284.76 451.33 284.76C446.62 284.76 442.81 288.57 442.81 293.27C442.81 297.97 446.62 301.79 451.33 301.79C456.03 301.79 459.84 297.97 459.84 293.27Z" />
		</g>
	</g>
	<g id="Layer">
	</g>
	<g id="Layer">
	</g>
	<g id="Layer">
	</g>
	<g id="Layer">
	</g>
	<g id="Layer">
	</g>
	<g id="Layer">
	</g>
	<g id="Layer">
	</g>
	<g id="Layer">
	</g>
	<g id="Layer">
	</g>
	<g id="Layer">
	</g>
	<g id="Layer">
	</g>
	<g id="Layer">
	</g>
	<g id="Layer">
	</g>
	<g id="Layer">
	</g>
	<g id="Layer">
	</g>
</svg>