<svg xmlns="http://www.w3.org/2000/svg" viewBox="0 0 512 512" width="512" height="512">
	<style>
		tspan { white-space:pre }
		.shp0 { fill: #ffffff } 
	</style>
	<path id="Layer" fill-rule="evenodd" class="shp0" d="M456 320C457.05 320 458.09 320.21 459.06 320.61C460.03 321.01 460.91 321.6 461.66 322.34C462.4 323.09 462.99 323.97 463.39 324.94C463.79 325.91 464 326.95 464 328C464 402.46 394.19 449.6 376 460.6L376 488C376 489.05 375.79 490.09 375.39 491.06C374.99 492.03 374.4 492.91 373.66 493.66C372.91 494.4 372.03 494.99 371.06 495.39C370.09 495.79 369.05 496 368 496L144 496C142.95 496 141.91 495.79 140.94 495.39C139.97 494.99 139.09 494.4 138.34 493.66C137.6 492.91 137.01 492.03 136.61 491.06C136.21 490.09 136 489.05 136 488L136 460.6C117.81 449.6 48 402.46 48 328C48 326.95 48.21 325.91 48.61 324.94C49.01 323.97 49.6 323.09 50.34 322.34C51.09 321.6 51.97 321.01 52.94 320.61C53.91 320.21 54.95 320 56 320L88.21 320C86.9 318.29 85.72 316.48 84.71 314.59C83.69 312.69 82.83 310.71 82.13 308.68C81.43 306.64 80.9 304.55 80.55 302.42C80.19 300.3 80.01 298.15 80 296L80 272L104 272C104.47 272.01 104.94 272.04 105.41 272.07C105.87 272.1 106.34 272.13 106.81 272.18C107.28 272.23 107.74 272.28 108.21 272.35C108.67 272.41 109.14 272.48 109.6 272.56C96.05 229.79 96 226.17 96 224C96 219.56 96.93 215.18 98.71 211.12C100.5 207.06 103.11 203.41 106.38 200.42C109.66 197.42 113.51 195.14 117.71 193.71C121.91 192.29 126.37 191.75 130.78 192.14C134.04 182.74 140.14 174.59 148.24 168.82C156.34 163.05 166.04 159.95 175.98 159.95C185.93 159.95 195.63 163.05 203.73 168.82C211.83 174.59 217.93 182.74 221.18 192.14C225.61 191.75 230.06 192.28 234.26 193.7C238.47 195.13 242.33 197.41 245.6 200.41C248.88 203.4 251.49 207.05 253.28 211.11C255.07 215.17 256 219.56 256 224C256 225.6 256 226.47 239.62 296.52C243.86 293.17 248.75 290.72 253.98 289.33C259.21 287.94 264.66 287.64 270.01 288.44C275.36 289.24 280.49 291.14 285.08 294C289.67 296.87 293.62 300.64 296.7 305.1C297.5 300.5 299.1 296.09 301.43 292.05C303.75 288.01 306.77 284.41 310.33 281.4C313.9 278.4 317.96 276.04 322.34 274.44C326.71 272.84 331.34 272.01 336 272L360 272L360 296C359.99 298.15 359.81 300.3 359.45 302.42C359.1 304.55 358.57 306.64 357.87 308.68C357.17 310.71 356.31 312.69 355.29 314.59C354.28 316.48 353.1 318.29 351.79 320L369.89 320L416.28 149.9C416.55 148.9 417.02 147.97 417.65 147.14C418.28 146.32 419.06 145.63 419.96 145.1C420.85 144.58 421.84 144.23 422.87 144.09C423.89 143.94 424.94 144 425.94 144.25L457.94 152.25C458.95 152.5 459.91 152.95 460.74 153.57C461.58 154.18 462.29 154.96 462.83 155.85C463.37 156.74 463.74 157.73 463.9 158.76C464.06 159.78 464.02 160.83 463.78 161.85L426.13 320L456 320ZM386.48 320L409.68 320L446.38 165.84L429.66 161.66L386.48 320ZM312 320L320 320C323.15 320 326.27 319.38 329.18 318.17C332.1 316.97 334.74 315.2 336.97 312.97C339.2 310.74 340.97 308.1 342.17 305.18C343.38 302.27 344 299.15 344 296L344 288L336 288C332.85 288 329.73 288.62 326.82 289.83C323.9 291.03 321.26 292.8 319.03 295.03C316.8 297.26 315.03 299.9 313.83 302.82C312.62 305.73 312 308.85 312 312L312 320ZM264 304C261.53 304 259.08 304.39 256.73 305.13C254.38 305.88 252.16 306.99 250.15 308.41C248.13 309.84 246.35 311.56 244.86 313.53C243.37 315.49 242.19 317.68 241.37 320L286.63 320C285.81 317.68 284.63 315.49 283.14 313.53C281.65 311.56 279.87 309.84 277.85 308.41C275.84 306.99 273.62 305.88 271.27 305.13C268.92 304.39 266.47 304 264 304ZM213.86 308.4C209.81 305.53 204.97 303.99 200 303.99C195.03 303.99 190.19 305.53 186.14 308.4C182.08 311.26 179.02 315.32 177.37 320L222.63 320C220.98 315.32 217.92 311.26 213.86 308.4ZM112 224C112.17 225.5 114.23 234.77 129.1 281.11C131.4 282.96 133.5 285.06 135.34 287.38C137.18 289.69 138.76 292.2 140.05 294.87C141.33 297.53 142.32 300.33 142.98 303.21C143.65 306.09 143.99 309.04 144 312L144 320L160.8 320C161.72 315.52 163.4 311.23 165.77 307.31C168.14 303.4 171.17 299.92 174.71 297.03C178.25 294.14 182.27 291.87 186.58 290.33C190.88 288.79 195.42 288.01 200 288C202.09 288 204.17 288.17 206.23 288.51C208.29 288.84 210.33 289.33 212.31 289.99C214.29 290.64 216.22 291.45 218.08 292.4C219.93 293.36 221.71 294.46 223.39 295.7C229.55 269.35 238.93 229.13 240 223.46C239.97 220.88 239.3 218.36 238.07 216.1C236.83 213.85 235.06 211.93 232.91 210.51C230.76 209.1 228.29 208.24 225.73 208C223.17 207.76 220.59 208.16 218.22 209.15C217.1 209.58 215.91 209.75 214.73 209.65C213.54 209.56 212.39 209.2 211.36 208.61C210.33 208.01 209.45 207.19 208.77 206.22C208.1 205.24 207.65 204.12 207.46 202.94C206.3 195.43 202.49 188.59 196.72 183.65C190.95 178.7 183.6 175.98 176 175.98C168.4 175.98 161.05 178.7 155.28 183.65C149.51 188.59 145.7 195.43 144.54 202.94C144.35 204.12 143.9 205.24 143.23 206.22C142.55 207.19 141.67 208.01 140.64 208.61C139.61 209.2 138.46 209.56 137.27 209.65C136.09 209.75 134.9 209.58 133.78 209.15C131.37 208.14 128.74 207.75 126.13 208.01C123.53 208.28 121.03 209.19 118.86 210.66C116.7 212.14 114.94 214.13 113.74 216.46C112.54 218.79 111.94 221.38 112 224ZM97.83 305.18C99.03 308.1 100.8 310.74 103.03 312.97C105.26 315.2 107.9 316.97 110.82 318.17C113.73 319.38 116.85 320 120 320L128 320L128 312C128 308.85 127.38 305.73 126.17 302.82C124.97 299.9 123.2 297.26 120.97 295.03C118.74 292.8 116.1 291.03 113.18 289.83C110.27 288.62 107.15 288 104 288L96 288L96 296C96 299.15 96.62 302.27 97.83 305.18ZM365.84 448C374.85 442.67 420.62 413.69 439.63 368L272 368L272 352L444.92 352C445.26 350.69 445.57 349.37 445.85 348.05C446.14 346.72 446.39 345.39 446.62 344.06C446.85 342.72 447.06 341.38 447.23 340.04C447.4 338.7 447.55 337.35 447.67 336L64.33 336C64.45 337.35 64.6 338.7 64.77 340.04C64.94 341.38 65.15 342.72 65.38 344.06C65.61 345.39 65.86 346.72 66.15 348.05C66.43 349.37 66.74 350.69 67.08 352L160 352L160 368L72.37 368C91.38 413.69 137.15 442.67 146.16 448L256 448L256 464L152 464L152 480L360 480L360 464L328 464L328 448L365.84 448Z" />
	<path id="Layer" class="shp0" d="M176 352L192 352L192 368L176 368L176 352Z" />
	<path id="Layer" class="shp0" d="M208 352L224 352L224 368L208 368L208 352Z" />
	<path id="Layer" class="shp0" d="M240 352L256 352L256 368L240 368L240 352Z" />
	<path id="Layer" fill-rule="evenodd" class="shp0" d="M243.93 138.83C240.91 137.06 238.13 134.9 235.66 132.41C233.2 129.91 231.07 127.11 229.33 124.07C227.59 121.03 226.25 117.77 225.35 114.38C224.45 111 224 107.5 224 104L240 104C240.07 106.42 240.48 108.82 241.22 111.14C241.95 113.45 243 115.64 244.35 117.66C245.69 119.68 247.31 121.5 249.15 123.07C251 124.64 253.06 125.95 255.26 126.95C256.62 126.19 258.04 125.53 259.51 124.99C260.97 124.46 262.47 124.03 264 123.73C265.53 123.43 267.09 123.25 268.65 123.2C270.2 123.15 271.76 123.22 273.31 123.41C293.8 125.84 311.62 146.39 318.34 155.12C333.45 174.76 342.41 187.21 342.5 187.34C343.35 188.53 343.87 189.94 343.97 191.41C344.08 192.87 343.79 194.34 343.11 195.65C342.44 196.96 341.42 198.06 340.17 198.83C338.91 199.59 337.47 200 336 200L335.71 200C331.51 199.73 327.31 199.36 323.13 198.88C318.95 198.4 314.78 197.82 310.62 197.13C306.47 196.44 302.33 195.64 298.22 194.74C294.11 193.84 290.02 192.84 285.95 191.74C264.66 186.1 246.02 169.66 242.57 153.5C242.29 152.29 242.11 151.05 242.02 149.8C241.94 148.55 241.95 147.3 242.07 146.06C242.19 144.81 242.4 143.58 242.71 142.37C243.02 141.16 243.43 139.98 243.93 138.83ZM269.45 139.2C268.69 139.19 267.92 139.26 267.17 139.39C266.42 139.51 265.68 139.71 264.96 139.97C264.25 140.23 263.55 140.55 262.89 140.93C262.23 141.32 261.61 141.76 261.02 142.25C260.41 142.68 259.87 143.21 259.42 143.8C258.96 144.4 258.61 145.07 258.36 145.77C258.11 146.48 257.97 147.22 257.94 147.97C257.92 148.72 258.01 149.47 258.22 150.19C260.14 159.24 273.39 171.88 290.05 176.29C292.41 176.91 294.79 177.51 297.17 178.07C299.55 178.62 301.94 179.15 304.34 179.64C306.73 180.13 309.14 180.59 311.55 181.01C313.96 181.44 316.37 181.83 318.79 182.18C315.21 177.4 310.79 171.58 305.66 164.9C294.42 150.27 281.3 140.47 271.42 139.3C271.26 139.28 271.1 139.26 270.93 139.25C270.77 139.23 270.6 139.22 270.44 139.21C270.27 139.2 270.11 139.19 269.94 139.18C269.78 139.18 269.61 139.18 269.45 139.18L269.45 139.2Z" />
	<path id="Layer" class="shp0" d="M144 240L160 240L160 256L144 256L144 240Z" />
	<path id="Layer" class="shp0" d="M184 256L200 256L200 272L184 272L184 256Z" />
	<path id="Layer" fill-rule="evenodd" class="shp0" d="M87.56 144C86.23 143.93 84.94 143.53 83.8 142.83C82.67 142.13 81.72 141.16 81.06 140C80.39 138.85 80.03 137.55 79.99 136.22C79.96 134.88 80.26 133.56 80.86 132.38C83.72 126.74 109.46 76.98 132.26 64.93C151.35 54.83 181.21 57.6 191.07 76.27C192.23 78.8 193.14 81.43 193.79 84.13C194.43 86.84 194.81 89.6 194.92 92.37C195.02 95.15 194.85 97.93 194.41 100.68C193.97 103.42 193.26 106.12 192.29 108.72C191.49 111.46 190.43 114.12 189.13 116.66C187.83 119.21 186.3 121.62 184.54 123.87C182.79 126.12 180.82 128.2 178.67 130.08C176.52 131.97 174.2 133.64 171.74 135.08C156.74 143.01 127.18 144.48 107.25 144.48C97.23 144.48 89.66 144.11 87.56 144ZM121.81 96.71C117.66 102.14 113.56 108.1 109.81 114.02L134.19 99.8L121.81 96.71ZM117.1 128.29C119.34 128.24 121.59 128.16 123.84 128.06C126.09 127.95 128.33 127.81 130.57 127.64C132.82 127.48 135.06 127.28 137.3 127.05C139.53 126.82 141.77 126.57 144 126.28L144 112.59L117.1 128.29ZM177.07 103.77C177.38 102.84 177.64 101.91 177.87 100.96C178.1 100.02 178.29 99.06 178.43 98.1C178.58 97.14 178.69 96.17 178.75 95.2C178.82 94.23 178.85 93.25 178.83 92.28L160.01 103.26L160.01 122.69C160.37 122.57 160.74 122.44 161.1 122.31C161.46 122.18 161.81 122.04 162.17 121.89C162.52 121.75 162.88 121.6 163.23 121.44C163.58 121.28 163.93 121.12 164.27 120.95C165.82 119.98 167.27 118.87 168.61 117.63C169.96 116.39 171.18 115.03 172.27 113.57C173.37 112.1 174.32 110.54 175.12 108.9C175.93 107.26 176.58 105.55 177.07 103.79L177.07 103.77ZM171.03 78.3C168.57 77.21 165.99 76.4 163.34 75.88C160.7 75.35 158 75.12 155.31 75.19C152.61 75.26 149.94 75.63 147.32 76.29C144.71 76.95 142.17 77.9 139.77 79.11C139.25 79.41 138.75 79.71 138.25 80.04C137.75 80.36 137.26 80.69 136.78 81.04C136.3 81.39 135.83 81.75 135.37 82.13C134.91 82.5 134.46 82.89 134.02 83.29L153.98 88.28L171.03 78.33L171.03 78.3Z" />
	<path id="Layer" fill-rule="evenodd" class="shp0" d="M360 80C352.65 79.99 345.37 78.54 338.58 75.72C331.79 72.9 325.62 68.78 320.42 63.58C315.22 58.38 311.1 52.21 308.28 45.42C305.46 38.63 304.01 31.35 304 24C304 22.95 304.21 21.91 304.61 20.94C305.01 19.97 305.6 19.09 306.34 18.34C307.09 17.6 307.97 17.01 308.94 16.61C309.91 16.21 310.95 16 312 16L328 16C335.35 16.01 342.63 17.46 349.42 20.28C356.21 23.1 362.38 27.22 367.58 32.42C372.78 37.62 376.9 43.79 379.72 50.58C382.54 57.37 383.99 64.65 384 72C384 73.05 383.79 74.09 383.39 75.06C382.99 76.03 382.4 76.91 381.66 77.66C380.91 78.4 380.03 78.99 379.06 79.39C378.09 79.79 377.05 80 376 80L360 80ZM320.8 32C321.72 36.48 323.4 40.77 325.77 44.69C328.14 48.6 331.16 52.08 334.71 54.97C338.25 57.87 342.27 60.13 346.58 61.67C350.88 63.21 355.42 63.99 360 64L367.2 64C366.28 59.52 364.6 55.23 362.23 51.31C359.86 47.4 356.84 43.92 353.29 41.03C349.75 38.13 345.73 35.87 341.42 34.33C337.12 32.79 332.58 32.01 328 32L320.8 32Z" />
	<path id="Layer" fill-rule="evenodd" class="shp0" d="M254.82 78.17C251.9 76.97 249.26 75.2 247.03 72.97C244.8 70.74 243.03 68.1 241.83 65.18C240.62 62.27 240 59.15 240 56C240 46.29 245.85 37.54 254.82 33.83C263.78 30.11 274.11 32.17 280.97 39.03C287.83 45.89 289.89 56.22 286.17 65.18C282.46 74.15 273.71 80 264 80C260.85 80 257.73 79.38 254.82 78.17ZM260.94 48.61C259.97 49.01 259.09 49.6 258.34 50.34C257.6 51.09 257.01 51.97 256.61 52.94C256.21 53.91 256 54.95 256 56C256 59.24 257.95 62.15 260.94 63.39C263.93 64.63 267.37 63.94 269.66 61.66C271.94 59.37 272.63 55.93 271.39 52.94C270.15 49.95 267.24 48 264 48C262.95 48 261.91 48.21 260.94 48.61Z" />
	<path id="Layer" fill-rule="evenodd" class="shp0" d="M353.83 118.82C355.03 115.9 356.8 113.26 359.03 111.03C361.26 108.8 363.9 107.03 366.82 105.83C369.73 104.62 372.85 104 376 104C385.71 104 394.46 109.85 398.17 118.82C401.89 127.78 399.83 138.11 392.97 144.97C386.11 151.83 375.78 153.89 366.82 150.17C357.85 146.46 352 137.71 352 128C352 124.85 352.62 121.73 353.83 118.82ZM383.39 124.94C382.99 123.97 382.4 123.09 381.66 122.34C380.91 121.6 380.03 121.01 379.06 120.61C378.09 120.21 377.05 120 376 120C372.76 120 369.85 121.95 368.61 124.94C367.37 127.93 368.06 131.37 370.34 133.66C372.63 135.94 376.07 136.63 379.06 135.39C382.05 134.15 384 131.24 384 128C384 126.95 383.79 125.91 383.39 124.94Z" />
	<path id="Layer" class="shp0" d="M296 232L312 232L312 248L296 248L296 232Z" />
	<path id="Layer" class="shp0" d="M320 96L336 96L336 112L320 112L320 96Z" />
	<path id="Layer" class="shp0" d="M192 24L208 24L208 40L192 40L192 24Z" />
	<path id="Layer" class="shp0" d="M360 200L376 200L376 216L360 216L360 200Z" />
</svg>