<svg xmlns="http://www.w3.org/2000/svg" viewBox="0 0 512 512" width="512" height="512">
	<style>
		tspan { white-space:pre }
		.shp0 { fill: #ffffff } 
	</style>
	<g id="Layer">
		<g id="Layer">
			<path id="Layer" fill-rule="evenodd" class="shp0" d="M442.3 137.69C442.46 147.62 438.68 156.96 431.66 164C424.77 170.87 415.64 174.65 405.94 174.65L292.37 174.65C284.21 174.65 276.25 177.76 270.59 183.64C265.27 189.18 262.37 196.44 262.44 204.15L262.87 256.2L338.25 331.59C351.46 344.8 351.46 366.3 338.25 379.51L285.96 431.8C296.21 447.17 294.55 468.23 281.01 481.76L276.84 485.94C275.41 487.36 273.47 488.17 271.46 488.17L271.43 488.17C269.41 488.17 267.47 487.36 266.05 485.92L206.61 425.63C203.69 422.64 203.72 417.86 206.68 414.91L256.2 365.69L218 327.49L89.79 455.5C100.14 470.89 98.52 492 84.92 505.6L80.75 509.77C79.32 511.2 77.38 512 75.37 512L75.34 512C73.32 512 71.38 511.19 69.96 509.75L10.52 449.47C7.6 446.48 7.63 441.71 10.59 438.76L72.08 377.41C75.05 374.44 79.87 374.44 82.84 377.42C85.81 380.39 85.8 385.21 82.83 388.18L72.78 398.21L99.18 424.62L142.17 381.69L115.76 355.28L107.82 363.22C104.84 366.19 100.02 366.18 97.05 363.21C94.08 360.23 94.09 355.41 97.06 352.44L128.56 321L128.56 228.65C128.56 185.73 150.02 147.73 182.76 124.79C165.35 111.89 154.61 91.21 154.61 69.14C154.61 31.02 185.64 0 223.77 0C261.9 0 292.92 31.02 292.92 69.14C292.92 80.67 290.04 91.93 284.65 101.93L327.57 101.93C331.77 101.93 335.18 105.34 335.18 109.54C335.18 113.74 331.77 117.15 327.57 117.15L255.28 117.15C232.7 117.15 211.67 123.91 194.09 135.49C194.81 142.82 197.79 158.93 210.08 168.59C221.07 177.22 237.39 179.09 258.59 174.19C259.08 173.65 259.59 173.11 260.11 172.58C268.53 164.1 279.74 159.43 291.69 159.43L405.94 159.43C411.58 159.43 416.89 157.23 420.9 153.24C424.97 149.15 427.17 143.72 427.08 137.94C426.89 126.48 417.09 117.15 405.24 117.15L363.09 117.15C358.89 117.15 355.48 113.74 355.48 109.54C355.48 105.34 358.88 101.93 363.09 101.93L405.24 101.93C425.35 101.93 441.98 117.97 442.3 137.69ZM88.41 435.37L62 408.96L26.68 444.21L75.36 493.54C83.65 483.98 83.25 469.45 74.16 460.36C72.74 458.93 71.93 457 71.93 454.98C71.94 452.95 72.74 451.02 74.17 449.59L88.41 435.37ZM197.31 49.25C197.6 47.16 198.74 45.29 200.46 44.08C202.18 42.87 204.33 42.42 206.39 42.85C208.03 43.19 209.7 43.61 211.37 44.12C232.77 50.67 259.36 44.24 267.31 37.38C257.49 23.96 241.64 15.22 223.77 15.22C194.03 15.22 169.84 39.41 169.84 69.14C169.84 73.93 170.5 78.63 171.72 83.15C185.42 77.12 195.19 64.43 197.31 49.25ZM197.18 116.06C214.59 107.04 234.35 101.93 255.28 101.93L266.57 101.93C273.76 92.56 277.69 81.05 277.69 69.15C277.69 62.78 276.57 56.66 274.54 50.99C267.34 56 257.93 58.64 251.59 59.95C237.82 62.77 222.81 62.65 210.61 59.68C205.75 76.47 193.72 90.15 177.74 97.14C182.46 104.89 189.1 111.47 197.18 116.06ZM143.79 228.65L143.79 262.35L247.62 252.47L247.22 204.27C247.18 199.83 247.79 195.49 249 191.35C245.02 191.84 241.17 192.09 237.49 192.09C222.71 192.09 210.35 188.21 200.56 180.47C188.07 170.6 182.7 156.63 180.38 146.13C157.91 166.54 143.79 195.97 143.79 228.65L143.79 228.65ZM284.01 412.23L257.57 385.79L222.77 420.39L271.45 469.71C279.7 460.19 279.33 445.69 270.33 436.61C267.38 433.63 267.39 428.83 270.36 425.87L284.01 412.23ZM303.61 318.48L267.06 355.03L272.36 360.32C273.79 361.75 274.59 363.69 274.59 365.72C274.59 367.74 273.78 369.68 272.34 371.1L268.36 375.06L294.77 401.46L327.49 368.74C334.76 361.47 334.76 349.63 327.49 342.35L303.61 318.48ZM252.43 267.3L143.79 277.65L143.79 324.16C143.79 326.18 142.98 328.12 141.55 329.54L126.54 344.53L152.95 370.94L212.63 311.35C212.66 311.31 212.7 311.29 212.73 311.26C212.76 311.23 212.78 311.2 212.81 311.17L234.03 291.37C237.1 288.5 241.92 288.67 244.79 291.74C247.65 294.81 247.49 299.63 244.41 302.5L228.96 316.92L256.3 344.26L292.85 307.71L252.43 267.3Z" />
		</g>
	</g>
	<g id="Layer">
		<g id="Layer">
			<path id="Layer" fill-rule="evenodd" class="shp0" d="M483.43 307.5C469.95 320.98 452.24 327.72 434.53 327.72C416.82 327.72 399.12 320.98 385.64 307.5C372.57 294.44 365.38 277.07 365.38 258.6C365.38 240.13 372.58 222.77 385.64 209.71C398.7 196.65 416.06 189.45 434.53 189.45C453 189.45 470.37 196.65 483.43 209.71C510.39 236.67 510.39 280.54 483.43 307.5ZM487.9 266.14C472.38 264.41 458.02 257.55 446.8 246.33C435.58 235.11 428.72 220.73 427 205.21C417.95 206.46 409.45 209.98 402.16 215.47L477.66 290.96C483.25 283.52 486.67 274.96 487.9 266.14ZM466.89 301.73L391.4 226.23C385.9 233.53 382.39 242.03 381.13 251.07C396.66 252.78 411.04 259.65 422.26 270.87C433.48 282.09 440.34 296.46 442.06 311.97C450.88 310.74 459.45 307.32 466.89 301.73ZM426.73 311.94C425.08 300.51 419.82 289.96 411.5 281.64C403.17 273.31 392.58 268.04 381.17 266.41C382.82 277.85 388.08 288.41 396.4 296.73C404.93 305.26 415.62 310.33 426.73 311.94ZM442.33 205.24C443.97 216.68 449.23 227.23 457.57 235.57C465.89 243.89 476.44 249.15 487.87 250.8C486.25 239.69 481.19 229 472.66 220.47C464.34 212.15 453.77 206.89 442.33 205.24Z" />
		</g>
	</g>
	<g id="Layer">
		<g id="Layer">
			<path id="Layer" class="shp0" d="M252.44 66.31C248.24 66.31 244.83 69.72 244.83 73.93L244.83 82.62C244.83 86.82 248.24 90.23 252.44 90.23C256.65 90.23 260.06 86.82 260.06 82.62L260.06 73.93C260.06 69.72 256.65 66.31 252.44 66.31Z" />
		</g>
	</g>
	<g id="Layer">
	</g>
	<g id="Layer">
	</g>
	<g id="Layer">
	</g>
	<g id="Layer">
	</g>
	<g id="Layer">
	</g>
	<g id="Layer">
	</g>
	<g id="Layer">
	</g>
	<g id="Layer">
	</g>
	<g id="Layer">
	</g>
	<g id="Layer">
	</g>
	<g id="Layer">
	</g>
	<g id="Layer">
	</g>
	<g id="Layer">
	</g>
	<g id="Layer">
	</g>
	<g id="Layer">
	</g>
</svg>