<svg xmlns="http://www.w3.org/2000/svg" viewBox="0 0 512 512" width="512" height="512">
	<style>
		tspan { white-space:pre }
		.shp0 { fill: #ffffff } 
	</style>
	<g id="Layer">
		<g id="Layer">
			<path id="Layer" fill-rule="evenodd" class="shp0" d="M511 9L511 63C511 68.52 506.52 73 501 73L483.83 73L483.83 343C483.83 348.52 479.36 353 473.83 353L240.08 353C234.55 353 230.08 348.52 230.08 343C230.08 337.48 234.55 333 240.08 333L252.01 333L252.01 229C252.01 223.48 256.49 219 262.01 219C267.53 219 272.01 223.48 272.01 229L272.01 333L330.01 333L330.01 280C330.01 274.48 334.49 270 340.01 270C345.53 270 350.01 274.48 350.01 280L350.01 333L408.01 333L408.01 249C408.01 243.48 412.49 239 418.01 239C423.53 239 428.01 243.48 428.01 249L428.01 333L463.83 333L463.83 112.75L445.94 130.64C448.93 135.56 450.65 141.33 450.65 147.49C450.65 165.45 436.04 180.07 418.08 180.07C411.92 180.07 406.15 178.34 401.22 175.36L369.22 207.36C371.51 211.81 372.81 216.85 372.81 222.2C372.81 240.16 358.2 254.77 340.24 254.77C322.28 254.77 307.67 240.16 307.67 222.2C307.67 216.82 308.99 211.75 311.3 207.28L276.56 172.53C272.17 174.73 267.24 175.97 262.01 175.97C256 175.97 250.36 174.33 245.52 171.47L208.5 208.5C206.55 210.45 203.99 211.43 201.43 211.43C198.87 211.43 196.31 210.45 194.36 208.5C190.45 204.59 190.45 198.26 194.36 194.36L232.2 156.51C230.43 152.49 229.44 148.06 229.44 143.4C229.44 125.44 244.05 110.83 262.01 110.83C279.97 110.83 294.58 125.44 294.58 143.4C294.58 148.86 293.23 154.01 290.84 158.53L325.48 193.17C329.92 190.91 334.93 189.62 340.24 189.62C345.59 189.62 350.63 190.92 355.08 193.21L388.09 160.2C386.43 156.3 385.51 152 385.51 147.49C385.51 129.53 400.12 114.92 418.08 114.92C422.59 114.92 426.89 115.84 430.79 117.5L456.31 91.98C458.38 89.92 461.13 88.95 463.83 89.08L463.83 73L46.17 73L46.17 194.05C46.17 199.57 41.69 204.05 36.17 204.05C30.64 204.05 26.17 199.57 26.17 194.05L26.17 73L9 73C3.48 73 -1 68.52 -1 63L-1 9C-1 3.48 3.48 -1 9 -1L501 -1C506.52 -1 511 3.48 511 9ZM274.59 143.4C274.59 136.47 268.95 130.83 262.01 130.83C255.08 130.83 249.44 136.47 249.44 143.4C249.44 150.33 255.08 155.97 262.01 155.97C268.94 155.97 274.59 150.33 274.59 143.4ZM352.82 222.2C352.82 215.26 347.18 209.62 340.25 209.62C333.31 209.62 327.67 215.26 327.67 222.2C327.67 229.13 333.31 234.77 340.25 234.77C347.18 234.77 352.82 229.13 352.82 222.2ZM430.66 147.49C430.66 143.96 429.19 140.77 426.83 138.48C426.27 138.11 425.74 137.68 425.25 137.19C425.23 137.17 425.22 137.15 425.2 137.14C423.18 135.74 420.72 134.92 418.08 134.92C411.15 134.92 405.51 140.56 405.51 147.49C405.51 154.42 411.15 160.06 418.08 160.06C425.02 160.06 430.66 154.42 430.66 147.49ZM491 19L19 19L19 53L491 53L491 19Z" />
		</g>
	</g>
	<g id="Layer">
		<g id="Layer">
			<path id="Layer" fill-rule="evenodd" class="shp0" d="M264.98 446.4L264.98 501C264.98 506.52 260.5 511 254.98 511L156.25 511C156.25 511 156.24 511 156.24 511C156.23 511 156.23 511 156.22 511L107.8 511C107.79 511 107.79 511 107.78 511C107.78 511 107.77 511 107.77 511L9 511C3.48 511 -1 506.52 -1 501L-1 446.41C-1 416.14 18.4 389.68 47.26 380.57L47.53 380.48L47.53 294.2C47.53 247.62 85.43 209.73 132 209.73C178.58 209.73 216.48 247.62 216.48 294.2L216.48 380.48L216.73 380.56C245.59 389.68 264.98 416.14 264.98 446.4ZM89.81 491L59.03 441.4C56.58 437.46 57.17 432.34 60.46 429.06L69.08 420.44L57.41 398.33L53.28 399.64C32.78 406.11 19 424.91 19 446.41L19 491L89.81 491ZM97.79 385.59L76.8 392.21L90.21 417.63C92.25 421.51 91.54 426.26 88.44 429.37L80.2 437.59L97.79 465.92L97.79 385.59ZM97.79 364.27C83 353.62 73.35 336.26 73.35 316.69L73.35 295.07C73.35 289.55 77.83 285.07 83.35 285.07C94.96 285.07 105.71 279.78 112.83 270.56C114.72 268.11 117.65 266.67 120.74 266.67C123.84 266.67 126.76 268.11 128.66 270.56C135.78 279.78 146.52 285.07 158.14 285.07C164.35 285.07 170.48 283.53 175.87 280.62C178.96 278.95 182.72 279.03 185.74 280.83C188.77 282.64 190.62 285.9 190.62 289.42L190.62 316.69C190.62 336.24 180.99 353.57 166.24 364.23L166.24 364.62L196.47 374.17L196.47 294.2C196.47 258.65 167.55 229.73 132 229.73C96.46 229.73 67.53 258.65 67.54 294.2L67.54 374.17L97.79 364.62L97.79 364.27ZM146.24 373.56C141.67 374.71 136.9 375.32 131.98 375.32C127.09 375.32 122.34 374.71 117.79 373.58L117.79 491L146.24 491L146.24 373.56ZM170.62 316.69L170.62 303.7C166.54 304.61 162.35 305.07 158.14 305.07C144.18 305.07 131.04 300.11 120.74 291.18C112.95 297.94 103.53 302.43 93.35 304.21L93.35 316.69C93.35 330.19 100.32 342.1 110.85 349C112.22 349.44 113.45 350.18 114.49 351.12C119.75 353.8 125.69 355.32 131.98 355.32C138.33 355.32 144.32 353.77 149.61 351.05C150.6 350.17 151.76 349.49 153.04 349.05C163.62 342.15 170.62 330.23 170.62 316.69ZM166.24 465.92L183.82 437.59L175.59 429.36C172.49 426.26 171.77 421.51 173.82 417.62L187.22 392.22L166.24 385.59L166.24 465.92ZM244.98 491L244.98 446.4C244.98 424.9 231.2 406.11 210.7 399.63L206.61 398.34L194.95 420.44L203.57 429.06C206.86 432.34 207.45 437.46 205 441.4L174.22 491L244.98 491Z" />
		</g>
	</g>
	<g id="Layer">
		<g id="Layer">
			<path id="Layer" class="shp0" d="M425.08 201.93C423.22 200.07 420.64 199 418.01 199C415.38 199 412.8 200.07 410.94 201.93C409.08 203.79 408.01 206.37 408.01 209C408.01 211.63 409.08 214.21 410.94 216.07C412.8 217.93 415.38 219 418.01 219C420.65 219 423.22 217.93 425.08 216.07C426.94 214.21 428.01 211.63 428.01 209C428.01 206.37 426.94 203.79 425.08 201.93Z" />
		</g>
	</g>
	<g id="Layer">
		<g id="Layer">
			<path id="Layer" class="shp0" d="M170.65 117L83.35 117C77.83 117 73.35 121.48 73.35 127C73.35 132.52 77.83 137 83.35 137L170.65 137C176.17 137 180.65 132.52 180.65 127C180.65 121.48 176.17 117 170.65 117Z" />
		</g>
	</g>
	<g id="Layer">
		<g id="Layer">
			<path id="Layer" class="shp0" d="M177.72 159.93C175.86 158.07 173.28 157 170.65 157C168.01 157 165.44 158.07 163.58 159.93C161.71 161.79 160.65 164.37 160.65 167C160.65 169.63 161.71 172.21 163.58 174.07C165.44 175.93 168.01 177 170.65 177C173.28 177 175.86 175.93 177.72 174.07C179.58 172.21 180.65 169.63 180.65 167C180.65 164.37 179.58 161.79 177.72 159.93Z" />
		</g>
	</g>
	<g id="Layer">
		<g id="Layer">
			<path id="Layer" class="shp0" d="M132 157L83.35 157C77.83 157 73.35 161.48 73.35 167C73.35 172.52 77.83 177 83.35 177L132 177C137.53 177 142 172.52 142 167C142 161.48 137.53 157 132 157Z" />
		</g>
	</g>
	<g id="Layer">
	</g>
	<g id="Layer">
	</g>
	<g id="Layer">
	</g>
	<g id="Layer">
	</g>
	<g id="Layer">
	</g>
	<g id="Layer">
	</g>
	<g id="Layer">
	</g>
	<g id="Layer">
	</g>
	<g id="Layer">
	</g>
	<g id="Layer">
	</g>
	<g id="Layer">
	</g>
	<g id="Layer">
	</g>
	<g id="Layer">
	</g>
	<g id="Layer">
	</g>
	<g id="Layer">
	</g>
</svg>