<svg xmlns="http://www.w3.org/2000/svg" viewBox="0 0 512 512" width="512" height="512">
	<style>
		tspan { white-space:pre }
		.shp0 { fill: #ffffff } 
	</style>
	<path id="Layer" class="shp0" d="M103.33 145.74L111.81 145.74C115.15 145.74 118.46 145.08 121.55 143.8C124.63 142.52 127.44 140.64 129.8 138.28C132.16 135.92 134.03 133.11 135.31 130.03C136.59 126.94 137.26 123.64 137.26 120.3L137.26 111.81L120.3 111.81L120.3 120.3C120.29 121.41 120.07 122.51 119.65 123.54C119.22 124.57 118.6 125.5 117.81 126.29C117.02 127.08 116.09 127.7 115.06 128.13C114.03 128.56 112.93 128.78 111.81 128.78L103.33 128.78L103.33 145.74Z" />
	<path id="Layer" class="shp0" d="M94.85 103.33C90.16 103.33 86.37 99.54 86.37 94.85C86.37 90.16 90.16 86.37 94.85 86.37C99.54 86.37 103.33 90.16 103.33 94.85C103.33 99.54 99.54 103.33 94.85 103.33Z" />
	<path id="Layer" class="shp0" d="M145.74 103.33C141.05 103.33 137.26 99.54 137.26 94.85C137.26 90.16 141.05 86.37 145.74 86.37C150.43 86.37 154.22 90.16 154.22 94.85C154.22 99.54 150.43 103.33 145.74 103.33Z" />
	<path id="Layer" class="shp0" d="M442.59 289.93C442.59 291.04 442.37 292.14 441.95 293.17C441.52 294.2 440.89 295.13 440.11 295.92C439.32 296.71 438.38 297.33 437.36 297.76C436.33 298.19 435.23 298.41 434.11 298.41L425.63 298.41L425.63 315.37L434.11 315.37C437.45 315.37 440.76 314.71 443.84 313.43C446.93 312.15 449.73 310.27 452.1 307.91C454.46 305.55 456.33 302.74 457.61 299.66C458.89 296.57 459.55 293.27 459.56 289.93L459.56 281.44L442.59 281.44L442.59 289.93Z" />
	<path id="Layer" fill-rule="evenodd" class="shp0" d="M459.56 162.7C466.24 162.71 472.85 164.03 479.02 166.59C485.19 169.15 490.8 172.9 495.52 177.63C500.25 182.35 504 187.96 506.56 194.13C509.12 200.3 510.44 206.91 510.45 213.59L510.45 289.93C510.45 294.25 510.03 298.57 509.21 302.82C508.39 307.07 507.16 311.23 505.54 315.24C503.92 319.25 501.92 323.1 499.57 326.73C497.21 330.36 494.52 333.76 491.51 336.87L504.65 341.25C505.49 341.53 506.28 341.94 506.99 342.46C507.7 342.99 508.33 343.62 508.84 344.34C509.36 345.05 509.76 345.85 510.04 346.69C510.31 347.53 510.45 348.41 510.45 349.3L510.45 501.96C510.45 503.08 510.23 504.18 509.8 505.21C509.37 506.24 508.75 507.17 507.96 507.96C507.17 508.75 506.24 509.37 505.21 509.8C504.18 510.23 503.08 510.45 501.96 510.45L357.78 510.45C356.78 510.45 355.79 510.27 354.86 509.93C353.92 509.58 353.06 509.08 352.3 508.44C351.54 507.79 350.9 507.02 350.4 506.15C349.91 505.29 349.58 504.34 349.41 503.36L332.83 403.85L291.89 354.73C291.67 354.46 291.46 354.17 291.27 353.88C291.08 353.58 290.91 353.27 290.76 352.96C290.6 352.64 290.47 352.31 290.36 351.98C290.25 351.65 290.16 351.31 290.09 350.96L279.51 298.07L263.47 327.87C263.11 328.54 262.66 329.16 262.13 329.71C261.6 330.27 261 330.74 260.35 331.13C259.69 331.52 258.99 331.83 258.26 332.03C257.52 332.23 256.76 332.33 256 332.33L230.56 332.33L230.56 501.96C230.56 503.08 230.34 504.18 229.91 505.21C229.48 506.24 228.86 507.17 228.07 507.96C227.28 508.75 226.35 509.37 225.32 509.8C224.29 510.23 223.19 510.45 222.07 510.45L27 510.45C25.89 510.45 24.78 510.23 23.75 509.8C22.72 509.37 21.79 508.75 21 507.96C20.21 507.17 19.59 506.24 19.16 505.21C18.74 504.18 18.52 503.08 18.52 501.96L18.52 331.85L5.11 322.27C4.56 321.88 4.06 321.43 3.62 320.92C3.18 320.41 2.8 319.85 2.49 319.25C2.19 318.65 1.95 318.02 1.79 317.37C1.63 316.71 1.55 316.04 1.55 315.37L1.55 259C1.56 255.24 2.06 251.49 3.05 247.86C4.04 244.22 5.51 240.74 7.42 237.5C9.32 234.25 11.66 231.27 14.35 228.65C17.04 226.02 20.08 223.76 23.37 221.93L79.37 190.82L83.82 177.46C79.03 174.41 74.65 170.77 70.77 166.63C66.89 162.49 63.54 157.87 60.81 152.9C58.08 147.92 55.99 142.62 54.57 137.12C53.16 131.63 52.45 125.97 52.44 120.3L52.44 60.93C52.45 53.13 53.99 45.41 56.98 38.22C59.97 31.02 64.34 24.47 69.85 18.96C75.36 13.45 81.91 9.08 89.1 6.09C96.3 3.11 104.02 1.56 111.81 1.55L128.78 1.55C136.57 1.56 144.29 3.11 151.49 6.09C158.69 9.08 165.23 13.45 170.74 18.96C176.25 24.47 180.62 31.02 183.61 38.22C186.6 45.41 188.14 53.13 188.15 60.93L188.15 120.3C188.14 125.97 187.43 131.63 186.02 137.12C184.61 142.62 182.51 147.92 179.78 152.9C177.05 157.87 173.7 162.49 169.82 166.63C165.94 170.77 161.56 174.41 156.77 177.46L161.22 190.82L216.85 221.72L239.91 200.58L247.77 169.13C247.96 168.39 248.24 167.67 248.62 167.01C249 166.34 249.46 165.73 250 165.19C250.54 164.65 251.16 164.18 251.82 163.8C252.49 163.43 253.2 163.14 253.94 162.96L263.41 160.59L256.15 121.86C256.14 121.81 256.13 121.75 256.12 121.7L247.94 72.97C247.92 72.85 247.9 72.73 247.88 72.61C247.15 66.73 247.52 60.76 248.99 55.01C250.46 49.27 252.99 43.85 256.46 39.04C259.93 34.23 264.27 30.11 269.26 26.9C274.24 23.69 279.79 21.44 285.6 20.28L291.92 19.02C295.02 18.4 298.2 18.36 301.31 18.91C304.42 19.45 307.4 20.57 310.09 22.2C312.79 23.84 315.17 25.96 317.09 28.46C319.01 30.96 320.45 33.8 321.34 36.83C322.64 36.35 323.98 36.01 325.34 35.8C326.71 35.59 328.09 35.52 329.47 35.59C330.85 35.66 332.22 35.87 333.56 36.22C334.89 36.57 336.19 37.05 337.43 37.66C337.46 37.68 337.49 37.69 337.52 37.71C339.26 38.58 340.86 39.69 342.28 41.01C343.7 42.33 344.93 43.85 345.93 45.51C346.93 47.18 347.68 48.98 348.17 50.85C348.66 52.73 348.89 54.67 348.83 56.61C348.66 62.66 348.03 68.69 346.93 74.64C345.83 80.59 344.28 86.45 342.28 92.16C340.28 97.87 337.84 103.42 334.99 108.76C332.13 114.1 328.87 119.21 325.23 124.04L323.1 126.89L323.58 128.78L340.82 128.78C341.51 128.78 342.2 128.86 342.88 129.03C343.55 129.2 344.2 129.45 344.82 129.78C345.43 130.11 346 130.51 346.52 130.98C347.03 131.45 347.49 131.98 347.87 132.55L364.84 158C365.07 158.34 365.27 158.71 365.45 159.08C365.63 159.46 365.78 159.85 365.9 160.25C366.02 160.64 366.11 161.05 366.17 161.46C366.23 161.87 366.26 162.29 366.26 162.7L366.26 196.63C366.26 197.47 366.13 198.31 365.89 199.12C365.64 199.92 365.27 200.69 364.8 201.38C364.33 202.08 363.76 202.71 363.1 203.23C362.44 203.76 361.71 204.19 360.93 204.5L344.59 211.04L349.03 228.46L349.02 228.46C349.06 228.6 349.1 228.74 349.13 228.89L357.18 269.13L374.74 289.62L374.74 213.59C374.75 206.91 376.07 200.3 378.63 194.13C381.19 187.96 384.94 182.35 389.66 177.63C394.39 172.9 399.99 169.15 406.16 166.59C412.34 164.03 418.95 162.71 425.63 162.7L459.56 162.7ZM391.7 221.04C394.77 220.27 397.71 219.1 400.46 217.55C403.2 215.99 405.73 214.07 407.96 211.84C410.19 209.61 412.11 207.09 413.66 204.34C415.21 201.59 416.39 198.65 417.15 195.58L417.4 194.57C417.86 192.74 418.92 191.11 420.41 189.94C421.9 188.78 423.74 188.15 425.63 188.15C427.52 188.15 429.36 188.78 430.85 189.94C432.34 191.11 433.4 192.74 433.86 194.57C434.83 198.47 436.44 202.19 438.63 205.56C440.82 208.94 443.56 211.92 446.73 214.4C449.9 216.87 453.46 218.8 457.26 220.11C461.07 221.41 465.06 222.08 469.08 222.07L493.48 222.07L493.48 213.59C493.48 209.14 492.6 204.73 490.89 200.62C489.18 196.5 486.68 192.76 483.53 189.61C480.38 186.47 476.65 183.97 472.53 182.26C468.42 180.55 464.01 179.67 459.56 179.67L425.63 179.67C421.18 179.67 416.77 180.55 412.65 182.26C408.54 183.97 404.8 186.47 401.65 189.61C398.5 192.76 396 196.5 394.3 200.62C392.59 204.73 391.71 209.14 391.7 213.59L391.7 221.04ZM327.91 145.74L340.35 194.46L349.3 190.89L349.3 165.27L336.28 145.74L327.91 145.74ZM279.89 156.47L287.87 154.48C288.35 154.35 288.85 154.27 289.35 154.24C289.85 154.21 290.35 154.22 290.85 154.27C291.35 154.33 291.84 154.43 292.32 154.57C292.8 154.71 293.27 154.89 293.72 155.12L310.68 163.6C311.38 163.95 312.03 164.4 312.61 164.92C313.19 165.45 313.69 166.06 314.1 166.73C314.52 167.39 314.83 168.11 315.05 168.87C315.26 169.62 315.37 170.4 315.37 171.18L315.37 213.59C315.37 214.38 315.26 215.16 315.05 215.91C314.83 216.66 314.52 217.38 314.1 218.05C313.69 218.72 313.19 219.32 312.61 219.85C312.03 220.38 311.38 220.83 310.68 221.18L293.63 229.71L296.68 246.01L331 226.4L305.66 127.15C305.5 126.54 305.41 125.91 305.4 125.28C305.38 124.65 305.43 124.02 305.56 123.4C305.68 122.78 305.87 122.17 306.13 121.6C306.39 121.02 306.71 120.47 307.09 119.97L311.66 113.87C314.78 109.73 317.57 105.35 320.02 100.78C322.46 96.21 324.55 91.45 326.26 86.56C327.97 81.67 329.31 76.65 330.25 71.55C331.19 66.45 331.73 61.29 331.88 56.11C331.89 55.78 331.85 55.45 331.77 55.14C331.68 54.82 331.56 54.52 331.39 54.24C331.23 53.95 331.02 53.7 330.78 53.47C330.55 53.25 330.28 53.06 329.99 52.91L329.94 52.88C329.54 52.69 329.11 52.57 328.67 52.53C328.23 52.49 327.79 52.54 327.36 52.67C326.94 52.79 326.54 53 326.2 53.28C325.85 53.55 325.56 53.89 325.34 54.27L321.23 61.43C321.02 61.79 320.79 62.13 320.54 62.45C320.28 62.78 320 63.09 319.7 63.37C319.4 63.65 319.08 63.92 318.74 64.15C318.4 64.39 318.04 64.6 317.67 64.79C315.83 65.7 314.13 66.86 312.61 68.25C311.09 69.63 309.77 71.22 308.69 72.96C307.61 74.71 306.78 76.6 306.22 78.58C305.67 80.55 305.39 82.6 305.39 84.65L305.39 91.13L288.43 91.13L288.43 84.65C288.42 81.48 288.8 78.33 289.55 75.25C290.3 72.18 291.43 69.21 292.9 66.41C294.37 63.6 296.18 60.99 298.29 58.63C300.39 56.26 302.78 54.17 305.39 52.38L305.39 43.97C305.39 42.71 305.12 41.47 304.58 40.34C304.04 39.21 303.26 38.2 302.29 37.41C301.32 36.61 300.19 36.04 298.97 35.74C297.75 35.44 296.48 35.41 295.25 35.65L288.93 36.92C285.21 37.66 281.66 39.09 278.47 41.14C275.28 43.19 272.5 45.82 270.27 48.89C268.04 51.96 266.41 55.42 265.46 59.09C264.5 62.76 264.25 66.58 264.7 70.34L272.83 118.81L279.89 156.47ZM151.47 304.66C150.84 305.24 150.13 305.72 149.36 306.08C148.59 306.44 147.76 306.69 146.92 306.81C146.07 306.93 145.21 306.92 144.37 306.78C143.53 306.64 142.71 306.38 141.95 305.99L115.28 292.66L90.34 337.56L130.78 357.78L158.67 357.78L266.38 225.21C266.57 224.97 266.77 224.75 266.98 224.54C267.2 224.33 267.42 224.13 267.66 223.94C267.89 223.75 268.13 223.58 268.39 223.41C268.64 223.25 268.9 223.1 269.17 222.97L298.41 208.35L298.41 176.43L288.94 171.69L262.99 178.18L255.75 207.17C255.65 207.57 255.52 207.96 255.36 208.34C255.2 208.72 255.02 209.09 254.81 209.45C254.6 209.8 254.36 210.14 254.1 210.46C253.84 210.78 253.55 211.08 253.25 211.36L151.47 304.66ZM111.81 18.52C106.25 18.52 100.74 19.63 95.59 21.76C90.45 23.89 85.78 27.02 81.84 30.95C77.91 34.89 74.78 39.56 72.65 44.7C70.51 49.85 69.41 55.36 69.41 60.93L117.35 60.93C121.89 60.94 126.41 60.37 130.8 59.23C135.18 58.08 139.41 56.37 143.36 54.14C147.31 51.92 150.95 49.19 154.2 46.02C157.45 42.86 160.28 39.29 162.61 35.4C160.65 32.78 158.38 30.41 155.87 28.32C153.36 26.23 150.61 24.43 147.68 22.97C144.76 21.51 141.67 20.4 138.49 19.65C135.31 18.9 132.05 18.52 128.78 18.52L111.81 18.52ZM69.41 120.3C69.41 133.79 74.77 146.74 84.31 156.28C93.86 165.82 106.8 171.18 120.3 171.18C133.79 171.18 146.74 165.82 156.28 156.28C165.82 146.74 171.18 133.79 171.18 120.3L171.18 60.93C171.18 60.3 171.17 59.67 171.14 59.04C171.11 58.41 171.07 57.78 171.01 57.15C170.96 56.52 170.88 55.9 170.8 55.27C170.71 54.65 170.62 54.03 170.5 53.41C167.24 57.25 163.57 60.72 159.56 63.77C155.54 66.81 151.21 69.41 146.63 71.52C142.06 73.63 137.26 75.23 132.34 76.3C127.42 77.37 122.39 77.91 117.35 77.89L69.41 77.89L69.41 120.3ZM114.95 187.94C113.17 187.8 111.4 187.59 109.64 187.3C107.88 187.02 106.13 186.67 104.4 186.25C102.67 185.83 100.95 185.35 99.26 184.79L96.07 194.34L109.33 207.59C109.43 207.69 109.52 207.79 109.62 207.9C109.71 208 109.8 208.11 109.89 208.22C109.98 208.32 110.07 208.43 110.15 208.55C110.23 208.66 110.31 208.77 110.39 208.89L120.3 223.75L130.2 208.89C130.28 208.77 130.36 208.66 130.44 208.55C130.53 208.43 130.61 208.32 130.7 208.22C130.79 208.11 130.88 208 130.97 207.9C131.07 207.79 131.16 207.69 131.26 207.59L144.52 194.34L141.34 184.79C139.64 185.35 137.93 185.83 136.19 186.25C134.46 186.67 132.71 187.02 130.95 187.3C129.19 187.59 127.42 187.8 125.64 187.94C123.86 188.08 122.08 188.15 120.3 188.15C118.51 188.15 116.73 188.08 114.95 187.94ZM18.52 311.01L66.61 345.36L100.1 285.07L74.1 272.07L81.68 256.9L115.61 273.86L144.31 288.21L203.67 233.8L155.7 207.15L143.85 219L127.35 243.74C126.58 244.9 125.53 245.86 124.3 246.51C123.07 247.17 121.69 247.52 120.3 247.52C118.9 247.52 117.52 247.17 116.29 246.51C115.06 245.86 114.01 244.9 113.24 243.74L96.74 219L84.9 207.15L31.61 236.76C29.63 237.85 27.81 239.21 26.2 240.79C24.58 242.36 23.18 244.15 22.03 246.1C20.89 248.04 20.01 250.13 19.41 252.31C18.82 254.49 18.52 256.74 18.52 259L18.52 311.01ZM213.59 332.33L201.2 332.33L169.29 371.61C168.89 372.1 168.44 372.54 167.95 372.93C167.45 373.32 166.92 373.65 166.35 373.92C165.78 374.19 165.18 374.39 164.57 374.53C163.96 374.67 163.33 374.74 162.7 374.74L128.78 374.74C128.45 374.74 128.12 374.72 127.8 374.68C127.47 374.65 127.15 374.59 126.83 374.51C126.51 374.44 126.2 374.35 125.89 374.23C125.58 374.12 125.28 373.99 124.98 373.85L82.1 352.4L76.82 361.9C76.24 362.94 75.45 363.85 74.49 364.57C73.53 365.28 72.44 365.79 71.27 366.05C70.11 366.31 68.9 366.33 67.73 366.09C66.56 365.86 65.45 365.37 64.48 364.68L35.48 343.97L35.48 493.48L213.59 493.48L213.59 332.33ZM274.3 271.98L273.13 266.15C272.95 265.28 272.92 264.39 273.02 263.51C273.12 262.63 273.36 261.77 273.72 260.97C274.09 260.16 274.58 259.42 275.18 258.77C275.77 258.11 276.47 257.56 277.24 257.12L281.09 254.91L277.91 237.92L214.98 315.37L250.93 315.37L274.3 271.98ZM493.48 355.41L475.3 349.35C468.87 352.9 461.89 355.38 454.66 356.69C447.43 358 440.03 358.13 432.76 357.06C425.48 355.99 418.43 353.75 411.88 350.41C405.33 347.08 399.36 342.7 394.22 337.45L393.75 337.85L342.86 278.48C342.62 278.21 342.4 277.92 342.21 277.62C342.01 277.31 341.83 277 341.67 276.68C341.51 276.35 341.38 276.02 341.26 275.67C341.14 275.33 341.05 274.98 340.98 274.63L334.81 243.76L290.96 268.81L306.3 345.52L347.33 394.76C347.57 395.04 347.79 395.35 347.99 395.66C348.19 395.98 348.37 396.31 348.52 396.65C348.68 396.99 348.81 397.34 348.92 397.7C349.03 398.06 349.12 398.42 349.18 398.79L364.96 493.48L493.48 493.48L493.48 355.41ZM442.59 340.82C449.27 340.81 455.89 339.49 462.06 336.93C468.23 334.37 473.84 330.62 478.56 325.89C483.28 321.17 487.03 315.56 489.59 309.39C492.15 303.22 493.47 296.61 493.48 289.93L493.48 239.04L469.08 239.04C464.87 239.04 460.67 238.55 456.57 237.56C452.48 236.57 448.51 235.1 444.76 233.18C441.01 231.26 437.5 228.9 434.31 226.15C431.12 223.4 428.26 220.28 425.81 216.86C423.83 219.69 421.57 222.31 419.08 224.7C416.58 227.08 413.85 229.2 410.93 231.04C408 232.88 404.91 234.42 401.68 235.64C398.45 236.87 395.11 237.77 391.7 238.32L391.7 289.93C391.71 296.61 393.03 303.22 395.59 309.39C398.15 315.56 401.9 321.17 406.63 325.89C411.35 330.62 416.96 334.37 423.13 336.93C429.3 339.49 435.91 340.81 442.59 340.82Z" />
	<path id="Layer" class="shp0" d="M417.15 272.96C412.46 272.96 408.67 269.17 408.67 264.48C408.67 259.79 412.46 256 417.15 256C421.84 256 425.63 259.79 425.63 264.48C425.63 269.17 421.84 272.96 417.15 272.96Z" />
	<path id="Layer" class="shp0" d="M468.04 272.96C463.35 272.96 459.56 269.17 459.56 264.48C459.56 259.79 463.35 256 468.04 256C472.73 256 476.52 259.79 476.52 264.48C476.52 269.17 472.73 272.96 468.04 272.96Z" />
</svg>