<svg xmlns="http://www.w3.org/2000/svg" viewBox="0 0 512 512" width="512" height="512">
	<style>
		tspan { white-space:pre }
		.shp0 { fill: #cf5260 } 
	</style>
	<path id="Layer" fill-rule="evenodd" class="shp0" d="M507.52 297.17C510.27 298.58 512 301.42 512 304.51L512 472.04C512 475.13 510.27 477.97 507.51 479.38C504.76 480.79 501.44 480.54 498.93 478.74L384.3 396.53L74.32 396.53C33.27 396.53 0 363.26 0 322.21C0 281.16 33.27 247.89 74.32 247.89L437.68 247.89C469.6 247.89 495.48 222 495.48 190.08C495.48 158.15 469.6 132.27 437.68 132.27L127.7 132.27L13.07 214.48C10.56 216.29 7.24 216.53 4.49 215.12C1.73 213.71 0 210.87 0 207.78L0 40.25C0 37.16 1.73 34.32 4.49 32.91C7.24 31.5 10.56 31.74 13.07 33.55L127.7 115.76L437.68 115.76C478.73 115.76 512 149.03 512 190.08C512 231.13 478.73 264.4 437.68 264.4L74.32 264.4C42.4 264.4 16.52 290.28 16.52 322.21C16.52 354.13 42.4 380.02 74.32 380.02L384.3 380.02L498.93 297.81C501.44 296 504.76 295.75 507.52 297.17ZM110.87 124.02L16.52 56.35L16.52 191.68L110.87 124.02ZM495.48 320.61L401.13 388.27L495.48 455.94L495.48 320.61Z" />
	<path id="Layer" class="shp0" d="M33.03 157.05C37.59 157.05 41.29 153.35 41.29 148.79L41.29 107.5C41.29 102.94 37.59 99.24 33.03 99.24C28.47 99.24 24.77 102.94 24.77 107.5L24.77 148.79C24.77 153.35 28.47 157.05 33.03 157.05Z" />
	<path id="Layer" class="shp0" d="M478.97 413.05C483.53 413.05 487.23 409.35 487.23 404.79L487.23 363.5C487.23 358.94 483.53 355.24 478.97 355.24C474.41 355.24 470.71 358.94 470.71 363.5L470.71 404.79C470.71 409.35 474.41 413.05 478.97 413.05Z" />
</svg>