<?xml version="1.0"?>
<svg xmlns="http://www.w3.org/2000/svg" width="512px" height="512px" viewBox="0 0 128 128"><g><g><path d="M109.877,75.892h-8.248a6.749,6.749,0,0,0-5.936-9.962H48.735a6.758,6.758,0,0,0-6.75,6.75v3.212H40.4a8.157,8.157,0,1,0-13.376,0h-8.9a1.75,1.75,0,0,0-1.75,1.75v12.91a1.75,1.75,0,0,0,1.75,1.75h7.529l-5.4,17.047a1.749,1.749,0,0,0,1.668,2.278h4.625a1.751,1.751,0,0,0,1.613-1.071l7.471-17.77a6.746,6.746,0,0,0,12.138,3.843L50.983,92.3H92.169l7.675,18.254a1.751,1.751,0,0,0,1.613,1.071h4.625a1.749,1.749,0,0,0,1.668-2.278l-5.4-17.047h7.529a1.75,1.75,0,0,0,1.75-1.75V77.642A1.75,1.75,0,0,0,109.877,75.892Zm-80.82-4.658a4.658,4.658,0,1,1,4.657,4.658A4.663,4.663,0,0,1,29.057,71.234Zm-9.184,8.158H41.985v2.371l-5.009,6.751c-.07.093-.13.192-.2.288H19.873Zm5.507,28.735H24.309L29.324,92.3h2.71ZM44.962,94.532a3.25,3.25,0,0,1-4.551.64,3.258,3.258,0,0,1-.632-4.563l5.362-7.225a1.749,1.749,0,0,0,.344-1.043V72.68a3.254,3.254,0,0,1,3.25-3.25H95.693a3.242,3.242,0,0,1,.377,6.462H53.734a1.75,1.75,0,0,0-1.75,1.75l0,.024,0,.014v6.334a3.279,3.279,0,0,1-.661,1.965Zm58.729,13.6H102.62L95.966,92.3h2.71ZM108.127,88.8H53.586l.54-.727a6.791,6.791,0,0,0,1.359-4.061V79.392h52.642Z" data-original="#000000" class="active-path" data-old_color="#000000" fill="#CF5260"/><path d="M18.123,19.873H62.25v3.4H61.9a1.751,1.751,0,0,0-1.75,1.75V29.91H56.784a1.75,1.75,0,0,0-1.722,1.437L52.437,45.765h-.344a1.749,1.749,0,0,0-1.75,1.75v6.014a1.749,1.749,0,0,0,1.75,1.75h3.236a8.846,8.846,0,0,0,17.342,0h3.236a1.749,1.749,0,0,0,1.75-1.75V47.515a1.749,1.749,0,0,0-1.75-1.75h-.344L72.938,31.347a1.75,1.75,0,0,0-1.722-1.437H67.855V25.021a1.751,1.751,0,0,0-1.75-1.75H65.75v-3.4h44.127a1.75,1.75,0,0,0,0-3.5H18.123a1.75,1.75,0,0,0,0,3.5ZM64,58.875a5.338,5.338,0,0,1-5.028-3.6H69.028A5.338,5.338,0,0,1,64,58.875Zm10.157-7.1H53.843V49.265H74.157Zm-2.151-6.014H55.994l2.25-12.355H69.756ZM63.645,29.91V26.771h.71V29.91Z" data-original="#000000" class="active-path" data-old_color="#000000" fill="#CF5260"/></g></g> </svg>
