<svg xmlns="http://www.w3.org/2000/svg" viewBox="0 0 509 509" width="509" height="509">
	<style>
		tspan { white-space:pre }
		.shp0 { fill: #cf5260 } 
	</style>
	<path id="Layer" fill-rule="evenodd" class="shp0" d="M436.52 268.37C436.26 281.11 430.66 293.27 421.15 301.76L200.8 498.41C193.62 504.82 184.37 508.35 174.75 508.35L50.76 508.35C36.76 508.35 25.37 496.96 25.37 482.96L25.37 460.03C25.37 440.35 38.78 423.62 57.99 419.35L102.36 409.49C106.29 408.62 109.35 405.49 110.13 401.54L143.52 233.15C145.17 224.82 151.41 218.46 159.14 216.25L157.35 182.71C157.15 178.97 155.62 175.42 153.05 172.7L1.64 12.65C-1.21 9.65 -1.07 4.9 1.94 2.05C4.94 -0.79 9.69 -0.66 12.54 2.35L163.95 162.39C168.96 167.69 171.94 174.63 172.33 181.91L174.18 216.51C185.8 218.48 197.19 221.71 208.11 226.18L215.6 229.25C220.74 231.35 226.66 230.55 231.06 227.17L301.21 173.19L308.04 155.37L193.79 12.18C191.21 8.94 191.74 4.22 194.98 1.64C198.22 -0.95 202.94 -0.41 205.52 2.82L317.68 143.4C318.24 143.19 318.82 143.02 319.41 142.89C323.93 141.89 328.59 143.22 331.91 146.43L422.55 234.37C431.7 243.24 436.79 255.63 436.52 268.37ZM322.88 158.57L314.46 180.53C313.97 181.81 313.14 182.93 312.06 183.77L305.19 253.66C303.26 273.33 303.19 293.17 304.96 312.85L387.44 221.2L322.88 158.57ZM256.69 259.88C237.05 308.15 223.85 358.62 217.33 410.23L253.29 370.26C249.93 339.05 252.3 307.84 260.38 277.45L278.41 209.67L276.53 211.11L256.69 259.88ZM291.52 327.79C288.22 302.74 287.79 277.33 290.26 252.2L294.74 206.61L274.87 281.31C268.45 305.45 265.85 330.14 267.1 354.92L291.52 327.79ZM411.16 290.57C417.67 284.76 421.35 276.77 421.53 268.06C421.71 259.34 418.37 251.2 412.11 245.14L398.21 231.65L212.94 437.52L212.94 437.52L184.22 469.44C180.05 474.07 174.08 476.73 167.85 476.73L122.4 476.73C118.26 476.73 114.9 473.37 114.9 469.23C114.9 465.09 118.26 461.73 122.4 461.73L167.84 461.73C169.83 461.73 171.74 460.88 173.07 459.4L200.18 429.28C205.69 369.1 220.01 310.22 242.79 254.23L252.96 229.25L240.21 239.05C231.59 245.69 219.98 247.25 209.92 243.13L202.43 240.06C190.78 235.29 178.54 232.06 166.05 230.44C165.75 230.4 165.45 230.38 165.15 230.38C161.84 230.38 158.89 232.74 158.23 236.07L151.71 268.97L176.14 268.97C180.29 268.97 183.64 272.33 183.64 276.47C183.64 280.61 180.29 283.97 176.14 283.97L148.73 283.97L145.52 300.18L151.83 300.18C155.97 300.18 159.33 303.54 159.33 307.68C159.33 311.83 155.97 315.18 151.83 315.18L142.54 315.18L139.33 331.4L157.83 331.4C161.97 331.4 165.33 334.75 165.33 338.9C165.33 343.04 161.97 346.4 157.83 346.4L136.36 346.4L133.14 362.61L148.22 362.61C152.36 362.61 155.72 365.97 155.72 370.11C155.72 374.25 152.36 377.61 148.22 377.61L130.17 377.61L124.84 404.45C122.9 414.24 115.35 421.97 105.61 424.13L61.25 433.99C48.95 436.73 40.37 447.43 40.37 460.03L40.37 461.73L90.44 461.73C94.58 461.73 97.94 465.09 97.94 469.23C97.94 473.37 94.58 476.73 90.44 476.73L40.37 476.73L40.37 482.96C40.37 488.69 45.03 493.35 50.76 493.35L174.74 493.35C180.68 493.35 186.38 491.17 190.81 487.22L411.16 290.57Z" />
	<path id="Layer" class="shp0" d="M348.65 309.77L335.71 323.29C332.85 326.29 332.95 331.03 335.95 333.9C337.4 335.29 339.27 335.98 341.13 335.98C343.11 335.98 345.08 335.2 346.55 333.66L359.49 320.14C362.35 317.15 362.25 312.4 359.25 309.54C356.26 306.68 351.51 306.78 348.65 309.77Z" />
	<path id="Layer" class="shp0" d="M394.43 261.93L370.93 286.49C368.06 289.49 368.17 294.23 371.16 297.1C372.61 298.49 374.48 299.18 376.35 299.18C378.32 299.18 380.29 298.4 381.77 296.86L405.27 272.3C408.13 269.31 408.02 264.56 405.03 261.7C402.04 258.84 397.29 258.94 394.43 261.93Z" />
	<path id="Layer" class="shp0" d="M179.15 377.61L186.78 377.61C190.92 377.61 194.28 374.25 194.28 370.11C194.28 365.97 190.92 362.61 186.78 362.61L179.15 362.61C175 362.61 171.65 365.97 171.65 370.11C171.65 374.25 175 377.61 179.15 377.61Z" />
	<path id="Layer" class="shp0" d="M183.15 315.18L192.52 315.18C196.66 315.18 200.02 311.83 200.02 307.68C200.02 303.54 196.66 300.18 192.52 300.18L183.15 300.18C179 300.18 175.65 303.54 175.65 307.68C175.65 311.83 179 315.18 183.15 315.18Z" />
	<path id="Layer" class="shp0" d="M289.01 60.25L333.17 60.25C337.31 60.25 340.67 56.89 340.67 52.75C340.67 48.61 337.31 45.25 333.17 45.25L289.01 45.25C284.87 45.25 281.51 48.61 281.51 52.75C281.51 56.89 284.87 60.25 289.01 60.25Z" />
	<path id="Layer" class="shp0" d="M370.05 60.25L381.43 60.25C385.57 60.25 388.93 56.89 388.93 52.75C388.93 48.61 385.57 45.25 381.43 45.25L370.05 45.25C365.91 45.25 362.55 48.61 362.55 52.75C362.55 56.89 365.91 60.25 370.05 60.25Z" />
	<path id="Layer" class="shp0" d="M453.58 110.91C453.58 106.77 450.22 103.41 446.08 103.41L363.68 103.41C359.53 103.41 356.18 106.77 356.18 110.91C356.18 115.05 359.53 118.41 363.68 118.41L446.08 118.41C450.22 118.41 453.58 115.05 453.58 110.91Z" />
	<path id="Layer" class="shp0" d="M499.26 327.07L454.19 327.07C450.04 327.07 446.69 330.43 446.69 334.57C446.69 338.71 450.04 342.07 454.19 342.07L499.26 342.07C503.4 342.07 506.76 338.71 506.76 334.57C506.76 330.43 503.4 327.07 499.26 327.07Z" />
	<path id="Layer" class="shp0" d="M392.81 409.93L347.6 409.93C343.46 409.93 340.1 413.29 340.1 417.43C340.1 421.57 343.46 424.93 347.6 424.93L392.81 424.93C396.96 424.93 400.31 421.57 400.31 417.43C400.31 413.29 396.95 409.93 392.81 409.93Z" />
	<path id="Layer" class="shp0" d="M436.52 409.93L426.05 409.93C421.91 409.93 418.55 413.29 418.55 417.43C418.55 421.57 421.91 424.93 426.05 424.93L436.52 424.93C440.66 424.93 444.02 421.57 444.02 417.43C444.02 413.29 440.66 409.93 436.52 409.93Z" />
</svg>