<svg xmlns="http://www.w3.org/2000/svg" viewBox="0 0 509 509" width="509" height="509">
	<style>
		tspan { white-space:pre }
		.shp0 { fill: #ffffff } 
	</style>
	<path id="Layer" fill-rule="evenodd" class="shp0" d="M438.52 268.37C438.26 281.11 432.66 293.27 423.15 301.76L202.8 498.41C195.62 504.82 186.37 508.35 176.75 508.35L52.76 508.35C38.76 508.35 27.37 496.96 27.37 482.96L27.37 460.03C27.37 440.35 40.78 423.62 59.99 419.35L104.36 409.49C108.29 408.62 111.35 405.49 112.13 401.54L145.52 233.15C147.17 224.82 153.41 218.46 161.14 216.25L159.35 182.71C159.15 178.97 157.62 175.42 155.05 172.7L3.64 12.65C0.79 9.65 0.93 4.9 3.94 2.05C6.94 -0.79 11.69 -0.66 14.54 2.35L165.95 162.39C170.96 167.69 173.94 174.63 174.33 181.91L176.18 216.51C187.8 218.48 199.19 221.71 210.11 226.18L217.6 229.25C222.74 231.35 228.66 230.55 233.06 227.17L303.21 173.19L310.04 155.37L195.79 12.18C193.21 8.94 193.74 4.22 196.98 1.64C200.22 -0.95 204.94 -0.41 207.52 2.82L319.68 143.4C320.24 143.19 320.82 143.02 321.41 142.89C325.93 141.89 330.59 143.22 333.91 146.43L424.55 234.37C433.7 243.24 438.79 255.63 438.52 268.37ZM324.88 158.57L316.46 180.53C315.97 181.81 315.14 182.93 314.06 183.77L307.19 253.66C305.26 273.33 305.19 293.17 306.96 312.85L389.44 221.2L324.88 158.57ZM258.69 259.88C239.05 308.15 225.85 358.62 219.33 410.23L255.29 370.26C251.93 339.05 254.3 307.84 262.38 277.45L280.41 209.67L278.53 211.11L258.69 259.88ZM293.52 327.79C290.22 302.74 289.79 277.33 292.26 252.2L296.74 206.61L276.87 281.31C270.45 305.45 267.85 330.14 269.1 354.92L293.52 327.79ZM413.16 290.57C419.67 284.76 423.35 276.77 423.53 268.06C423.71 259.34 420.37 251.2 414.11 245.14L400.21 231.65L214.94 437.52L214.94 437.52L186.22 469.44C182.05 474.07 176.08 476.73 169.85 476.73L124.4 476.73C120.26 476.73 116.9 473.37 116.9 469.23C116.9 465.09 120.26 461.73 124.4 461.73L169.84 461.73C171.83 461.73 173.74 460.88 175.07 459.4L202.18 429.28C207.69 369.1 222.01 310.22 244.79 254.23L254.96 229.25L242.21 239.05C233.59 245.69 221.98 247.25 211.92 243.13L204.43 240.06C192.78 235.29 180.54 232.06 168.05 230.44C167.75 230.4 167.45 230.38 167.15 230.38C163.84 230.38 160.89 232.74 160.23 236.07L153.71 268.97L178.14 268.97C182.29 268.97 185.64 272.33 185.64 276.47C185.64 280.61 182.29 283.97 178.14 283.97L150.73 283.97L147.52 300.18L153.83 300.18C157.97 300.18 161.33 303.54 161.33 307.68C161.33 311.83 157.97 315.18 153.83 315.18L144.54 315.18L141.33 331.4L159.83 331.4C163.97 331.4 167.33 334.75 167.33 338.9C167.33 343.04 163.97 346.4 159.83 346.4L138.36 346.4L135.14 362.61L150.22 362.61C154.36 362.61 157.72 365.97 157.72 370.11C157.72 374.25 154.36 377.61 150.22 377.61L132.17 377.61L126.84 404.45C124.9 414.24 117.35 421.97 107.61 424.13L63.25 433.99C50.95 436.73 42.37 447.43 42.37 460.03L42.37 461.73L92.44 461.73C96.58 461.73 99.94 465.09 99.94 469.23C99.94 473.37 96.58 476.73 92.44 476.73L42.37 476.73L42.37 482.96C42.37 488.69 47.03 493.35 52.76 493.35L176.74 493.35C182.68 493.35 188.38 491.17 192.81 487.22L413.16 290.57Z" />
	<path id="Layer" class="shp0" d="M348.65 309.77L335.71 323.29C332.85 326.29 332.95 331.03 335.95 333.9C337.4 335.29 339.27 335.98 341.13 335.98C343.11 335.98 345.08 335.2 346.55 333.66L359.49 320.14C362.35 317.15 362.25 312.4 359.25 309.54C356.26 306.68 351.51 306.78 348.65 309.77Z" />
	<path id="Layer" class="shp0" d="M394.43 261.93L370.93 286.49C368.06 289.49 368.17 294.23 371.16 297.1C372.61 298.49 374.48 299.18 376.35 299.18C378.32 299.18 380.29 298.4 381.77 296.86L405.27 272.3C408.13 269.31 408.02 264.56 405.03 261.7C402.04 258.84 397.29 258.94 394.43 261.93Z" />
	<path id="Layer" class="shp0" d="M179.15 377.61L186.78 377.61C190.92 377.61 194.28 374.25 194.28 370.11C194.28 365.97 190.92 362.61 186.78 362.61L179.15 362.61C175 362.61 171.65 365.97 171.65 370.11C171.65 374.25 175 377.61 179.15 377.61Z" />
	<path id="Layer" class="shp0" d="M183.15 315.18L192.52 315.18C196.66 315.18 200.02 311.83 200.02 307.68C200.02 303.54 196.66 300.18 192.52 300.18L183.15 300.18C179 300.18 175.65 303.54 175.65 307.68C175.65 311.83 179 315.18 183.15 315.18Z" />
	<path id="Layer" class="shp0" d="M289.01 60.25L333.17 60.25C337.31 60.25 340.67 56.89 340.67 52.75C340.67 48.61 337.31 45.25 333.17 45.25L289.01 45.25C284.87 45.25 281.51 48.61 281.51 52.75C281.51 56.89 284.87 60.25 289.01 60.25Z" />
	<path id="Layer" class="shp0" d="M370.05 60.25L381.43 60.25C385.57 60.25 388.93 56.89 388.93 52.75C388.93 48.61 385.57 45.25 381.43 45.25L370.05 45.25C365.91 45.25 362.55 48.61 362.55 52.75C362.55 56.89 365.91 60.25 370.05 60.25Z" />
	<path id="Layer" class="shp0" d="M453.58 110.91C453.58 106.77 450.22 103.41 446.08 103.41L363.68 103.41C359.53 103.41 356.18 106.77 356.18 110.91C356.18 115.05 359.53 118.41 363.68 118.41L446.08 118.41C450.22 118.41 453.58 115.05 453.58 110.91Z" />
	<path id="Layer" class="shp0" d="M499.26 327.07L454.19 327.07C450.04 327.07 446.69 330.43 446.69 334.57C446.69 338.71 450.04 342.07 454.19 342.07L499.26 342.07C503.4 342.07 506.76 338.71 506.76 334.57C506.76 330.43 503.4 327.07 499.26 327.07Z" />
	<path id="Layer" class="shp0" d="M392.81 409.93L347.6 409.93C343.46 409.93 340.1 413.29 340.1 417.43C340.1 421.57 343.46 424.93 347.6 424.93L392.81 424.93C396.96 424.93 400.31 421.57 400.31 417.43C400.31 413.29 396.95 409.93 392.81 409.93Z" />
	<path id="Layer" class="shp0" d="M436.52 409.93L426.05 409.93C421.91 409.93 418.55 413.29 418.55 417.43C418.55 421.57 421.91 424.93 426.05 424.93L436.52 424.93C440.66 424.93 444.02 421.57 444.02 417.43C444.02 413.29 440.66 409.93 436.52 409.93Z" />
</svg>