<?xml version="1.0" encoding="utf-8"?>
<!-- Generator: Adobe Illustrator 24.3.0, SVG Export Plug-In . SVG Version: 6.00 Build 0)  -->
<svg version="1.1" id="Layer_1" xmlns="http://www.w3.org/2000/svg" xmlns:xlink="http://www.w3.org/1999/xlink" x="0px" y="0px"
	 viewBox="0 0 120 120" style="enable-background:new 0 0 120 120;" xml:space="preserve">
<style type="text/css">
	.st0{fill:url(#SVGID_1_);}
	.st1{fill:#FFFFFF;}
</style>
<linearGradient id="SVGID_1_" gradientUnits="userSpaceOnUse" x1="99.343" y1="20.8209" x2="20.9848" y2="99.1791">
	<stop  offset="0" style="stop-color:#00CCFF"/>
	<stop  offset="1" style="stop-color:#0080FF"/>
</linearGradient>
<circle class="st0" cx="60.16" cy="60" r="55.41"/>
<path class="st1" d="M90.78,41.02c-1.92,0.87-4.04,1.39-6.11,1.74c0.98-0.17,2.43-1.94,3.01-2.66c0.88-1.1,1.62-2.35,2.03-3.7
	c0.05-0.11,0.09-0.24-0.01-0.32c-0.13-0.05-0.22-0.03-0.32,0.03c-2.31,1.24-4.7,2.14-7.25,2.77c-0.21,0.05-0.37,0-0.5-0.13
	c-0.21-0.24-0.41-0.46-0.63-0.65c-1.07-0.91-2.22-1.62-3.51-2.15c-1.7-0.69-3.55-0.99-5.38-0.87c-1.78,0.12-3.53,0.62-5.11,1.44
	c-1.58,0.83-3,1.98-4.12,3.37c-1.16,1.44-2.02,3.13-2.46,4.93c-0.42,1.73-0.39,3.45-0.13,5.2c0.04,0.29,0.01,0.33-0.25,0.29
	c-9.95-1.48-18.2-5.04-24.9-12.67c-0.29-0.33-0.45-0.33-0.69,0.03c-2.93,4.39-1.51,11.45,2.15,14.92c0.49,0.46,0.99,0.92,1.53,1.35
	c-0.2,0.04-2.63-0.22-4.8-1.35c-0.29-0.18-0.44-0.08-0.46,0.25c-0.03,0.47,0.01,0.91,0.08,1.43c0.56,4.45,3.65,8.57,7.87,10.18
	c0.5,0.21,1.06,0.4,1.6,0.49c-0.96,0.21-1.95,0.36-4.71,0.15c-0.34-0.07-0.47,0.11-0.34,0.44c2.07,5.65,6.55,7.33,9.9,8.29
	c0.45,0.08,0.9,0.08,1.35,0.18c-0.03,0.04-0.05,0.04-0.08,0.08c-1.11,1.7-4.97,2.96-6.76,3.58c-3.26,1.14-6.82,1.65-10.27,1.31
	c-0.55-0.08-0.67-0.08-0.82,0c-0.15,0.09-0.02,0.23,0.16,0.37c0.7,0.46,1.41,0.87,2.14,1.27c2.19,1.16,4.48,2.09,6.86,2.75
	c12.34,3.41,26.23,0.9,35.49-8.3c7.27-7.23,9.82-17.19,9.82-27.17c0-0.39,0.46-0.61,0.74-0.81c1.89-1.42,3.42-3.12,4.83-5.02
	c0.32-0.43,0.32-0.81,0.32-0.96c0-0.03,0-0.05,0-0.05C91.03,40.86,91.02,40.9,90.78,41.02z"/>
</svg>
