<svg id="Layer_1" data-name="Layer 1" xmlns="http://www.w3.org/2000/svg" viewBox="0 0 512 320" fill="#cf5260"><title>gym2</title><path d="M909,334H899V289a40,40,0,0,0-61-34,40.06,40.06,0,0,0-39-31h0a40,40,0,0,0-40,40v70H607V264a40,40,0,0,0-79-9,40,40,0,0,0-61,34v45H457a30,30,0,0,0-30,30v40a30,30,0,0,0,30,30h10v45a40,40,0,0,0,61,34,40.06,40.06,0,0,0,39,31h0a40,40,0,0,0,40-40V434H759v70a40,40,0,0,0,79,9,40,40,0,0,0,61-34V434h10a30,30,0,0,0,30-30V364a30,30,0,0,0-30-30ZM467,414H457a10,10,0,0,1-10-10V364a10,10,0,0,1,10-10h10Zm60,65a20,20,0,0,1-40,0V289a20,20,0,0,1,40,0Zm60,25a20,20,0,0,1-20,20h0a20,20,0,0,1-20-20V264a20,20,0,0,1,40,0ZM758.93,374H689a10,10,0,0,0,0,20h69.93v20H607V354h152ZM819,504a20,20,0,0,1-40,0V384.51c0,.22,0,.44-.06.65v-2.32c0,.21.05.43.06.65V264a20,20,0,0,1,20-20h0a20,20,0,0,1,20,20Zm60-25a20,20,0,0,1-40,0V289a20,20,0,0,1,40,0Zm40-75a10,10,0,0,1-10,10H899V354h10a10,10,0,0,1,10,10Zm0,0" transform="translate(-427 -224)"/><path d="M649,394a10,10,0,0,1,0-20h0a10,10,0,0,1,0,20Zm0,0" transform="translate(-427 -224)"/></svg>