<svg id="Layer_1" data-name="Layer 1" xmlns="http://www.w3.org/2000/svg" xmlns:xlink="http://www.w3.org/1999/xlink" viewBox="0 0 418.7 477" fill="#cf5260"><defs><style>.cls-1{fill:none;}.cls-2{clip-path:url(#clip-path);}</style><clipPath id="clip-path" transform="translate(-473.63 -146)"><rect class="cls-1" x="473" y="146" width="420" height="477"/></clipPath></defs><title>zen</title><g class="cls-2"><path d="M872.24,536.09l18.37-23.33a8,8,0,0,0-4.13-12.64l-28.58-8a56.34,56.34,0,0,0-32.21.66,56.15,56.15,0,0,0-9.4-31l-16.46-24.69a7.17,7.17,0,0,0-6.65-3.55,7.93,7.93,0,0,0-4.79,1.66,70.62,70.62,0,0,0-34.22-13.75l-24.62-2.9,16.52-4.13a41.18,41.18,0,0,0,16.37-71.57,140.63,140.63,0,0,0-73.23-31.63l9-1.36a40.47,40.47,0,0,0,12-76.2l-2.77-1.37a185.15,185.15,0,0,0-60-18.16l-22.31-2.78a86.4,86.4,0,0,0-25,.5,69.51,69.51,0,0,0-54.62,46.68l-.79,2.39a40.66,40.66,0,0,0,0,25.57l4,12a40,40,0,0,0,12.26,18l-5.53,1a41,41,0,0,0-33.49,35.4l-1.9,15a41.36,41.36,0,0,0,24.64,42.95l20.9,9-20.72,2.4a70.81,70.81,0,0,0-50.76,31.16l-8.56,12.77a71,71,0,0,0,0,78.7l6,8.94a70.83,70.83,0,0,0,59,31.62H730L728.8,614.7a8,8,0,0,0,10.75,7.81l27.87-10.3a55.65,55.65,0,0,0,25.84-19.59c.66.92,1.17,1.88,1.89,2.77a57.08,57.08,0,0,0,23.79,16.78l27.81,10.31a8,8,0,0,0,10.76-7.81L856.31,585a55.78,55.78,0,0,0-10.6-30.49,55.9,55.9,0,0,0,26.53-18.38ZM559.8,281.56a24.74,24.74,0,0,1,0-15.5l.8-2.39a53.54,53.54,0,0,1,42.1-36,70.45,70.45,0,0,1,20.4-.42l22.32,2.79a168.83,168.83,0,0,1,54.85,16.57L703,248a24.49,24.49,0,0,1-7.19,46.1l-76.27,11.72L590.48,310a24.39,24.39,0,0,1-26.69-16.5Zm-8.86,114.58a25.28,25.28,0,0,1-15.08-26.28l1.87-15a25.1,25.1,0,0,1,20.49-21.66l59.69-10.85a25.41,25.41,0,0,1,4.52-.41,15.66,15.66,0,0,1,1.93.08l57.06,4.39a124.83,124.83,0,0,1,70.79,28.76,25.19,25.19,0,0,1-10,43.79l-39.58,9.88a25.19,25.19,0,0,1-6.11.76H587.57a25.06,25.06,0,0,1-9.92-2Zm187.8,161.09A57,57,0,0,0,733,569.41H550.56a54.9,54.9,0,0,1-45.77-24.5l-6-8.93a55,55,0,0,1,0-61l8.55-12.79a54.91,54.91,0,0,1,39.35-24.14l85-10a182.6,182.6,0,0,1,41.93,0l78.71,9.27a54.51,54.51,0,0,1,26.74,11l-9,13.49a56.41,56.41,0,0,0-9.41,30.86,55.48,55.48,0,0,0-32.28-.61l-28.6,8a8,8,0,0,0-4.12,12.64l18.49,23.4A56.47,56.47,0,0,0,740.8,554.5c-.67,1-1.44,1.77-2.06,2.73Zm33-39.75a41.89,41.89,0,0,1,7.64,10.43l1.72,3.4-3.74.59a53.93,53.93,0,0,0-17,5.59,53.14,53.14,0,0,0-6,3.69,40.41,40.41,0,0,1-27.6-15l-11-13.91,17-4.79a39.46,39.46,0,0,1,33.38,5.41,33.36,33.36,0,0,1,5.64,4.55Zm-9.83,79.77-16.65,6.15.73-17.84a29,29,0,0,1,.88-6.49,40,40,0,0,1,14.64-23.44,37.47,37.47,0,0,1,6.18-4,39.2,39.2,0,0,1,12.15-4l3.76-.59-.6,3.75a54.54,54.54,0,0,0,0,17.39l0,.26,0,.31a54.37,54.37,0,0,0,1.6,6.64,39.66,39.66,0,0,1-22.74,21.82Zm33.43-73.2-1.75-3.43A58,58,0,0,0,783,506.19a47.68,47.68,0,0,0-5.48-4.66,40.25,40.25,0,0,1,5.84-30.81L793.16,456,803,470.69A40.15,40.15,0,0,1,809.72,493a37.49,37.49,0,0,1-.4,5.5,40.63,40.63,0,0,1-1.22,5.65,38.71,38.71,0,0,1-2.63,6.8A42.38,42.38,0,0,1,798,521.34Zm29.17,73.2a40.89,40.89,0,0,1-17-12,39.62,39.62,0,0,1-6.81-12.12,35.25,35.25,0,0,1-1.77-6.93V566l0-.28a38.76,38.76,0,0,1,0-12.35l.6-3.77,3.28,1.67a47.63,47.63,0,0,0,4.89,2.19,55.55,55.55,0,0,0,12.4,3.38,65.46,65.46,0,0,0,7,.58,40,40,0,0,1,13.42,28.25l.72,17.75Zm5.09-55.85a10.41,10.41,0,0,0-1.48.07,44.83,44.83,0,0,1-5.9-.47,39.25,39.25,0,0,1-8.78-2.4,32.06,32.06,0,0,1-3.44-1.52l-3.38-1.73,2.75-2.73a58.81,58.81,0,0,0,10.39-14.49,56.07,56.07,0,0,0,2.67-6.47,40.23,40.23,0,0,1,31.16-4.11l17.05,4.8-10.94,13.89a40.16,40.16,0,0,1-30.07,15.14Zm0,0" transform="translate(-473.63 -146)"/></g><path d="M660.65,193.93V162a8,8,0,0,0-16,0v32a8,8,0,0,0,16,0Zm0,0" transform="translate(-473.63 -146)"/><path d="M692.6,201.92a8,8,0,0,0,16,0v-8a8,8,0,0,0-16,0Zm0,0" transform="translate(-473.63 -146)"/><path d="M700.59,178a8,8,0,0,0,8-8V154a8,8,0,0,0-16,0v16a8,8,0,0,0,8,8Zm0,0" transform="translate(-473.63 -146)"/><path d="M508.86,305.78a8,8,0,0,0,16,0v-8a8,8,0,0,0-16,0Zm0,0" transform="translate(-473.63 -146)"/><path d="M516.85,281.81a8,8,0,0,0,8-8v-16a8,8,0,0,0-16,0v16a8,8,0,0,0,8,8Zm0,0" transform="translate(-473.63 -146)"/><path d="M596.74,193.93a8,8,0,1,0,16,0v-8a8,8,0,1,0-16,0Zm0,0" transform="translate(-473.63 -146)"/><path d="M604.73,170a8,8,0,0,0,8-8v-8a8,8,0,1,0-16,0v8a8,8,0,0,0,8,8Zm0,0" transform="translate(-473.63 -146)"/><path d="M756.51,265.83a8,8,0,0,0,16,0v-32a8,8,0,0,0-16,0Zm0,0" transform="translate(-473.63 -146)"/><path d="M764.5,217.9a8,8,0,0,0,8-8V186a8,8,0,0,0-16,0v24a8,8,0,0,0,8,8Zm0,0" transform="translate(-473.63 -146)"/><path d="M756.51,305.78a8,8,0,0,0,16,0v-8a8,8,0,1,0-16,0Zm0,0" transform="translate(-473.63 -146)"/><path d="M820.42,353.71a8,8,0,1,0-16,0v8a8,8,0,1,0,16,0Zm0,0" transform="translate(-473.63 -146)"/><path d="M820.42,305.78a8,8,0,1,0-16,0v24a8,8,0,1,0,16,0Zm0,0" transform="translate(-473.63 -146)"/><path d="M812.43,385.66a8,8,0,0,0-8,8v8a8,8,0,1,0,16,0v-8a8,8,0,0,0-8-8Zm0,0" transform="translate(-473.63 -146)"/><path d="M648.47,377.68h23.91a42,42,0,0,0,10.29-1.28l27.85-6.95a8,8,0,0,0-3.88-15.5l-27.85,7a26,26,0,0,1-6.39.8H648.47a8,8,0,1,0,0,16Zm0,0" transform="translate(-473.63 -146)"/><path d="M596.74,377.68a8,8,0,0,0,0-16H592a39.89,39.89,0,0,1-17.71-4.18l-5.93-3a8,8,0,0,0-7.14,14.3l5.93,3A56.11,56.11,0,0,0,592,377.68Zm0,0" transform="translate(-473.63 -146)"/><path d="M565.88,533.46l-5.21-.73a69.83,69.83,0,0,1-37-17.19l-5.35,5.92-5,6.26a85.41,85.41,0,0,0,45.11,20.83l5.22.72a6.91,6.91,0,0,0,1.11.08,8,8,0,0,0,1.09-15.89Zm0,0" transform="translate(-473.63 -146)"/><path d="M636.68,537.45H596.74a8,8,0,0,0,0,16h39.94a8,8,0,0,0,0-16Zm0,0" transform="translate(-473.63 -146)"/><path d="M692.6,537.45h-24a8,8,0,0,0,0,16h24a8,8,0,1,0,0-16Zm0,0" transform="translate(-473.63 -146)"/><path d="M588.75,281.81h16.78A58,58,0,0,0,637.79,272l11.33-7.55a8,8,0,1,0-8.87-13.29l-11.32,7.54a42,42,0,0,1-23.4,7.09H588.75a8,8,0,0,0,0,16Zm0,0" transform="translate(-473.63 -146)"/></svg>