<svg id="Layer_1" data-name="Layer 1" xmlns="http://www.w3.org/2000/svg" xmlns:xlink="http://www.w3.org/1999/xlink" viewBox="0 0 334.38 359.33" fill="#cf5260"><defs><style>.cls-1{fill:none;}.cls-2{clip-path:url(#clip-path);}</style><clipPath id="clip-path" transform="translate(-515 -205)"><rect class="cls-1" x="515" y="205" width="334.8" height="360"/></clipPath></defs><title>strong</title><g class="cls-2"><path d="M848.54,404.91l-21.91-44a8,8,0,0,0-10.3-3.79l-22.28,9.52a15.88,15.88,0,0,0-29.89,3.91c-.86,4.47-1.44,9.39-2,14.15-1,9-2.21,19.11-5.39,24.19-3.52,5.64-5,12.42-5.33,19.15-12.85,13.32-35.21,18-47.16,16.24-5.52-.84-12.92-2.37-20.74-4-5.89-1.21-12.22-2.52-18.69-3.74a83.5,83.5,0,0,0-1.08-85.43l-5.23-8.52,1.36-2.21a113.18,113.18,0,0,0,15.36-80.67,35.42,35.42,0,0,0-1.07-4.13,71.65,71.65,0,0,0-65-49.91l-13.81-.64a71.71,71.71,0,0,0-69.22,43.34,98.65,98.65,0,0,0,5,87.2c-6.89,12.32-14.38,32.33-15.94,62.53-2.12,41.09,7.31,90.16,28,145.83a5.73,5.73,0,0,0,.25.62c3.88,8.24,11,14,21.22,17.09A70.4,70.4,0,0,0,585,564.33c15.68,0,32.62-3.67,45.87-7.43a297.65,297.65,0,0,0,69-29.56c46.39-27.82,108.29-61.63,108.91-62a8,8,0,0,0,2.63-2.31l36.4-49.87a8,8,0,0,0,.7-8.29Zm-49,47.29c-10,5.47-65.39,35.92-107.91,61.42C654.32,536,596.3,554.55,569.44,546.38c-5.64-1.72-9.33-4.44-11.26-8.33C518.92,432.35,530.35,375.64,541.91,350c1.6,2,3.16,4.07,4.63,6.18a8,8,0,1,0,13.1-9.19c-2.55-3.64-5.3-7.2-8.18-10.58a57.34,57.34,0,0,1-5-6.44,82.51,82.51,0,0,1-5.54-75.29,55.65,55.65,0,0,1,53.73-33.6l13.82.65a55.6,55.6,0,0,1,50.45,38.68,20.68,20.68,0,0,1,.61,2.27,97.25,97.25,0,0,1-13.2,69.3c-5.34,8.55-10.18,16.65-14.4,24.08a8,8,0,1,0,13.92,7.89q1.62-2.87,3.39-5.87l.9,1.47a67.46,67.46,0,0,1-2.47,74.2A159,159,0,0,0,622,431.89a8,8,0,1,0,.42,16c16.54-.45,39.47,4.3,57.89,8.11,8.39,1.74,15.64,3.24,21.59,4.14a51.3,51.3,0,0,0,7.56.52c12.65,0,29.65-3.81,43.57-13.18A97.38,97.38,0,0,0,756,459,8,8,0,0,0,771.15,454a89.18,89.18,0,0,1-3.22-14.78c-1.23-9.58-.37-17.3,2.42-21.76,5.08-8.14,6.42-19.67,7.72-30.82.51-4.47,1-8.7,1.7-12.46,6.16,21.58.51,48.38.45,48.65a8,8,0,0,0,15.63,3.39c.09-.4.78-3.65,1.45-8.71l15.16-11.58a8,8,0,1,0-9.7-12.71l-4.12,3.14a115.84,115.84,0,0,0-.92-13.8l18-7.67,16.37,32.86Zm0,0" transform="translate(-515 -205)"/></g></svg>