<svg xmlns="http://www.w3.org/2000/svg" viewBox="0 0 244 384" width="244" height="384">
	<style>
		tspan { white-space:pre }
		.shp0 { fill: #ffffff } 
	</style>
	<g id="Layer">
		<path id="Layer" fill-rule="evenodd" class="shp0" d="M177.07 83.2C182.39 83.21 187.66 84.26 192.57 86.3C197.49 88.34 201.95 91.32 205.71 95.09C209.48 98.85 212.46 103.31 214.5 108.23C216.54 113.14 217.59 118.41 217.6 123.73L217.6 128L230.4 128C232.08 128 233.75 128.33 235.3 128.97C236.85 129.62 238.26 130.56 239.45 131.75C240.64 132.94 241.58 134.35 242.23 135.9C242.87 137.45 243.2 139.12 243.2 140.8L243.2 166.4C243.2 168.08 242.87 169.75 242.23 171.3C241.58 172.85 240.64 174.26 239.45 175.45C238.26 176.64 236.85 177.58 235.3 178.23C233.75 178.87 232.08 179.2 230.4 179.2L217.6 179.2L217.6 192L228.96 192C230.83 192 232.68 192.37 234.41 193.09C236.13 193.81 237.7 194.85 239.02 196.18C240.35 197.5 241.39 199.07 242.11 200.79C242.83 202.52 243.2 204.37 243.2 206.24L243.2 248.16C243.2 250.03 242.83 251.88 242.11 253.61C241.39 255.33 240.35 256.9 239.02 258.22C237.7 259.55 236.13 260.59 234.41 261.31C232.68 262.03 230.83 262.4 228.96 262.4L217.49 262.4C217.22 267.53 215.97 272.56 213.82 277.23C211.67 281.9 208.65 286.11 204.93 289.65C201.2 293.19 196.84 295.99 192.07 297.9C187.3 299.81 182.21 300.79 177.07 300.8L171.23 300.8L151.46 370.08C150.89 372.07 150 373.96 148.83 375.66C147.66 377.37 146.22 378.88 144.57 380.13C142.92 381.37 141.07 382.35 139.11 383C137.15 383.66 135.09 384 133.02 384L89.94 384C87.97 384 86.02 383.69 84.14 383.09C82.27 382.49 80.5 381.61 78.89 380.47C77.29 379.33 75.87 377.95 74.69 376.37C73.5 374.8 72.57 373.06 71.92 371.2L46.76 300.8L40.57 300.8C35.25 300.79 29.98 299.74 25.07 297.7C20.16 295.66 15.69 292.67 11.93 288.91C8.17 285.15 5.18 280.68 3.14 275.77C1.1 270.86 0.05 265.59 0.04 260.27L0.04 123.73C0.05 118.41 1.1 113.14 3.14 108.22C5.18 103.3 8.17 98.84 11.94 95.07C15.7 91.31 20.17 88.33 25.09 86.29C30.01 84.25 35.28 83.2 40.6 83.2L46.72 83.2L71.87 12.76C72.53 10.9 73.46 9.16 74.65 7.59C75.84 6.02 77.26 4.65 78.87 3.51C80.47 2.37 82.24 1.49 84.12 0.9C86 0.3 87.95 0 89.92 0L132.99 0C135.07 0 137.13 0.34 139.1 1.01C141.06 1.67 142.91 2.65 144.56 3.9C146.22 5.16 147.66 6.68 148.83 8.39C149.99 10.11 150.88 12 151.44 14L171.23 83.2L177.07 83.2ZM60.28 83.17L157.91 83.17L139.12 17.41C138.94 16.75 138.64 16.12 138.25 15.54C137.87 14.97 137.39 14.47 136.84 14.05C136.29 13.64 135.67 13.31 135.02 13.1C134.37 12.88 133.68 12.77 132.99 12.77L89.92 12.77C89.27 12.76 88.61 12.86 87.99 13.05C87.36 13.25 86.77 13.54 86.24 13.92C85.7 14.29 85.23 14.75 84.84 15.28C84.44 15.8 84.13 16.38 83.92 17L60.28 83.17ZM157.91 300.8L60.28 300.8L83.92 366.9C84.13 367.52 84.44 368.11 84.83 368.63C85.22 369.16 85.69 369.62 86.23 370C86.77 370.39 87.36 370.68 87.98 370.88C88.61 371.08 89.26 371.17 89.92 371.17L132.99 371.17C133.68 371.17 134.36 371.06 135.01 370.85C135.66 370.63 136.28 370.31 136.83 369.9C137.38 369.48 137.85 368.99 138.24 368.42C138.63 367.86 138.93 367.23 139.12 366.57L157.91 300.8ZM204.8 123.73C204.8 120.09 204.08 116.49 202.68 113.12C201.29 109.76 199.24 106.7 196.67 104.13C194.1 101.56 191.04 99.51 187.68 98.12C184.31 96.72 180.71 96 177.07 96L40.53 96C36.89 96 33.29 96.72 29.92 98.12C26.56 99.51 23.5 101.56 20.93 104.13C18.36 106.7 16.31 109.76 14.92 113.12C13.52 116.49 12.8 120.09 12.8 123.73L12.8 260.27C12.8 263.91 13.52 267.51 14.92 270.88C16.31 274.24 18.36 277.3 20.93 279.87C23.5 282.44 26.56 284.49 29.92 285.88C33.29 287.28 36.89 288 40.53 288L177.07 288C180.71 288 184.31 287.28 187.68 285.88C191.04 284.49 194.1 282.44 196.67 279.87C199.24 277.3 201.29 274.24 202.68 270.88C204.08 267.51 204.8 263.91 204.8 260.27L204.8 123.73ZM217.6 204.8L217.6 249.6L228.96 249.6C229.15 249.6 229.34 249.56 229.51 249.49C229.69 249.42 229.85 249.32 229.98 249.18C230.12 249.05 230.22 248.89 230.29 248.71C230.36 248.54 230.4 248.35 230.4 248.16L230.4 206.24C230.4 206.05 230.36 205.86 230.29 205.69C230.22 205.51 230.11 205.36 229.98 205.22C229.84 205.09 229.69 204.98 229.51 204.91C229.34 204.84 229.15 204.8 228.96 204.8L217.6 204.8ZM217.6 140.8L217.6 166.4L230.4 166.4L230.4 140.8L217.6 140.8Z" />
	</g>
	<path id="Layer" fill-rule="evenodd" class="shp0" d="M147.34 115.2C173.01 115.2 192.34 137.77 192.34 167.68C192.34 199.68 168.81 221.58 133.21 254.68C126.9 260.51 120.21 266.72 113.21 273.4C112.62 273.96 111.93 274.41 111.17 274.71C110.42 275.01 109.61 275.17 108.8 275.17C107.98 275.17 107.17 275.01 106.42 274.71C105.66 274.41 104.97 273.96 104.38 273.4C97.33 266.68 90.65 260.51 84.38 254.68C48.78 221.59 25.25 199.68 25.25 167.68C25.25 137.77 44.66 115.2 70.25 115.2C73.81 115.14 77.37 115.44 80.88 116.09C84.38 116.75 87.81 117.75 91.11 119.09C94.42 120.43 97.58 122.09 100.55 124.06C103.52 126.03 106.28 128.3 108.8 130.82C111.32 128.3 114.08 126.03 117.05 124.06C120.02 122.09 123.18 120.43 126.49 119.09C129.79 117.75 133.22 116.75 136.72 116.09C140.23 115.44 143.79 115.14 147.35 115.2L147.34 115.2ZM124.51 245.33C158.79 213.41 179.51 194.15 179.51 167.68C179.51 145.07 165.68 128 147.35 128C144.16 127.91 140.96 128.2 137.84 128.88C134.72 129.56 131.69 130.61 128.82 132.02C125.95 133.42 123.27 135.17 120.82 137.22C118.37 139.28 116.18 141.62 114.3 144.2C114.01 144.66 113.66 145.08 113.27 145.45C112.87 145.82 112.43 146.14 111.95 146.4C111.48 146.66 110.97 146.86 110.45 146.99C109.92 147.13 109.38 147.2 108.84 147.2C108.3 147.2 107.76 147.13 107.24 147C106.72 146.86 106.21 146.66 105.74 146.4C105.27 146.14 104.83 145.82 104.43 145.45C104.04 145.08 103.7 144.66 103.41 144.2C101.52 141.62 99.33 139.27 96.88 137.22C94.43 135.16 91.73 133.41 88.86 132.01C85.99 130.6 82.95 129.55 79.82 128.88C76.7 128.2 73.5 127.91 70.3 128.01C51.96 128.01 38.14 145.07 38.14 167.69C38.14 194.13 58.81 213.41 93.14 245.33C98.12 249.97 103.35 254.82 108.8 259.97C114.25 254.82 119.46 249.96 124.46 245.33L124.51 245.33Z" />
	<path id="Layer" class="shp0" d="M108.8 160C107.96 160 107.13 160.17 106.35 160.49C105.57 160.81 104.87 161.28 104.27 161.87C103.68 162.47 103.21 163.17 102.89 163.95C102.57 164.73 102.4 165.56 102.4 166.4L102.4 204.8C102.4 206.5 103.07 208.13 104.27 209.33C105.47 210.53 107.1 211.2 108.8 211.2C110.5 211.2 112.13 210.53 113.33 209.33C114.53 208.13 115.2 206.5 115.2 204.8L115.2 166.4C115.2 165.56 115.03 164.73 114.71 163.95C114.39 163.18 113.92 162.47 113.32 161.88C112.73 161.28 112.02 160.81 111.25 160.49C110.47 160.17 109.64 160 108.8 160L108.8 160Z" />
	<path id="Layer" class="shp0" d="M115.2 230.4C115.2 232.99 113.64 235.32 111.25 236.31C108.86 237.3 106.1 236.76 104.27 234.93C102.44 233.1 101.9 230.34 102.89 227.95C103.88 225.56 106.21 224 108.8 224C109.64 224 110.47 224.17 111.25 224.49C112.02 224.81 112.73 225.28 113.32 225.88C113.92 226.47 114.39 227.18 114.71 227.95C115.03 228.73 115.2 229.56 115.2 230.4L115.2 230.4Z" />
</svg>