<svg xmlns="http://www.w3.org/2000/svg" viewBox="0 0 512 320" width="512" height="320">
	<style>
		tspan { white-space:pre }
		.shp0 { fill: #ffffff } 
	</style>
	<path id="Layer" fill-rule="evenodd" class="shp0" d="M493.48 112.28C497.12 113.79 500.43 116 503.21 118.79C506 121.57 508.21 124.88 509.72 128.52C511.22 132.16 512 136.06 512 140L512 180C512 183.94 511.22 187.84 509.72 191.48C508.21 195.12 506 198.43 503.21 201.21C500.43 204 497.12 206.21 493.48 207.72C489.84 209.22 485.94 210 482 210L472 210L472 255C471.99 262.12 470.09 269.1 466.48 275.24C462.87 281.37 457.69 286.43 451.47 289.9C445.26 293.36 438.23 295.1 431.12 294.95C424 294.79 417.06 292.74 411 289C408.81 298.6 403.16 307.05 395.13 312.75C387.1 318.44 377.25 320.97 367.47 319.86C357.69 318.74 348.66 314.06 342.12 306.71C335.58 299.35 331.97 289.84 332 280L332 210L180 210L180 280C180 285.25 178.97 290.45 176.96 295.31C174.94 300.16 172 304.57 168.28 308.28C164.57 312 160.16 314.94 155.31 316.96C150.45 318.97 145.25 320 140 320C135.51 320 131.05 319.24 126.81 317.76C122.57 316.28 118.61 314.09 115.09 311.3C111.58 308.51 108.56 305.14 106.16 301.34C103.76 297.55 102.02 293.37 101 289C94.94 292.74 88 294.79 80.88 294.95C73.77 295.1 66.74 293.36 60.53 289.9C54.31 286.43 49.13 281.37 45.52 275.24C41.91 269.1 40.01 262.12 40 255L40 210L30 210C26.06 210 22.16 209.22 18.52 207.72C14.88 206.21 11.57 204 8.79 201.21C6 198.43 3.79 195.12 2.28 191.48C0.78 187.84 0 183.94 0 180L0 140C0 136.06 0.78 132.16 2.28 128.52C3.79 124.88 6 121.57 8.79 118.79C11.57 116 14.88 113.79 18.52 112.28C22.16 110.78 26.06 110 30 110L40 110L40 65C40.01 57.88 41.91 50.9 45.52 44.76C49.13 38.63 54.31 33.57 60.53 30.1C66.74 26.64 73.77 24.9 80.88 25.05C88 25.21 94.94 27.26 101 31C103.19 21.4 108.84 12.95 116.87 7.25C124.9 1.56 134.75 -0.97 144.53 0.14C154.31 1.26 163.34 5.94 169.88 13.29C176.42 20.65 180.03 30.16 180 40L180 110L332 110L332 40C332 34.75 333.03 29.55 335.04 24.69C337.06 19.84 340 15.43 343.72 11.72C347.43 8 351.84 5.06 356.69 3.04C361.55 1.03 366.75 0 372 0C376.49 0 380.95 0.76 385.19 2.24C389.43 3.72 393.39 5.91 396.91 8.7C400.42 11.49 403.44 14.86 405.84 18.66C408.24 22.45 409.98 26.63 411 31C417.06 27.26 424 25.21 431.12 25.05C438.23 24.9 445.26 26.64 451.47 30.1C457.69 33.57 462.87 38.63 466.48 44.76C470.09 50.9 471.99 57.88 472 65L472 110L482 110C485.94 110 489.84 110.78 493.48 112.28ZM40 130L30 130C28.69 130 27.39 130.26 26.17 130.76C24.96 131.26 23.86 132 22.93 132.93C22 133.86 21.26 134.96 20.76 136.17C20.26 137.39 20 138.69 20 140L20 180C20 181.31 20.26 182.61 20.76 183.83C21.26 185.04 22 186.14 22.93 187.07C23.86 188 24.96 188.74 26.17 189.24C27.39 189.74 28.69 190 30 190L40 190L40 130ZM100 65C100 59.7 97.89 54.61 94.14 50.86C90.39 47.11 85.3 45 80 45C74.7 45 69.61 47.11 65.86 50.86C62.11 54.61 60 59.7 60 65L60 255C60 260.3 62.11 265.39 65.86 269.14C69.61 272.89 74.7 275 80 275C85.3 275 90.39 272.89 94.14 269.14C97.89 265.39 100 260.3 100 255L100 65ZM160 40C160 34.7 157.89 29.61 154.14 25.86C150.39 22.11 145.3 20 140 20C134.7 20 129.61 22.11 125.86 25.86C122.11 29.61 120 34.7 120 40L120 280C120 282.63 120.52 285.23 121.52 287.65C122.53 290.08 124 292.28 125.86 294.14C127.72 296 129.92 297.47 132.35 298.48C134.77 299.48 137.37 300 140 300C142.63 300 145.23 299.48 147.65 298.48C150.08 297.47 152.28 296 154.14 294.14C156 292.28 157.47 290.08 158.48 287.65C159.48 285.23 160 282.63 160 280L160 40ZM332 130L180 130L180 190L331.93 190L331.93 170L262 170C259.35 170 256.8 168.95 254.93 167.07C253.05 165.2 252 162.65 252 160C252 157.35 253.05 154.8 254.93 152.93C256.8 151.05 259.35 150 262 150L331.93 150L332 130ZM392 40C392 37.37 391.48 34.77 390.48 32.35C389.47 29.92 388 27.72 386.14 25.86C384.28 24 382.08 22.53 379.65 21.52C377.23 20.52 374.63 20 372 20C369.37 20 366.77 20.52 364.35 21.52C361.92 22.53 359.72 24 357.86 25.86C356 27.72 354.53 29.92 353.52 32.35C352.52 34.77 352 37.37 352 40L352 159.49C351.99 159.27 351.94 159.05 351.94 158.84L351.94 161.16C352 160.95 352 160.73 352 160.51L352 280C352 285.3 354.11 290.39 357.86 294.14C361.61 297.89 366.7 300 372 300C377.3 300 382.39 297.89 386.14 294.14C389.89 290.39 392 285.3 392 280L392 40ZM452 65C452 59.7 449.89 54.61 446.14 50.86C442.39 47.11 437.3 45 432 45C426.7 45 421.61 47.11 417.86 50.86C414.11 54.61 412 59.7 412 65L412 255C412 260.3 414.11 265.39 417.86 269.14C421.61 272.89 426.7 275 432 275C437.3 275 442.39 272.89 446.14 269.14C449.89 265.39 452 260.3 452 255L452 65ZM492 140C492 138.69 491.74 137.39 491.24 136.17C490.74 134.96 490 133.86 489.07 132.93C488.14 132 487.04 131.26 485.83 130.76C484.61 130.26 483.31 130 482 130L472 130L472 190L482 190C483.31 190 484.61 189.74 485.83 189.24C487.04 188.74 488.14 188 489.07 187.07C490 186.14 490.74 185.04 491.24 183.83C491.74 182.61 492 181.31 492 180L492 140Z" />
	<path id="Layer" class="shp0" d="M222 170C219.35 170 216.8 168.95 214.93 167.07C213.05 165.2 212 162.65 212 160C212 157.35 213.05 154.8 214.93 152.93C216.8 151.05 219.35 150 222 150L222 150C224.65 150 227.2 151.05 229.07 152.93C230.95 154.8 232 157.35 232 160C232 162.65 230.95 165.2 229.07 167.07C227.2 168.95 224.65 170 222 170Z" />
</svg>