<svg xmlns="http://www.w3.org/2000/svg" viewBox="0 0 419 477" width="419" height="477">
	<style>
		tspan { white-space:pre }
		.shp0 { fill: #ffffff } 
	</style>
	<g id="Layer">
		<path id="Layer" fill-rule="evenodd" class="shp0" d="M398.61 390.13C396.91 392.27 395.06 394.27 393.06 396.14C391.07 398.01 388.94 399.72 386.7 401.28C384.46 402.83 382.1 404.22 379.66 405.43C377.21 406.64 374.68 407.67 372.08 408.51C373.68 410.72 375.12 413.04 376.39 415.46C377.65 417.88 378.74 420.39 379.63 422.97C380.53 425.55 381.24 428.19 381.75 430.87C382.26 433.56 382.57 436.27 382.68 439L383.88 468.67C383.93 469.98 383.66 471.29 383.08 472.47C382.51 473.65 381.65 474.68 380.59 475.45C379.52 476.22 378.28 476.72 376.98 476.9C375.68 477.08 374.35 476.93 373.12 476.48L345.31 466.17C343.01 465.31 340.77 464.31 338.6 463.17C336.43 462.02 334.33 460.74 332.33 459.32C330.32 457.91 328.41 456.37 326.6 454.7C324.8 453.04 323.1 451.27 321.52 449.39C320.8 448.5 320.29 447.54 319.63 446.62C318.02 448.84 316.25 450.94 314.33 452.9C312.41 454.86 310.35 456.68 308.17 458.34C305.98 460 303.68 461.49 301.27 462.81C298.86 464.12 296.36 465.26 293.79 466.21L265.92 476.51C264.69 476.96 263.36 477.1 262.06 476.92C260.76 476.74 259.52 476.24 258.46 475.47C257.4 474.7 256.54 473.68 255.97 472.5C255.4 471.32 255.12 470.01 255.17 468.7L256.37 439.43L76.93 439.43C71.11 439.43 65.32 438.72 59.68 437.3C54.03 435.88 48.59 433.78 43.46 431.03C38.33 428.28 33.56 424.91 29.26 421C24.96 417.08 21.15 412.65 17.93 407.81L11.93 398.87C8.07 393.07 5.08 386.74 3.07 380.08C1.05 373.41 0.03 366.48 0.03 359.52C0.03 352.56 1.05 345.63 3.07 338.96C5.08 332.3 8.07 325.97 11.93 320.17L20.49 307.4C23.33 303.13 26.62 299.18 30.31 295.62C34 292.06 38.06 288.91 42.43 286.22C46.8 283.54 51.45 281.34 56.3 279.66C61.14 277.98 66.16 276.84 71.25 276.24L91.97 273.84L71.07 264.84C67 263.08 63.24 260.68 59.93 257.72C56.63 254.77 53.82 251.31 51.61 247.46C49.41 243.61 47.83 239.44 46.95 235.09C46.07 230.75 45.9 226.29 46.43 221.89L48.33 206.89C48.86 202.56 50.07 198.35 51.93 194.41C53.78 190.46 56.25 186.84 59.24 183.67C62.24 180.51 65.72 177.84 69.55 175.77C73.39 173.7 77.53 172.26 81.82 171.49L87.35 170.49C85.94 169.31 84.61 168.03 83.38 166.67C82.15 165.31 81.01 163.86 79.97 162.34C78.94 160.82 78.01 159.23 77.19 157.58C76.37 155.94 75.67 154.23 75.09 152.49L71.09 140.49C70.41 138.43 69.89 136.32 69.55 134.18C69.2 132.04 69.03 129.87 69.03 127.71C69.03 125.54 69.2 123.37 69.55 121.23C69.89 119.09 70.41 116.98 71.09 114.92L71.88 112.53C73.87 106.55 76.65 100.87 80.17 95.64C83.69 90.41 87.9 85.68 92.69 81.59C97.48 77.49 102.81 74.07 108.52 71.41C114.23 68.75 120.28 66.88 126.5 65.85C128.56 65.51 130.64 65.24 132.72 65.04C134.8 64.85 136.89 64.73 138.98 64.69C141.07 64.65 143.16 64.68 145.25 64.79C147.34 64.9 149.43 65.09 151.5 65.35L173.81 68.13C179.02 68.78 184.2 69.65 189.34 70.74C194.47 71.82 199.56 73.13 204.58 74.65C209.61 76.17 214.57 77.91 219.44 79.85C224.32 81.79 229.12 83.94 233.81 86.29L236.58 87.66C244.26 91.5 250.52 97.69 254.46 105.33C258.39 112.97 259.79 121.66 258.45 130.15C257.11 138.64 253.11 146.48 247.02 152.54C240.93 158.6 233.07 162.56 224.58 163.86L215.58 165.22C222.27 166.03 228.9 167.32 235.41 169.08C241.92 170.84 248.29 173.06 254.48 175.73C260.67 178.41 266.66 181.52 272.41 185.06C278.15 188.59 283.63 192.53 288.81 196.85C294.65 201.72 299.02 208.11 301.45 215.31C303.88 222.51 304.27 230.25 302.58 237.66C300.88 245.07 297.17 251.86 291.85 257.29C286.53 262.72 279.81 266.57 272.44 268.42L255.92 272.55L280.54 275.45C283.63 275.82 286.69 276.39 289.7 277.15C292.72 277.92 295.68 278.89 298.56 280.05C301.45 281.21 304.26 282.56 306.96 284.09C309.67 285.62 312.28 287.33 314.76 289.2C315.1 288.94 315.46 288.7 315.84 288.5C316.22 288.29 316.61 288.12 317.02 287.98C317.43 287.84 317.84 287.73 318.27 287.66C318.69 287.58 319.12 287.54 319.55 287.54C320.21 287.5 320.87 287.55 321.52 287.69C322.17 287.83 322.79 288.06 323.38 288.37C323.96 288.68 324.5 289.07 324.98 289.53C325.46 289.99 325.87 290.52 326.2 291.09L342.66 315.78C344.18 318.06 345.53 320.45 346.69 322.93C347.86 325.41 348.85 327.97 349.64 330.59C350.44 333.21 351.04 335.89 351.45 338.6C351.85 341.3 352.06 344.04 352.06 346.78C354.65 345.95 357.3 345.3 359.99 344.86C362.68 344.41 365.39 344.15 368.12 344.1C370.84 344.04 373.56 344.18 376.27 344.52C378.97 344.86 381.64 345.39 384.27 346.12L412.85 354.12C414.12 354.48 415.27 355.14 416.22 356.05C417.17 356.96 417.88 358.09 418.29 359.34C418.7 360.59 418.79 361.92 418.56 363.21C418.34 364.51 417.79 365.73 416.98 366.76L398.61 390.09L398.61 390.13ZM90.16 147.5C91.05 150.2 92.41 152.73 94.17 154.97C95.94 157.2 98.08 159.11 100.5 160.61C102.92 162.11 105.59 163.17 108.38 163.75C111.16 164.33 114.03 164.41 116.85 164L145.91 159.82L222.18 148.1C227.31 147.3 232.05 144.89 235.73 141.22C239.4 137.55 241.81 132.81 242.61 127.68C243.41 122.55 242.56 117.29 240.18 112.68C237.8 108.06 234.01 104.32 229.37 102L226.64 100.61C222.35 98.46 217.97 96.5 213.51 94.73C209.05 92.95 204.52 91.37 199.92 89.98C195.33 88.59 190.68 87.4 185.98 86.41C181.29 85.42 176.55 84.63 171.79 84.04L149.47 81.25C147.78 81.04 146.08 80.89 144.37 80.8C142.67 80.71 140.96 80.68 139.25 80.72C137.55 80.75 135.84 80.85 134.15 81.01C132.45 81.17 130.75 81.39 129.07 81.67C124.28 82.46 119.61 83.9 115.21 85.95C110.8 88 106.7 90.64 103 93.8C99.31 96.96 96.06 100.61 93.35 104.64C90.64 108.67 88.5 113.06 86.97 117.67L86.17 120.06C85.76 121.31 85.45 122.59 85.24 123.89C85.03 125.18 84.92 126.5 84.92 127.81C84.92 129.12 85.03 130.44 85.24 131.73C85.45 133.03 85.76 134.31 86.17 135.56L90.16 147.5ZM104.02 261.6C104.8 261.93 105.6 262.23 106.41 262.48C107.22 262.73 108.05 262.94 108.88 263.11C109.71 263.27 110.55 263.4 111.4 263.48C112.24 263.56 113.09 263.6 113.94 263.6L222.89 263.6C223.4 263.6 223.92 263.58 224.43 263.55C224.95 263.52 225.46 263.47 225.97 263.41C226.48 263.34 226.99 263.26 227.49 263.17C228 263.08 228.5 262.97 229 262.84L268.58 252.96C273.09 251.83 277.2 249.47 280.46 246.15C283.71 242.83 285.98 238.67 287.02 234.13C288.05 229.6 287.81 224.87 286.32 220.46C284.83 216.05 282.15 212.15 278.58 209.17C273.62 205.01 268.33 201.25 262.79 197.91C257.24 194.58 251.44 191.68 245.44 189.24C239.44 186.8 233.26 184.84 226.96 183.36C220.66 181.88 214.25 180.89 207.79 180.41L150.73 176.02C150.57 176 150.41 175.99 150.25 175.98C150.09 175.97 149.93 175.96 149.77 175.95C149.61 175.94 149.44 175.94 149.28 175.94C149.12 175.94 148.96 175.94 148.8 175.94C148.42 175.94 148.04 175.95 147.66 175.97C147.29 175.98 146.91 176.01 146.53 176.04C146.15 176.08 145.78 176.12 145.4 176.17C145.03 176.22 144.65 176.28 144.28 176.35L84.59 187.2C81.97 187.67 79.43 188.55 77.09 189.82C74.74 191.09 72.61 192.72 70.78 194.66C68.95 196.59 67.44 198.81 66.3 201.22C65.17 203.64 64.42 206.21 64.1 208.86L62.23 223.86C61.9 226.55 62.01 229.28 62.55 231.94C63.08 234.6 64.05 237.16 65.4 239.51C66.75 241.86 68.47 243.98 70.49 245.79C72.52 247.6 74.82 249.07 77.31 250.14L104.02 261.6ZM267.17 408.5C264.57 407.66 262.02 406.62 259.57 405.41C257.11 404.2 254.75 402.81 252.5 401.25C250.24 399.7 248.11 397.98 246.1 396.11C244.1 394.25 242.23 392.24 240.52 390.1L222.03 366.7C221.22 365.67 220.67 364.45 220.44 363.15C220.22 361.86 220.31 360.53 220.72 359.28C221.12 358.03 221.83 356.9 222.78 355.99C223.73 355.08 224.89 354.42 226.15 354.06L254.75 346.06C257.38 345.31 260.06 344.76 262.77 344.41C265.47 344.06 268.2 343.91 270.94 343.96C273.67 344.02 276.39 344.27 279.08 344.72C281.78 345.18 284.43 345.83 287.03 346.67C287.05 343.94 287.26 341.22 287.67 338.52C288.08 335.83 288.69 333.16 289.48 330.55C290.28 327.94 291.26 325.4 292.43 322.93C293.59 320.46 294.93 318.08 296.44 315.81L305.44 302.32C303.51 300.83 301.48 299.46 299.37 298.24C297.26 297.02 295.07 295.94 292.81 295.01C290.56 294.09 288.24 293.31 285.88 292.69C283.52 292.08 281.12 291.62 278.7 291.32L199.99 282.05C196.51 281.65 193.02 281.35 189.52 281.14C186.03 280.94 182.53 280.84 179.02 280.84C175.52 280.84 172.02 280.94 168.53 281.14C165.03 281.35 161.54 281.65 158.06 282.05L73.06 292.05C69.11 292.51 65.23 293.4 61.47 294.7C57.72 296 54.11 297.71 50.72 299.78C47.34 301.86 44.19 304.3 41.32 307.06C38.46 309.82 35.91 312.88 33.71 316.19L25.16 328.98C22.17 333.47 19.85 338.38 18.29 343.55C16.72 348.71 15.93 354.08 15.93 359.48C15.93 364.88 16.72 370.25 18.29 375.41C19.85 380.58 22.17 385.49 25.16 389.98L31.16 398.91C33.66 402.67 36.61 406.1 39.95 409.14C43.29 412.17 46.99 414.78 50.97 416.91C54.94 419.04 59.17 420.67 63.55 421.77C67.92 422.86 72.42 423.41 76.93 423.41L259.37 423.41C259.73 422.34 260.11 421.29 260.53 420.24C260.95 419.2 261.4 418.17 261.88 417.15C262.36 416.13 262.87 415.13 263.41 414.14C263.95 413.15 264.51 412.18 265.11 411.23C265.73 410.27 266.5 409.5 267.17 408.5ZM298.15 371.44C297.72 371.01 297.28 370.59 296.84 370.19C296.39 369.78 295.92 369.39 295.45 369.01C294.98 368.63 294.5 368.26 294.01 367.91C293.52 367.56 293.02 367.22 292.51 366.89C290.11 365.24 287.53 363.85 284.83 362.77C282.12 361.68 279.31 360.89 276.43 360.43C273.55 359.96 270.63 359.82 267.72 359.99C264.81 360.17 261.93 360.67 259.13 361.48L242.13 366.27L253.13 380.18C254.81 382.28 256.69 384.21 258.76 385.94C260.82 387.67 263.05 389.19 265.41 390.47C267.78 391.76 270.26 392.8 272.84 393.59C275.41 394.38 278.05 394.92 280.73 395.18C281.21 394.84 281.69 394.51 282.18 394.18C282.67 393.86 283.17 393.54 283.67 393.24C284.17 392.93 284.67 392.63 285.18 392.34C285.7 392.05 286.21 391.76 286.73 391.49C288.06 390.79 289.41 390.15 290.79 389.57C292.17 388.98 293.57 388.45 295 387.98C296.42 387.52 297.86 387.11 299.32 386.76C300.78 386.41 302.25 386.13 303.73 385.9L307.47 385.31L305.75 381.91C305.25 380.95 304.72 380.01 304.15 379.09C303.58 378.17 302.97 377.27 302.33 376.4C301.7 375.53 301.02 374.68 300.32 373.86C299.61 373.04 298.88 372.24 298.11 371.48L298.15 371.44ZM288.23 451.21C290.76 450.27 293.19 449.07 295.48 447.63C297.77 446.19 299.91 444.53 301.86 442.66C303.81 440.78 305.56 438.72 307.1 436.49C308.63 434.26 309.92 431.88 310.97 429.39C310.8 428.85 310.64 428.3 310.49 427.75C310.34 427.2 310.2 426.65 310.07 426.1C309.93 425.54 309.81 424.99 309.69 424.43C309.58 423.87 309.47 423.31 309.37 422.75L309.37 422.18C309.14 420.74 308.96 419.3 308.85 417.85C308.73 416.4 308.67 414.94 308.67 413.48C308.67 412.03 308.73 410.57 308.85 409.12C308.96 407.67 309.14 406.23 309.37 404.79L309.97 401.04L306.21 401.63C305.15 401.79 304.1 402 303.06 402.25C302.02 402.5 300.99 402.8 299.97 403.13C298.95 403.47 297.95 403.84 296.96 404.26C295.98 404.68 295.01 405.13 294.06 405.63C293.51 405.91 292.97 406.21 292.44 406.51C291.91 406.82 291.39 407.14 290.87 407.48C290.36 407.81 289.85 408.16 289.35 408.52C288.85 408.88 288.36 409.25 287.88 409.63C286.02 411.07 284.29 412.68 282.72 414.42C281.14 416.17 279.72 418.05 278.47 420.05C277.22 422.04 276.16 424.14 275.28 426.33C274.4 428.51 273.72 430.77 273.24 433.07C273.11 433.6 272.99 434.13 272.88 434.67C272.78 435.21 272.69 435.75 272.62 436.29C272.54 436.83 272.48 437.38 272.44 437.92C272.4 438.47 272.37 439.01 272.36 439.56L271.63 457.4L288.28 451.25L288.23 451.21ZM324.37 375.34C325.12 374.58 325.84 373.78 326.53 372.96C327.22 372.14 327.87 371.3 328.5 370.43C329.12 369.56 329.72 368.67 330.27 367.75C330.83 366.84 331.35 365.9 331.84 364.95C332.11 364.41 332.37 363.85 332.62 363.3C332.86 362.74 333.1 362.18 333.32 361.61C333.53 361.04 333.74 360.47 333.93 359.89C334.13 359.32 334.3 358.74 334.47 358.15C334.61 357.69 334.73 357.22 334.85 356.75C334.97 356.29 335.08 355.82 335.18 355.35C335.28 354.88 335.38 354.4 335.46 353.93C335.55 353.45 335.62 352.98 335.69 352.5C335.76 352.04 335.82 351.59 335.87 351.13C335.92 350.67 335.96 350.22 335.99 349.76C336.02 349.3 336.05 348.84 336.07 348.38C336.08 347.92 336.09 347.46 336.09 347C336.09 345.03 335.95 343.06 335.67 341.11C335.38 339.16 334.95 337.23 334.38 335.35C333.82 333.46 333.11 331.62 332.27 329.83C331.43 328.05 330.46 326.33 329.37 324.69L319.53 310L309.73 324.72C308.24 326.96 306.98 329.34 305.96 331.82C304.95 334.31 304.19 336.89 303.69 339.53C303.19 342.17 302.95 344.86 302.99 347.54C303.02 350.23 303.32 352.9 303.89 355.53C304.38 355.88 304.85 356.25 305.33 356.62C305.8 356.99 306.26 357.37 306.72 357.76C307.18 358.15 307.62 358.54 308.07 358.95C308.51 359.35 308.94 359.77 309.37 360.19C310.43 361.25 311.45 362.34 312.43 363.48C313.41 364.61 314.34 365.79 315.22 366.99C316.11 368.2 316.95 369.44 317.74 370.72C318.53 371.99 319.27 373.29 319.96 374.62L321.71 378.05L324.37 375.34ZM367.61 457.42L366.89 439.67C366.78 436.99 366.4 434.33 365.75 431.73C365.11 429.13 364.21 426.6 363.06 424.18C361.91 421.76 360.52 419.46 358.91 417.32C357.3 415.17 355.47 413.2 353.47 411.42C352.88 411.4 352.3 411.38 351.71 411.35C351.13 411.31 350.55 411.27 349.96 411.22C349.38 411.18 348.8 411.12 348.21 411.06C347.63 410.99 347.05 410.92 346.47 410.84C345.41 410.68 344.35 410.49 343.3 410.27C342.25 410.04 341.21 409.79 340.17 409.51C339.14 409.23 338.11 408.92 337.09 408.57C336.07 408.23 335.07 407.86 334.07 407.46C333.65 407.3 333.24 407.14 332.82 406.96C332.41 406.79 332 406.62 331.59 406.43C331.19 406.25 330.78 406.06 330.38 405.87C329.98 405.67 329.58 405.48 329.18 405.27L325.9 403.6L325.3 407.37C325.14 408.39 325.01 409.42 324.93 410.45C324.85 411.48 324.8 412.51 324.8 413.55C324.8 414.58 324.85 415.61 324.93 416.64C325.01 417.67 325.14 418.7 325.3 419.72L325.3 420.2C325.39 420.79 325.49 421.38 325.61 421.96C325.73 422.55 325.86 423.13 326.01 423.71C326.16 424.29 326.32 424.86 326.5 425.43C326.67 426 326.86 426.57 327.07 427.13C327.45 428.23 327.89 429.31 328.36 430.37C328.84 431.44 329.37 432.48 329.94 433.49C330.51 434.51 331.12 435.5 331.78 436.46C332.44 437.42 333.14 438.35 333.88 439.25C335.01 440.59 336.22 441.86 337.51 443.05C338.8 444.24 340.17 445.34 341.6 446.35C343.04 447.36 344.53 448.28 346.08 449.1C347.63 449.92 349.24 450.64 350.88 451.25L367.61 457.42ZM356 395.38C358.9 395.28 361.77 394.87 364.58 394.15C367.39 393.44 370.11 392.42 372.7 391.11C375.29 389.81 377.73 388.23 379.97 386.4C382.22 384.57 384.27 382.51 386.07 380.24L397.01 366.35L379.96 361.55C377.36 360.83 374.7 360.37 372.02 360.19C369.33 360 366.63 360.08 363.96 360.44C361.29 360.79 358.66 361.41 356.12 362.28C353.57 363.16 351.12 364.29 348.8 365.66C348.61 366.21 348.41 366.76 348.21 367.31C348 367.85 347.79 368.4 347.57 368.94C347.34 369.48 347.11 370.01 346.87 370.54C346.63 371.08 346.39 371.61 346.13 372.13C345.45 373.46 344.73 374.76 343.95 376.04C343.18 377.31 342.36 378.56 341.49 379.77C340.62 380.98 339.7 382.16 338.74 383.3C337.79 384.45 336.78 385.55 335.74 386.62L332.99 389.35L336.37 391.08C336.65 391.22 336.93 391.36 337.21 391.5C337.5 391.63 337.78 391.76 338.07 391.89C338.35 392.02 338.64 392.14 338.93 392.26C339.22 392.38 339.52 392.49 339.81 392.6C340.52 392.88 341.23 393.15 341.95 393.39C342.67 393.63 343.4 393.85 344.13 394.06C344.86 394.26 345.6 394.43 346.35 394.59C347.09 394.75 347.84 394.89 348.59 395C349.08 395.07 349.57 395.14 350.06 395.19C350.55 395.25 351.04 395.29 351.53 395.33C352.02 395.37 352.52 395.4 353.01 395.43C353.5 395.45 354 395.46 354.49 395.47C354.61 395.46 354.74 395.44 354.86 395.43C354.98 395.42 355.11 395.41 355.23 395.41C355.35 395.4 355.48 395.4 355.6 395.4C355.72 395.4 355.85 395.4 355.97 395.4L356 395.38Z" />
	</g>
	<path id="Layer" class="shp0" d="M187.02 47.93L187.02 16C187.02 13.88 186.18 11.84 184.68 10.34C183.18 8.84 181.14 8 179.02 8C176.9 8 174.86 8.84 173.36 10.34C171.86 11.84 171.02 13.88 171.02 16L171.02 48C171.02 50.12 171.86 52.16 173.36 53.66C174.86 55.16 176.9 56 179.02 56C181.14 56 183.18 55.16 184.68 53.66C186.18 52.16 187.02 50.12 187.02 48L187.02 47.93Z" />
	<path id="Layer" class="shp0" d="M219.97 55.92C219.97 58.04 220.81 60.08 222.31 61.58C223.81 63.08 225.85 63.92 227.97 63.92C230.09 63.92 232.13 63.08 233.63 61.58C235.13 60.08 235.97 58.04 235.97 55.92L235.97 47.92C235.97 45.8 235.13 43.76 233.63 42.26C232.13 40.76 230.09 39.92 227.97 39.92C225.85 39.92 223.81 40.76 222.31 42.26C220.81 43.76 219.97 45.8 219.97 47.92L219.97 55.92Z" />
	<path id="Layer" class="shp0" d="M227.96 32C229.01 32 230.05 31.79 231.02 31.39C231.99 30.99 232.87 30.4 233.62 29.66C234.36 28.91 234.95 28.03 235.35 27.06C235.75 26.09 235.96 25.05 235.96 24L235.96 8C235.96 5.88 235.12 3.84 233.62 2.34C232.12 0.84 230.08 0 227.96 0C225.84 0 223.8 0.84 222.3 2.34C220.8 3.84 219.96 5.88 219.96 8L219.96 24C219.96 25.05 220.17 26.09 220.57 27.06C220.97 28.03 221.56 28.91 222.3 29.66C223.05 30.4 223.93 30.99 224.9 31.39C225.87 31.79 226.91 32 227.96 32Z" />
	<path id="Layer" class="shp0" d="M36.23 159.78C36.23 161.9 37.07 163.94 38.57 165.44C40.07 166.94 42.11 167.78 44.23 167.78C46.35 167.78 48.39 166.94 49.89 165.44C51.39 163.94 52.23 161.9 52.23 159.78L52.23 151.78C52.23 149.66 51.39 147.62 49.89 146.12C48.39 144.62 46.35 143.78 44.23 143.78C42.11 143.78 40.07 144.62 38.57 146.12C37.07 147.62 36.23 149.66 36.23 151.78L36.23 159.78Z" />
	<path id="Layer" class="shp0" d="M44.22 135.81C45.27 135.81 46.31 135.6 47.28 135.2C48.25 134.8 49.13 134.21 49.88 133.47C50.62 132.72 51.21 131.84 51.61 130.87C52.01 129.9 52.22 128.86 52.22 127.81L52.22 111.81C52.22 109.69 51.38 107.65 49.88 106.15C48.38 104.65 46.34 103.81 44.22 103.81C42.1 103.81 40.06 104.65 38.56 106.15C37.06 107.65 36.22 109.69 36.22 111.81L36.22 127.81C36.22 128.86 36.43 129.9 36.83 130.87C37.23 131.84 37.82 132.72 38.56 133.47C39.31 134.21 40.19 134.8 41.16 135.2C42.13 135.6 43.17 135.81 44.22 135.81Z" />
	<path id="Layer" class="shp0" d="M124.11 47.93C124.11 50.05 124.95 52.09 126.45 53.59C127.95 55.09 129.99 55.93 132.11 55.93C134.23 55.93 136.27 55.09 137.77 53.59C139.27 52.09 140.11 50.05 140.11 47.93L140.11 39.93C140.11 37.81 139.27 35.77 137.77 34.27C136.27 32.77 134.23 31.93 132.11 31.93C129.99 31.93 127.95 32.77 126.45 34.27C124.95 35.77 124.11 37.81 124.11 39.93L124.11 47.93Z" />
	<path id="Layer" class="shp0" d="M132.1 24C133.15 24 134.19 23.79 135.16 23.39C136.13 22.99 137.01 22.4 137.76 21.66C138.5 20.91 139.09 20.03 139.49 19.06C139.89 18.09 140.1 17.05 140.1 16L140.1 8C140.1 5.88 139.26 3.84 137.76 2.34C136.26 0.84 134.22 0 132.1 0C129.98 0 127.94 0.84 126.44 2.34C124.94 3.84 124.1 5.88 124.1 8L124.1 16C124.1 17.05 124.31 18.09 124.71 19.06C125.11 20.03 125.7 20.91 126.44 21.66C127.19 22.4 128.07 22.99 129.04 23.39C130.01 23.79 131.05 24 132.1 24Z" />
	<path id="Layer" class="shp0" d="M283.88 119.83C283.88 121.95 284.72 123.99 286.22 125.49C287.72 126.99 289.76 127.83 291.88 127.83C294 127.83 296.04 126.99 297.54 125.49C299.04 123.99 299.88 121.95 299.88 119.83L299.88 87.83C299.88 85.71 299.04 83.67 297.54 82.17C296.04 80.67 294 79.83 291.88 79.83C289.76 79.83 287.72 80.67 286.22 82.17C284.72 83.67 283.88 85.71 283.88 87.83L283.88 119.83Z" />
	<path id="Layer" class="shp0" d="M291.87 71.9C292.92 71.9 293.96 71.69 294.93 71.29C295.9 70.89 296.78 70.3 297.53 69.56C298.27 68.81 298.86 67.93 299.26 66.96C299.66 65.99 299.87 64.95 299.87 63.9L299.87 40C299.87 37.88 299.03 35.84 297.53 34.34C296.03 32.84 293.99 32 291.87 32C289.75 32 287.71 32.84 286.21 34.34C284.71 35.84 283.87 37.88 283.87 40L283.87 64C283.87 65.05 284.08 66.09 284.48 67.06C284.88 68.03 285.47 68.91 286.21 69.66C286.96 70.4 287.84 70.99 288.81 71.39C289.78 71.79 290.82 72 291.87 72L291.87 71.9Z" />
	<path id="Layer" class="shp0" d="M283.88 159.78C283.88 161.9 284.72 163.94 286.22 165.44C287.72 166.94 289.76 167.78 291.88 167.78C294 167.78 296.04 166.94 297.54 165.44C299.04 163.94 299.88 161.9 299.88 159.78L299.88 151.78C299.88 149.66 299.04 147.62 297.54 146.12C296.04 144.62 294 143.78 291.88 143.78C289.76 143.78 287.72 144.62 286.22 146.12C284.72 147.62 283.88 149.66 283.88 151.78L283.88 159.78Z" />
	<path id="Layer" class="shp0" d="M347.79 207.71C347.79 205.59 346.95 203.55 345.45 202.05C343.95 200.55 341.91 199.71 339.79 199.71C337.67 199.71 335.63 200.55 334.13 202.05C332.63 203.55 331.79 205.59 331.79 207.71L331.79 215.71C331.79 217.83 332.63 219.87 334.13 221.37C335.63 222.87 337.67 223.71 339.79 223.71C341.91 223.71 343.95 222.87 345.45 221.37C346.95 219.87 347.79 217.83 347.79 215.71L347.79 207.71Z" />
	<path id="Layer" class="shp0" d="M347.79 159.78C347.79 157.66 346.95 155.62 345.45 154.12C343.95 152.62 341.91 151.78 339.79 151.78C337.67 151.78 335.63 152.62 334.13 154.12C332.63 155.62 331.79 157.66 331.79 159.78L331.79 183.78C331.79 185.9 332.63 187.94 334.13 189.44C335.63 190.94 337.67 191.78 339.79 191.78C341.91 191.78 343.95 190.94 345.45 189.44C346.95 187.94 347.79 185.9 347.79 183.78L347.79 159.78Z" />
	<path id="Layer" class="shp0" d="M339.8 239.66C338.75 239.66 337.71 239.87 336.74 240.27C335.77 240.67 334.89 241.26 334.14 242C333.4 242.75 332.81 243.63 332.41 244.6C332.01 245.57 331.8 246.61 331.8 247.66L331.8 255.66C331.8 257.78 332.64 259.82 334.14 261.32C335.64 262.82 337.68 263.66 339.8 263.66C341.92 263.66 343.96 262.82 345.46 261.32C346.96 259.82 347.8 257.78 347.8 255.66L347.8 247.66C347.8 246.61 347.59 245.57 347.19 244.6C346.79 243.63 346.2 242.75 345.46 242C344.71 241.26 343.83 240.67 342.86 240.27C341.89 239.87 340.85 239.66 339.8 239.66Z" />
	<path id="Layer" class="shp0" d="M175.84 231.68L199.75 231.68C200.62 231.68 201.48 231.65 202.35 231.6C203.21 231.55 204.07 231.47 204.93 231.36C205.79 231.25 206.65 231.12 207.5 230.96C208.35 230.8 209.2 230.61 210.04 230.4L237.89 223.45C239.85 222.85 241.5 221.52 242.51 219.73C243.52 217.95 243.8 215.85 243.31 213.86C242.81 211.87 241.57 210.15 239.84 209.05C238.11 207.95 236.02 207.56 234.01 207.95L206.16 214.95C205.64 215.08 205.11 215.2 204.58 215.3C204.06 215.4 203.52 215.48 202.99 215.55C202.46 215.62 201.92 215.67 201.38 215.7C200.85 215.73 200.31 215.75 199.77 215.75L175.84 215.75C173.72 215.75 171.68 216.59 170.18 218.09C168.68 219.59 167.84 221.63 167.84 223.75C167.84 225.87 168.68 227.91 170.18 229.41C171.68 230.91 173.72 231.75 175.84 231.75L175.84 231.68Z" />
	<path id="Layer" class="shp0" d="M124.11 231.68C126.23 231.68 128.27 230.84 129.77 229.34C131.27 227.84 132.11 225.8 132.11 223.68C132.11 221.56 131.27 219.52 129.77 218.02C128.27 216.52 126.23 215.68 124.11 215.68L119.37 215.68C117.84 215.68 116.31 215.59 114.79 215.41C113.27 215.23 111.76 214.96 110.27 214.61C108.78 214.26 107.32 213.82 105.88 213.3C104.44 212.78 103.03 212.18 101.66 211.5L95.73 208.5C93.85 207.67 91.72 207.59 89.78 208.28C87.84 208.98 86.25 210.4 85.33 212.24C84.41 214.08 84.23 216.21 84.84 218.17C85.45 220.14 86.79 221.8 88.59 222.8L94.52 225.8C96.44 226.76 98.42 227.6 100.44 228.33C102.46 229.06 104.52 229.68 106.61 230.17C108.7 230.67 110.81 231.04 112.94 231.29C115.08 231.54 117.22 231.67 119.37 231.68L124.11 231.68Z" />
	<path id="Layer" class="shp0" d="M93.25 387.46L88.04 386.73C84.62 386.25 81.24 385.52 77.93 384.55C74.62 383.57 71.39 382.35 68.26 380.9C65.13 379.44 62.11 377.76 59.23 375.86C56.35 373.96 53.61 371.85 51.04 369.54L45.69 375.46L40.69 381.72C43.83 384.52 47.17 387.08 50.68 389.38C54.2 391.68 57.88 393.73 61.7 395.49C65.51 397.25 69.45 398.73 73.49 399.91C77.52 401.09 81.64 401.97 85.8 402.55L91.02 403.27C91.11 403.28 91.2 403.3 91.3 403.31C91.39 403.32 91.48 403.33 91.57 403.33C91.67 403.34 91.76 403.34 91.85 403.35C91.94 403.35 92.04 403.35 92.13 403.35C94.12 403.3 96.02 402.5 97.45 401.13C98.89 399.75 99.76 397.89 99.9 395.9C100.03 393.92 99.42 391.95 98.19 390.39C96.96 388.83 95.18 387.78 93.22 387.46L93.25 387.46Z" />
	<path id="Layer" class="shp0" d="M164.05 391.45L124.11 391.45C121.99 391.45 119.95 392.29 118.45 393.79C116.95 395.29 116.11 397.33 116.11 399.45C116.11 401.57 116.95 403.61 118.45 405.11C119.95 406.61 121.99 407.45 124.11 407.45L164.05 407.45C166.17 407.45 168.21 406.61 169.71 405.11C171.21 403.61 172.05 401.57 172.05 399.45C172.05 397.33 171.21 395.29 169.71 393.79C168.21 392.29 166.17 391.45 164.05 391.45L164.05 391.45Z" />
	<path id="Layer" class="shp0" d="M219.97 391.45L195.97 391.45C193.85 391.45 191.81 392.29 190.31 393.79C188.81 395.29 187.97 397.33 187.97 399.45C187.97 401.57 188.81 403.61 190.31 405.11C191.81 406.61 193.85 407.45 195.97 407.45L219.97 407.45C222.09 407.45 224.13 406.61 225.63 405.11C227.13 403.61 227.97 401.57 227.97 399.45C227.97 397.33 227.13 395.29 225.63 393.79C224.13 392.29 222.09 391.45 219.97 391.45Z" />
	<path id="Layer" class="shp0" d="M115.12 135.81L131.9 135.81C134.75 135.81 137.6 135.6 140.42 135.18C143.24 134.76 146.03 134.13 148.76 133.3C151.49 132.47 154.15 131.44 156.73 130.22C159.31 129 161.79 127.59 164.16 126L175.49 118.45C177.38 117.33 178.72 115.48 179.2 113.34C179.69 111.2 179.27 108.96 178.06 107.13C176.84 105.31 174.92 104.06 172.76 103.69C170.6 103.32 168.38 103.85 166.62 105.16L155.3 112.7C153.58 113.85 151.78 114.87 149.91 115.76C148.04 116.64 146.11 117.39 144.13 117.99C142.15 118.59 140.13 119.04 138.08 119.34C136.03 119.64 133.97 119.79 131.9 119.79L115.12 119.79C113 119.79 110.96 120.63 109.46 122.13C107.96 123.63 107.12 125.67 107.12 127.79C107.12 129.91 107.96 131.95 109.46 133.45C110.96 134.95 113 135.79 115.12 135.79L115.12 135.81Z" />
</svg>