<svg xmlns="http://www.w3.org/2000/svg" viewBox="0 0 335 360" width="335" height="360">
	<style>
		tspan { white-space:pre }
		.shp0 { fill: #ffffff } 
	</style>
	<g id="Layer">
		<path id="Layer" fill-rule="evenodd" class="shp0" d="M333.51 199.87C333.84 200.52 334.07 201.22 334.21 201.94C334.35 202.65 334.38 203.39 334.32 204.11C334.26 204.84 334.1 205.56 333.84 206.24C333.59 206.92 333.24 207.57 332.81 208.16L296.41 258.03C296.24 258.27 296.05 258.5 295.85 258.71C295.65 258.93 295.44 259.14 295.22 259.33C295 259.52 294.77 259.71 294.53 259.88C294.29 260.04 294.04 260.2 293.78 260.34C293.16 260.71 231.26 294.52 184.87 322.34C179.46 325.52 173.95 328.52 168.36 331.35C162.76 334.18 157.07 336.83 151.31 339.3C145.54 341.77 139.7 344.06 133.79 346.16C127.88 348.26 121.9 350.18 115.87 351.9C102.62 355.66 85.68 359.33 70 359.33C68.29 359.35 66.57 359.32 64.86 359.22C63.15 359.12 61.45 358.95 59.75 358.73C58.05 358.5 56.36 358.22 54.68 357.87C53 357.52 51.34 357.11 49.69 356.64C39.47 353.55 32.35 347.79 28.47 339.55C28.45 339.5 28.42 339.45 28.4 339.4C28.38 339.35 28.36 339.3 28.34 339.24C28.32 339.19 28.3 339.14 28.28 339.09C28.26 339.04 28.24 338.98 28.22 338.93C7.53 283.26 -1.9 234.19 0.22 193.1C1.78 162.9 9.27 142.89 16.16 130.57C12.44 124 9.48 117.03 7.34 109.79C5.21 102.55 3.92 95.09 3.48 87.55C3.05 80.02 3.49 72.46 4.78 65.02C6.07 57.58 8.21 50.32 11.16 43.37C14.02 36.7 17.88 30.51 22.6 25C27.32 19.49 32.85 14.73 39 10.88C45.15 7.03 51.84 4.14 58.86 2.3C65.88 0.46 73.13 -0.31 80.38 0.03L94.19 0.67C101.47 1.01 108.65 2.45 115.49 4.95C122.33 7.45 128.75 10.98 134.53 15.41C140.31 19.85 145.37 25.14 149.56 31.11C153.74 37.07 156.99 43.64 159.19 50.58C159.3 50.92 159.4 51.26 159.5 51.6C159.6 51.94 159.7 52.28 159.79 52.63C159.88 52.97 159.96 53.32 160.04 53.67C160.12 54.01 160.19 54.36 160.26 54.71C161.54 61.6 162.17 68.6 162.15 75.6C162.13 82.61 161.47 89.6 160.15 96.49C158.84 103.37 156.9 110.12 154.34 116.64C151.78 123.17 148.62 129.44 144.9 135.38L143.54 137.59L148.77 146.11C152.68 152.49 155.71 159.37 157.79 166.56C159.87 173.75 160.97 181.19 161.06 188.68C161.16 196.16 160.25 203.62 158.35 210.87C156.46 218.11 153.6 225.06 149.85 231.54C156.32 232.76 162.65 234.07 168.54 235.28C176.36 236.91 183.76 238.44 189.28 239.28C201.23 241.04 223.59 236.36 236.44 223.04C236.77 216.31 238.25 209.53 241.77 203.89C244.95 198.81 246.16 188.7 247.16 179.7C247.72 174.94 248.3 170.02 249.16 165.55C249.79 162.27 251.44 159.28 253.87 156.99C256.3 154.7 259.39 153.24 262.69 152.81C266 152.37 269.36 152.99 272.3 154.58C275.24 156.17 277.6 158.64 279.05 161.64L301.33 152.12C302.26 151.72 303.26 151.51 304.27 151.48C305.28 151.46 306.28 151.62 307.23 151.97C308.18 152.32 309.06 152.85 309.81 153.52C310.56 154.19 311.18 155.01 311.63 155.91L333.54 199.91L333.51 199.87ZM317.09 202.75L300.72 169.89L282.72 177.56C282.87 178.7 282.99 179.85 283.1 181C283.22 182.15 283.31 183.3 283.39 184.45C283.46 185.6 283.52 186.75 283.56 187.9C283.61 189.05 283.63 190.21 283.64 191.36L287.76 188.22C289.44 186.84 291.61 186.2 293.77 186.44C295.93 186.69 297.89 187.81 299.21 189.54C300.53 191.27 301.09 193.46 300.76 195.61C300.43 197.76 299.24 199.68 297.46 200.93L282.3 212.51C281.63 217.57 280.94 220.82 280.85 221.22C280.35 223.24 279.08 224.99 277.32 226.09C275.55 227.19 273.42 227.56 271.39 227.12C269.35 226.68 267.57 225.46 266.42 223.73C265.27 221.99 264.84 219.88 265.22 217.83C265.28 217.56 270.93 190.76 264.77 169.18C264.07 172.94 263.58 177.17 263.07 181.64C261.77 192.79 260.43 204.32 255.35 212.46C252.56 216.92 251.7 224.64 252.93 234.22C253.09 235.47 253.28 236.72 253.5 237.96C253.71 239.21 253.96 240.45 254.23 241.68C254.49 242.91 254.79 244.14 255.11 245.36C255.43 246.58 255.78 247.79 256.15 249C256.63 250.96 256.36 253.03 255.39 254.79C254.41 256.56 252.81 257.89 250.89 258.52C248.98 259.15 246.89 259.04 245.06 258.2C243.23 257.36 241.78 255.86 241 254C240.69 253.06 240.4 252.11 240.13 251.16C239.85 250.2 239.59 249.25 239.34 248.29C239.09 247.32 238.86 246.36 238.64 245.39C238.42 244.42 238.22 243.45 238.03 242.48C224.11 251.85 207.11 255.66 194.46 255.66C193.83 255.66 193.2 255.65 192.56 255.63C191.93 255.61 191.3 255.58 190.67 255.54C190.04 255.5 189.41 255.44 188.78 255.37C188.15 255.31 187.53 255.23 186.9 255.14C180.95 254.24 173.7 252.74 165.31 251C146.89 247.19 123.96 242.44 107.42 242.89C105.3 242.94 103.24 242.15 101.7 240.69C100.16 239.23 99.27 237.22 99.21 235.1C99.16 232.98 99.95 230.92 101.41 229.38C102.87 227.84 104.88 226.95 107 226.89C109.15 226.87 111.29 226.9 113.44 226.96C115.59 227.03 117.73 227.14 119.87 227.3C122.01 227.45 124.15 227.65 126.29 227.9C128.42 228.14 130.55 228.42 132.67 228.75C136.46 223.39 139.45 217.51 141.54 211.29C143.64 205.07 144.81 198.58 145.03 192.02C145.25 185.46 144.51 178.91 142.83 172.56C141.16 166.21 138.57 160.15 135.14 154.55L134.24 153.08C133.06 155.08 131.93 157.04 130.85 158.95C129.8 160.8 128.07 162.15 126.02 162.72C123.98 163.28 121.79 163.01 119.95 161.96C118.1 160.92 116.74 159.18 116.18 157.14C115.61 155.09 115.88 152.91 116.93 151.06C121.15 143.63 125.99 135.53 131.33 126.98C134.52 121.88 137.24 116.49 139.44 110.88C141.64 105.28 143.31 99.48 144.44 93.57C145.56 87.66 146.14 81.65 146.15 75.63C146.17 69.61 145.63 63.6 144.53 57.68C144.49 57.49 144.45 57.3 144.4 57.11C144.36 56.92 144.31 56.73 144.26 56.54C144.21 56.35 144.15 56.16 144.1 55.97C144.04 55.78 143.98 55.6 143.92 55.41C142.21 50.03 139.68 44.93 136.43 40.31C133.19 35.69 129.25 31.59 124.77 28.15C120.28 24.71 115.3 21.98 109.99 20.04C104.69 18.1 99.11 16.99 93.47 16.73L79.65 16.08C74.03 15.82 68.4 16.41 62.95 17.83C57.51 19.26 52.31 21.5 47.54 24.49C42.76 27.47 38.47 31.16 34.81 35.43C31.14 39.71 28.14 44.51 25.92 49.68C23.36 55.7 21.53 62.01 20.46 68.46C19.39 74.91 19.09 81.47 19.57 88C20.05 94.52 21.31 100.96 23.31 107.19C25.31 113.42 28.05 119.39 31.46 124.97C31.84 125.54 32.23 126.09 32.62 126.65C33.02 127.2 33.43 127.74 33.85 128.28C34.26 128.82 34.69 129.35 35.12 129.87C35.56 130.39 36.01 130.9 36.46 131.41C39.34 134.79 42.09 138.35 44.64 141.99C45.86 143.73 46.34 145.88 45.97 147.97C45.6 150.06 44.42 151.92 42.68 153.13C40.95 154.35 38.8 154.83 36.71 154.46C34.62 154.1 32.76 152.92 31.54 151.18C30.07 149.07 28.51 147 26.91 145C15.35 170.64 3.92 227.35 43.18 333.05C45.11 336.94 48.8 339.66 54.44 341.38C81.3 349.55 139.32 331 176.63 308.62C219.15 283.12 274.54 252.67 284.54 247.2L317.09 202.75Z" />
	</g>
</svg>