<svg xmlns="http://www.w3.org/2000/svg" viewBox="0 0 480 352" width="480" height="352">
	<style>
		tspan { white-space:pre }
		.shp0 { fill: #ffffff } 
	</style>
	<path id="Layer" fill-rule="evenodd" class="shp0" d="M475.06 80.61C476.03 81.01 476.91 81.6 477.66 82.34C478.4 83.09 478.99 83.97 479.39 84.94C479.79 85.91 480 86.95 480 88L480 136C480 137.05 479.79 138.09 479.39 139.06C478.99 140.03 478.4 140.91 477.66 141.66C476.91 142.4 476.03 142.99 475.06 143.39C474.09 143.79 473.05 144 472 144L448 144L448 156C448 159.68 447.28 163.32 445.87 166.72C444.46 170.11 442.4 173.2 439.8 175.8C437.2 178.4 434.11 180.46 430.72 181.87C427.32 183.28 423.68 184 420 184C418.96 183.99 417.93 183.93 416.9 183.81C415.87 183.69 414.85 183.51 413.84 183.27C412.83 183.04 411.84 182.74 410.86 182.4C409.89 182.05 408.93 181.65 408 181.19L408 192C408 200.49 404.63 208.63 398.63 214.63C392.63 220.63 384.49 224 376 224C367.51 224 359.37 220.63 353.37 214.63C347.37 208.63 344 200.49 344 192L344 144L320 144L320 173.34C320 175.49 319.82 177.63 319.47 179.75C319.13 181.86 318.61 183.95 317.93 185.98C317.26 188.02 316.42 190 315.42 191.9C314.43 193.8 313.28 195.62 312 197.34L296 218.66L296 352L280 352L280 216C280 215.57 280.03 215.14 280.1 214.72C280.17 214.29 280.27 213.88 280.41 213.47C280.55 213.06 280.71 212.67 280.91 212.29C281.11 211.91 281.34 211.54 281.6 211.2L299.2 187.74C299.97 186.71 300.66 185.62 301.25 184.48C301.85 183.34 302.36 182.15 302.76 180.93C303.17 179.71 303.48 178.45 303.69 177.18C303.89 175.91 304 174.63 304 173.34L304 144L233.6 144C232.5 145.24 231.27 146.36 229.93 147.35C228.59 148.33 227.16 149.17 225.65 149.86C224.13 150.55 222.56 151.08 220.93 151.43C219.31 151.79 217.66 151.98 216 152L200 152L200 154.23L212.17 158.29C234.3 165.66 248 194 248 216L232 216C232 199.84 221.36 178.22 207.07 173.45L189.47 167.57C188.68 167.31 187.93 166.92 187.26 166.43C186.59 165.93 186 165.33 185.51 164.66C185.02 163.98 184.64 163.23 184.39 162.44C184.13 161.64 184 160.81 184 159.98L184 143.98C184 142.93 184.21 141.89 184.61 140.92C185.01 139.95 185.6 139.07 186.34 138.32C187.09 137.58 187.97 136.99 188.94 136.59C189.91 136.19 190.95 135.98 192 135.98L216 135.98C216.69 135.98 217.38 135.88 218.05 135.7C218.72 135.52 219.37 135.25 219.97 134.9C220.57 134.55 221.12 134.12 221.61 133.63C222.09 133.14 222.52 132.58 222.86 131.98C222.97 131.79 223.06 131.6 223.16 131.41C223.25 131.21 223.33 131.02 223.41 130.81C223.49 130.61 223.56 130.41 223.62 130.2C223.68 130 223.73 129.79 223.78 129.58C223.79 129.51 223.8 129.45 223.81 129.38C223.82 129.31 223.83 129.25 223.84 129.18C223.85 129.11 223.86 129.05 223.86 128.98C223.87 128.91 223.88 128.85 223.88 128.78C223.89 128.65 223.91 128.53 223.91 128.4C223.92 128.27 223.93 128.15 223.93 128.02C223.93 127.89 223.92 127.77 223.91 127.64C223.91 127.51 223.89 127.39 223.88 127.26C223.87 127.13 223.85 127 223.83 126.88C223.81 126.75 223.79 126.62 223.77 126.5C223.74 126.37 223.71 126.25 223.68 126.12C223.65 126 223.62 125.87 223.58 125.75C223.53 125.6 223.48 125.44 223.42 125.29C223.37 125.14 223.3 125 223.24 124.85C223.17 124.7 223.1 124.56 223.02 124.42C222.95 124.28 222.87 124.14 222.78 124L222.6 123.75C222.15 123.16 221.63 122.62 221.05 122.15C220.47 121.68 219.84 121.28 219.17 120.96C218.5 120.63 217.8 120.39 217.07 120.23C216.35 120.07 215.6 119.99 214.86 120L168 120L168 170.71C168 172.28 168.15 173.85 168.46 175.4C168.76 176.94 169.22 178.45 169.82 179.9C170.42 181.36 171.16 182.75 172.03 184.06C172.9 185.37 173.89 186.59 175 187.71L197.66 210.34C198.03 210.71 198.36 211.12 198.65 211.55C198.95 211.99 199.19 212.45 199.39 212.94C199.59 213.42 199.75 213.92 199.85 214.44C199.95 214.95 200 215.48 200 216L200 352L184 352L184 219.31L163.72 199C161.86 197.15 160.19 195.13 158.73 192.95C157.27 190.78 156.03 188.46 155.03 186.04C154.02 183.63 153.26 181.11 152.75 178.54C152.25 175.97 151.99 173.36 152 170.74L152 144L136 144L136 192C136 200.49 132.63 208.63 126.63 214.63C120.63 220.63 112.49 224 104 224C95.51 224 87.37 220.63 81.37 214.63C75.37 208.63 72 200.49 72 192L72 181.19C71.07 181.65 70.11 182.05 69.14 182.4C68.16 182.74 67.17 183.04 66.16 183.27C65.15 183.51 64.13 183.69 63.1 183.81C62.07 183.93 61.04 183.99 60 184C56.32 184 52.68 183.28 49.28 181.87C45.89 180.46 42.8 178.4 40.2 175.8C37.6 173.2 35.54 170.11 34.13 166.72C32.72 163.32 32 159.68 32 156L32 144L8 144C6.95 144 5.91 143.79 4.94 143.39C3.97 142.99 3.09 142.4 2.34 141.66C1.6 140.91 1.01 140.03 0.61 139.06C0.21 138.09 0 137.05 0 136L0 88C0 86.95 0.21 85.91 0.61 84.94C1.01 83.97 1.6 83.09 2.34 82.34C3.09 81.6 3.97 81.01 4.94 80.61C5.91 80.21 6.95 80 8 80L32 80L32 68C32 64.32 32.72 60.68 34.13 57.28C35.54 53.89 37.6 50.8 40.2 48.2C42.8 45.6 45.89 43.54 49.28 42.13C52.68 40.72 56.32 40 60 40C61.04 40.01 62.07 40.07 63.1 40.19C64.13 40.31 65.15 40.49 66.16 40.73C67.17 40.96 68.16 41.26 69.14 41.6C70.11 41.95 71.07 42.35 72 42.81L72 32C72 23.51 75.37 15.37 81.37 9.37C87.37 3.37 95.51 0 104 0C112.49 0 120.63 3.37 126.63 9.37C132.63 15.37 136 23.51 136 32L136 80L168 80L168 72C167.98 67.36 169.31 62.81 171.84 58.92C174.36 55.02 177.96 51.94 182.2 50.06C186.44 48.18 191.14 47.57 195.72 48.31C200.3 49.05 204.57 51.11 208 54.24C210.16 52.25 212.68 50.68 215.41 49.61C218.15 48.55 221.06 48 224 48C226.94 48 229.85 48.55 232.59 49.61C235.32 50.68 237.84 52.25 240 54.24C242.16 52.25 244.68 50.68 247.41 49.61C250.15 48.55 253.06 48 256 48C258.94 48 261.85 48.55 264.59 49.61C267.32 50.68 269.84 52.25 272 54.24C275.43 51.11 279.7 49.05 284.28 48.31C288.86 47.57 293.56 48.18 297.8 50.06C302.04 51.94 305.64 55.02 308.16 58.92C310.69 62.81 312.02 67.36 312 72L312 80L344 80L344 32C344 23.51 347.37 15.37 353.37 9.37C359.37 3.37 367.51 0 376 0C384.49 0 392.63 3.37 398.63 9.37C404.63 15.37 408 23.51 408 32L408 42.81C408.93 42.35 409.89 41.95 410.86 41.6C411.84 41.26 412.83 40.96 413.84 40.73C414.85 40.49 415.87 40.31 416.9 40.19C417.93 40.07 418.96 40.01 420 40C423.68 40 427.32 40.72 430.72 42.13C434.11 43.54 437.2 45.6 439.8 48.2C442.4 50.8 444.46 53.89 445.87 57.28C447.28 60.68 448 64.32 448 68L448 80L472 80C473.05 80 474.09 80.21 475.06 80.61ZM32 96L16 96L16 128L32 128L32 96ZM72 68C72 64.82 70.74 61.77 68.49 59.51C66.23 57.26 63.18 56 60 56C56.82 56 53.77 57.26 51.51 59.51C49.26 61.77 48 64.82 48 68L48 156C48 159.18 49.26 162.23 51.51 164.49C53.77 166.74 56.82 168 60 168C63.18 168 66.23 166.74 68.49 164.49C70.74 162.23 72 159.18 72 156L72 68ZM120 32C120 27.76 118.31 23.69 115.31 20.69C112.31 17.69 108.24 16 104 16C99.76 16 95.69 17.69 92.69 20.69C89.69 23.69 88 27.76 88 32L88 192C88 196.24 89.69 200.31 92.69 203.31C95.69 206.31 99.76 208 104 208C108.24 208 112.31 206.31 115.31 203.31C118.31 200.31 120 196.24 120 192L120 32ZM169.37 104C169.13 103.31 168.99 102.58 168.81 101.86C168.7 101.41 168.54 100.98 168.46 100.5C168.39 100.13 168.32 99.76 168.26 99.38C168.21 99.01 168.16 98.64 168.12 98.26C168.08 97.89 168.05 97.51 168.03 97.13C168.01 96.76 168 96.38 168 96L136 96L136 128L152 128L152 112C152 110.95 152.21 109.91 152.61 108.94C153.01 107.97 153.6 107.09 154.34 106.34C155.09 105.6 155.97 105.01 156.94 104.61C157.91 104.21 158.95 104 160 104L169.37 104ZM200 72C200 69.88 199.16 67.84 197.66 66.34C196.16 64.84 194.12 64 192 64C189.88 64 187.84 64.84 186.34 66.34C184.84 67.84 184 69.88 184 72L184 96C184 98.12 184.84 100.16 186.34 101.66C187.84 103.16 189.88 104 192 104C194.12 104 196.16 103.16 197.66 101.66C199.16 100.16 200 98.12 200 96L200 72ZM232 72C232 69.88 231.16 67.84 229.66 66.34C228.16 64.84 226.12 64 224 64C221.88 64 219.84 64.84 218.34 66.34C216.84 67.84 216 69.88 216 72L216 96C216 98.12 216.84 100.16 218.34 101.66C219.84 103.16 221.88 104 224 104C226.12 104 228.16 103.16 229.66 101.66C231.16 100.16 232 98.12 232 96L232 72ZM280 96C280 98.12 280.84 100.16 282.34 101.66C283.84 103.16 285.88 104 288 104C290.12 104 292.16 103.16 293.66 101.66C295.16 100.16 296 98.12 296 96L296 72C296 69.88 295.16 67.84 293.66 66.34C292.16 64.84 290.12 64 288 64C285.88 64 283.84 64.84 282.34 66.34C280.84 67.84 280 69.88 280 72L280 96ZM248 96C248 98.12 248.84 100.16 250.34 101.66C251.84 103.16 253.88 104 256 104C258.12 104 260.16 103.16 261.66 101.66C263.16 100.16 264 98.12 264 96L264 72C264 69.88 263.16 67.84 261.66 66.34C260.16 64.84 258.12 64 256 64C253.88 64 251.84 64.84 250.34 66.34C248.84 67.84 248 69.88 248 72L248 96ZM344 96L312 96C312 96.4 311.98 96.81 311.96 97.21C311.94 97.61 311.9 98.02 311.86 98.42C311.82 98.82 311.76 99.22 311.7 99.62C311.64 100.02 311.56 100.41 311.48 100.81C310.85 103.89 309.63 106.82 307.87 109.42C306.11 112.03 303.86 114.26 301.24 115.99C298.62 117.73 295.68 118.93 292.6 119.53C289.51 120.13 286.34 120.12 283.26 119.49C282.76 119.39 282.26 119.2 281.76 119.06C281.52 119 281.27 118.94 281.03 118.87C280.79 118.81 280.55 118.74 280.31 118.66C280.08 118.59 279.84 118.51 279.6 118.43C279.37 118.35 279.13 118.26 278.9 118.17C278.35 117.95 277.84 117.64 277.3 117.37C277.1 117.28 276.9 117.18 276.7 117.08C276.5 116.98 276.31 116.87 276.11 116.77C275.92 116.66 275.72 116.55 275.53 116.44C275.34 116.33 275.15 116.22 274.96 116.1C274.44 115.77 273.94 115.35 273.44 114.97C272.94 114.59 272.41 114.26 271.94 113.85C271.45 114.26 270.96 114.59 270.45 114.97C269.94 115.35 269.46 115.75 268.94 116.1C268.75 116.22 268.56 116.33 268.37 116.44C268.17 116.55 267.98 116.66 267.78 116.77C267.59 116.87 267.39 116.98 267.19 117.08C266.99 117.18 266.79 117.28 266.59 117.37C266.07 117.63 265.56 117.94 264.99 118.17C264.76 118.26 264.52 118.35 264.29 118.43C264.05 118.51 263.81 118.59 263.58 118.66C263.34 118.74 263.1 118.81 262.86 118.87C262.62 118.94 262.37 119 262.13 119.06C261.63 119.2 261.15 119.39 260.63 119.49C259.86 119.65 259.09 119.77 258.31 119.84C257.53 119.92 256.75 119.96 255.97 119.96C255.18 119.96 254.4 119.92 253.62 119.84C252.84 119.77 252.07 119.65 251.3 119.49C250.81 119.39 250.31 119.2 249.81 119.06C249.57 119 249.32 118.94 249.08 118.87C248.84 118.81 248.6 118.74 248.36 118.66C248.12 118.59 247.88 118.51 247.65 118.43C247.41 118.35 247.17 118.26 246.94 118.17C246.4 117.95 245.89 117.64 245.34 117.37C245.14 117.28 244.94 117.18 244.74 117.08C244.55 116.98 244.35 116.87 244.16 116.77C243.96 116.66 243.77 116.55 243.58 116.44C243.39 116.33 243.2 116.22 243.01 116.1C242.49 115.77 241.99 115.35 241.49 114.97C240.99 114.59 240.46 114.26 239.99 113.85C239.43 114.35 238.8 114.77 238.2 115.21C238.12 115.28 238.04 115.35 237.96 115.42C237.88 115.49 237.79 115.56 237.71 115.62C237.63 115.69 237.54 115.75 237.46 115.82C237.37 115.88 237.29 115.95 237.2 116.01C237.18 116.03 237.16 116.05 237.14 116.06C237.12 116.08 237.1 116.1 237.08 116.12C237.05 116.13 237.03 116.15 237.01 116.16C236.99 116.18 236.96 116.2 236.94 116.21C237.2 116.7 237.31 117.22 237.54 117.7C237.66 117.94 237.78 118.19 237.89 118.43C238 118.68 238.1 118.93 238.21 119.18C238.31 119.43 238.41 119.68 238.5 119.93C238.6 120.19 238.68 120.44 238.77 120.7C238.95 121.27 239.16 121.82 239.3 122.4C239.35 122.62 239.5 122.82 239.5 123.04C239.58 123.43 239.65 123.82 239.71 124.21C239.78 124.61 239.83 125 239.87 125.4C239.91 125.79 239.94 126.19 239.97 126.59C239.99 126.98 240 127.38 240 127.78L240 128L344 128L344 96ZM392 32C392 27.76 390.31 23.69 387.31 20.69C384.31 17.69 380.24 16 376 16C371.76 16 367.69 17.69 364.69 20.69C361.69 23.69 360 27.76 360 32L360 192C360 196.24 361.69 200.31 364.69 203.31C367.69 206.31 371.76 208 376 208C380.24 208 384.31 206.31 387.31 203.31C390.31 200.31 392 196.24 392 192L392 32ZM432 68C432 64.82 430.74 61.77 428.49 59.51C426.23 57.26 423.18 56 420 56C416.82 56 413.77 57.26 411.51 59.51C409.26 61.77 408 64.82 408 68L408 156C408 159.18 409.26 162.23 411.51 164.49C413.77 166.74 416.82 168 420 168C423.18 168 426.23 166.74 428.49 164.49C430.74 162.23 432 159.18 432 156L432 68ZM464 96L448 96L448 128L464 128L464 96Z" />
</svg>