<svg xmlns="http://www.w3.org/2000/svg" viewBox="0 0 410 410" width="410" height="410">
	<style>
		tspan { white-space:pre }
		.shp0 { fill: #ffffff } 
	</style>
	<path id="Layer" class="shp0" d="M98.2 358.31C102.02 358.31 105.3 355.61 106.04 351.87C106.78 348.12 104.78 344.38 101.25 342.92C97.72 341.46 93.66 342.69 91.54 345.87C89.42 349.04 89.84 353.27 92.54 355.97C92.91 356.34 93.32 356.67 93.75 356.96C94.19 357.26 94.65 357.5 95.14 357.7C95.62 357.9 96.12 358.06 96.64 358.16C97.15 358.26 97.68 358.31 98.2 358.31L98.2 358.31Z" />
	<path id="Layer" fill-rule="evenodd" class="shp0" d="M401.57 393.65C403.69 393.65 405.73 394.49 407.23 395.99C408.73 397.49 409.57 399.53 409.57 401.65C409.57 403.77 408.73 405.81 407.23 407.31C405.73 408.81 403.69 409.65 401.57 409.65L8 409.65C5.88 409.65 3.84 408.81 2.34 407.31C0.84 405.81 0 403.77 0 401.65C0 399.53 0.84 397.49 2.34 395.99C3.84 394.49 5.88 393.65 8 393.65L47.56 393.65C46.48 392.5 45.45 391.3 44.47 390.06C43.5 388.81 42.58 387.52 41.73 386.2C40.87 384.87 40.08 383.5 39.35 382.1C38.62 380.7 37.96 379.26 37.36 377.8C35.86 374.15 34.78 370.33 34.15 366.43C33.52 362.53 33.35 358.57 33.62 354.63C33.9 350.69 34.64 346.79 35.81 343.02C36.98 339.25 38.59 335.62 40.59 332.22C40.04 332.1 39.49 331.95 38.94 331.8C38.39 331.64 37.85 331.47 37.31 331.29C36.78 331.1 36.24 330.9 35.72 330.69C35.19 330.47 34.67 330.24 34.16 330C31.6 328.8 29.22 327.24 27.09 325.36C24.97 323.49 23.13 321.32 21.62 318.93C20.11 316.53 18.95 313.94 18.17 311.21C17.39 308.49 17.01 305.67 17.03 302.84C17.03 302.27 17.09 301.7 17.21 301.13C17.33 300.57 17.52 300.03 17.75 299.51C17.99 298.99 18.29 298.49 18.63 298.03C18.97 297.58 19.37 297.15 19.8 296.78L81.19 243.78L104.27 175.16C106.59 168.26 109.87 161.71 114.03 155.73C118.18 149.75 123.17 144.39 128.83 139.81C134.49 135.23 140.77 131.47 147.49 128.65C154.2 125.84 161.28 123.99 168.52 123.16C166.29 120.85 164.28 118.33 162.53 115.63C160.78 112.94 159.29 110.08 158.09 107.1C156.89 104.12 155.97 101.03 155.36 97.88C154.75 94.72 154.44 91.51 154.44 88.3L154.44 77.81C154.44 74.13 154.85 70.46 155.65 66.86C156.45 63.27 157.64 59.77 159.21 56.44C160.77 53.11 162.7 49.96 164.95 47.04C167.2 44.13 169.77 41.47 172.6 39.12L172.6 32.2C172.6 23.66 175.99 15.47 182.03 9.43C188.07 3.39 196.26 0 204.8 0C213.34 0 221.53 3.39 227.57 9.43C233.61 15.47 237 23.66 237 32.2L237 39.12C239.83 41.47 242.4 44.13 244.65 47.04C246.9 49.95 248.83 53.11 250.39 56.44C251.96 59.77 253.15 63.27 253.95 66.86C254.76 70.46 255.16 74.13 255.16 77.81L255.16 88.34C255.16 91.55 254.85 94.76 254.24 97.92C253.63 101.07 252.71 104.16 251.51 107.14C250.31 110.12 248.82 112.98 247.07 115.67C245.32 118.37 243.31 120.89 241.08 123.2C248.31 124.03 255.4 125.89 262.11 128.7C268.83 131.52 275.11 135.28 280.77 139.86C286.43 144.44 291.41 149.8 295.57 155.78C299.73 161.76 303.02 168.3 305.34 175.2L328.37 243.79L389.76 296.79C390.19 297.16 390.59 297.59 390.93 298.04C391.27 298.5 391.57 299 391.81 299.52C392.04 300.04 392.23 300.58 392.35 301.14C392.47 301.71 392.53 302.28 392.53 302.85C392.54 305.68 392.16 308.49 391.38 311.21C390.6 313.92 389.44 316.51 387.93 318.9C386.42 321.29 384.58 323.45 382.46 325.32C380.34 327.19 377.97 328.75 375.41 329.95C374.9 330.19 374.38 330.42 373.85 330.64C373.32 330.85 372.79 331.05 372.25 331.24C371.71 331.42 371.17 331.59 370.62 331.74C370.08 331.9 369.53 332.04 368.97 332.16C369.23 332.6 369.48 333.04 369.72 333.49C369.97 333.94 370.21 334.39 370.44 334.85C370.67 335.3 370.89 335.76 371.11 336.22C371.33 336.68 371.54 337.14 371.75 337.61C373.14 340.76 374.21 344.04 374.94 347.4C375.67 350.76 376.06 354.19 376.1 357.63C376.14 361.07 375.82 364.51 375.17 367.89C374.52 371.27 373.52 374.57 372.2 377.75C371.6 379.21 370.94 380.65 370.21 382.05C369.48 383.45 368.69 384.82 367.83 386.15C366.98 387.47 366.06 388.76 365.09 390.01C364.11 391.25 363.08 392.45 362 393.6L401.57 393.6L401.57 393.65ZM33.41 306.18C33.97 308.48 35.1 310.6 36.71 312.34C38.31 314.08 40.32 315.38 42.57 316.14C44.81 316.89 47.2 317.06 49.53 316.63C51.86 316.21 54.04 315.2 55.87 313.7L106.58 272.38C108.67 270.67 110.66 268.83 112.53 266.88C114.4 264.93 116.15 262.87 117.77 260.7C119.39 258.53 120.87 256.27 122.21 253.93C123.56 251.58 124.75 249.15 125.8 246.66L143.74 203.88L143.74 182.53C143.74 180.41 144.58 178.37 146.08 176.87C147.58 175.37 149.62 174.53 151.74 174.53C153.86 174.53 155.9 175.37 157.4 176.87C158.9 178.37 159.74 180.41 159.74 182.53L159.74 279.13L249.77 279.13L249.77 182.53C249.77 180.41 250.61 178.37 252.11 176.87C253.61 175.37 255.65 174.53 257.77 174.53C259.89 174.53 261.93 175.37 263.43 176.87C264.93 178.37 265.77 180.41 265.77 182.53L265.77 203.8L283.77 246.66C284.82 249.15 286.02 251.58 287.36 253.92C288.7 256.27 290.19 258.53 291.81 260.7C293.43 262.86 295.18 264.93 297.05 266.88C298.92 268.83 300.91 270.67 303 272.38L353.73 313.7C355.56 315.2 357.74 316.21 360.07 316.64C362.4 317.06 364.8 316.89 367.04 316.14C369.29 315.39 371.3 314.08 372.9 312.34C374.51 310.6 375.64 308.48 376.2 306.18L316.3 254.51C316.03 254.28 315.78 254.03 315.54 253.76C315.3 253.49 315.08 253.21 314.88 252.91C314.68 252.62 314.51 252.31 314.35 251.99C314.19 251.67 314.05 251.34 313.94 251L290.25 180.3C288.23 174.27 285.27 168.59 281.49 163.47C277.72 158.35 273.16 153.85 267.99 150.13C262.83 146.42 257.11 143.54 251.06 141.59C245 139.64 238.67 138.65 232.31 138.65L177.46 138.65C171.09 138.64 164.76 139.63 158.7 141.57C152.64 143.52 146.91 146.4 141.74 150.12C136.57 153.83 132.01 158.33 128.23 163.46C124.44 168.58 121.49 174.26 119.46 180.3L95.69 251C95.58 251.34 95.44 251.67 95.28 251.99C95.12 252.31 94.95 252.62 94.75 252.91C94.55 253.21 94.33 253.49 94.09 253.76C93.85 254.03 93.6 254.28 93.33 254.51L33.44 306.18L33.41 306.18ZM204.75 16C202.81 16.01 200.88 16.37 199.06 17.06C197.25 17.75 195.57 18.76 194.11 20.05C192.65 21.33 191.44 22.87 190.52 24.58C189.6 26.3 189.01 28.16 188.75 30.09C191.33 29.22 193.98 28.56 196.67 28.11C199.36 27.67 202.08 27.45 204.8 27.45C207.52 27.45 210.24 27.67 212.93 28.11C215.62 28.56 218.27 29.22 220.85 30.09C220.6 28.16 219.99 26.29 219.08 24.57C218.16 22.85 216.94 21.31 215.47 20.03C214.01 18.74 212.33 17.73 210.5 17.04C208.68 16.36 206.75 16 204.8 16L204.75 16ZM170.44 88.3C170.44 97.41 174.06 106.15 180.5 112.6C186.95 119.04 195.69 122.66 204.8 122.66C213.91 122.66 222.65 119.04 229.1 112.6C235.54 106.15 239.16 97.41 239.16 88.3L239.16 77.81C239.16 68.7 235.54 59.96 229.1 53.51C222.65 47.07 213.91 43.45 204.8 43.45C195.69 43.45 186.95 47.07 180.5 53.51C174.06 59.96 170.44 68.7 170.44 77.81L170.44 88.3ZM265.83 281.62L308.3 297.37L292.91 284.84C290.31 282.71 287.84 280.43 285.52 278C283.19 275.57 281.02 273 279.01 270.31C277 267.61 275.16 264.8 273.49 261.88C271.82 258.96 270.34 255.94 269.04 252.84L265.83 245.19L265.83 281.62ZM143.74 245.22L140.56 252.79C139.26 255.89 137.78 258.91 136.11 261.83C134.44 264.75 132.6 267.56 130.59 270.26C128.58 272.95 126.4 275.52 124.08 277.95C121.75 280.38 119.28 282.66 116.68 284.79L101.3 297.32L143.77 281.58L143.74 245.22ZM52.15 371.67C53.42 374.8 55.14 377.73 57.24 380.36C59.35 383 61.82 385.33 64.59 387.26C67.36 389.2 70.39 390.72 73.59 391.8C76.79 392.87 80.13 393.48 83.5 393.6L85.84 393.6C86.81 393.57 87.78 393.5 88.74 393.39C89.71 393.28 90.66 393.14 91.62 392.95C92.57 392.76 93.51 392.54 94.45 392.27C95.38 392.01 96.3 391.71 97.21 391.37L210.79 349.02C211.01 348.94 211.24 348.86 211.47 348.8C211.69 348.74 211.92 348.68 212.16 348.64C212.39 348.6 212.62 348.57 212.86 348.54C213.1 348.52 213.33 348.51 213.57 348.51L235.57 348.51L232.05 343.58C231.13 342.3 230.13 341.07 229.05 339.91C227.98 338.76 226.83 337.67 225.62 336.66C224.4 335.65 223.13 334.71 221.8 333.87C220.46 333.02 219.08 332.25 217.65 331.58C217.57 331.55 217.5 331.52 217.42 331.49C217.34 331.45 217.27 331.42 217.19 331.39C217.11 331.35 217.04 331.32 216.96 331.28C216.89 331.25 216.81 331.21 216.74 331.17C214.7 330.27 212.59 329.56 210.42 329.04C208.26 328.52 206.05 328.2 203.83 328.08C201.6 327.96 199.37 328.03 197.16 328.31C194.95 328.59 192.77 329.06 190.65 329.73L128.65 349.13C126.64 349.72 124.47 349.5 122.62 348.51C120.77 347.52 119.38 345.84 118.76 343.84C118.13 341.84 118.32 339.67 119.28 337.8C120.24 335.94 121.89 334.52 123.88 333.86L185.88 314.46C188.94 313.5 192.08 312.82 195.26 312.42C198.44 312.03 201.65 311.92 204.85 312.11C208.05 312.29 211.23 312.76 214.35 313.52C217.46 314.28 220.5 315.31 223.43 316.62L313.62 342.62C315.47 343.15 317.07 344.34 318.12 345.95C319.18 347.57 319.61 349.52 319.34 351.43C319.07 353.34 318.12 355.08 316.66 356.35C315.2 357.62 313.34 358.31 311.41 358.31C311.22 358.31 311.04 358.3 310.85 358.29C310.66 358.28 310.47 358.26 310.29 358.23C310.1 358.21 309.92 358.17 309.74 358.14C309.55 358.1 309.37 358.05 309.19 358L249.73 340.93L257.63 352C258.47 353.2 258.97 354.62 259.06 356.09C259.15 357.55 258.84 359.02 258.16 360.32C257.47 361.62 256.44 362.71 255.18 363.46C253.92 364.21 252.47 364.6 251 364.59L240.31 364.59L312.31 391.37C313.22 391.71 314.14 392.01 315.08 392.28C316.01 392.54 316.96 392.77 317.91 392.95C318.87 393.14 319.83 393.29 320.79 393.4C321.76 393.5 322.73 393.57 323.7 393.6L326 393.6C334.18 393.29 342 390.15 348.12 384.72C354.25 379.3 358.31 371.92 359.6 363.83C360.9 355.75 359.36 347.47 355.23 340.4C351.11 333.33 344.67 327.91 337 325.05L256.39 295.13L153.24 295.13L72.6 325.05C68.15 326.7 64.07 329.23 60.61 332.49C57.16 335.75 54.39 339.67 52.49 344.02C50.58 348.37 49.57 353.07 49.52 357.82C49.47 362.57 50.37 367.28 52.18 371.67L52.15 371.67ZM137.09 393.6L272.54 393.6L204.83 368.41L137.09 393.6Z" />
</svg>